<svg width="32" height="32" viewBox="0 0 32 32" fill="none" xmlns="http://www.w3.org/2000/svg">
<g clip-path="url(#clip0_6784_2057)">
<path d="M28.3162 6.83094C28.3161 6.66519 28.2503 6.50625 28.133 6.38906L21.9193 0.175312C21.8021 0.0580941 21.6432 -0.0077771 21.4774 -0.0078125H4.32617C4.16041 -0.0078125 4.00144 0.0580355 3.88423 0.175246C3.76702 0.292456 3.70117 0.451427 3.70117 0.617188V31.3672C3.70117 31.5329 3.76702 31.6919 3.88423 31.8091C4.00144 31.9263 4.16041 31.9922 4.32617 31.9922H27.6912C27.8569 31.9922 28.0159 31.9263 28.1331 31.8091C28.2503 31.6919 28.3162 31.5329 28.3162 31.3672V6.83094Z" fill="white"/>
<path d="M28.2957 6.67531C28.2684 6.56695 28.2122 6.46802 28.1332 6.38906L21.9194 0.175312C21.8022 0.0580941 21.6433 -0.0077771 21.4775 -0.0078125V5.92469C21.4775 6.1236 21.5566 6.31437 21.6972 6.45502C21.8379 6.59567 22.0286 6.67469 22.2275 6.67469L28.2957 6.67531Z" fill="#CCCCCC"/>
<path d="M28.296 6.67529H22.2285C22.0296 6.67529 21.8388 6.59627 21.6982 6.45562C21.5575 6.31497 21.4785 6.12421 21.4785 5.92529V6.55967C21.4785 6.97404 21.736 7.49717 22.2523 7.49717H28.3148V6.83092C28.3187 6.77832 28.3124 6.72544 28.296 6.67529Z" fill="#E0E0E0"/>
<path d="M3.70082 13.459L2.0127 15.1521H3.70082V13.459Z" fill="#0ABB7B"/>
<path d="M28.2959 13.459L29.9846 15.1521H28.2959V13.459Z" fill="#0ABB7B"/>
<path d="M29.5069 25.7605H2.49316C2.3274 25.7605 2.16843 25.6946 2.05122 25.5774C1.93401 25.4602 1.86816 25.3013 1.86816 25.1355V15.5518C1.86816 15.386 1.93401 15.227 2.05122 15.1098C2.16843 14.9926 2.3274 14.9268 2.49316 14.9268H29.5069C29.6727 14.9268 29.8316 14.9926 29.9489 15.1098C30.0661 15.227 30.1319 15.386 30.1319 15.5518V25.1349C30.132 25.217 30.1159 25.2983 30.0845 25.3742C30.0531 25.4501 30.0071 25.5191 29.9491 25.5772C29.891 25.6353 29.8221 25.6814 29.7462 25.7129C29.6704 25.7443 29.589 25.7605 29.5069 25.7605Z" fill="#0CE093"/>
<path d="M3.70117 25.7607H28.3168V26.5714H3.70117V25.7607Z" fill="#E0E0E0"/>
<path d="M15.1803 23.0793C14.9303 23.0216 14.6929 22.9189 14.4797 22.7762C14.417 22.7318 14.3647 22.6742 14.3265 22.6074C14.2927 22.5374 14.2766 22.4602 14.2797 22.3824C14.2776 22.2642 14.3174 22.1491 14.3922 22.0574C14.4222 22.0157 14.4616 21.9816 14.5072 21.9577C14.5528 21.9338 14.6032 21.9209 14.6547 21.9199C14.7078 21.9197 14.7606 21.9281 14.8109 21.9449C14.8768 21.969 14.9397 22.0004 14.9984 22.0387C15.1585 22.1298 15.33 22.1992 15.5084 22.2449C15.6958 22.2888 15.8878 22.3098 16.0803 22.3074C16.3265 22.3074 16.5128 22.2712 16.6428 22.1981C16.7012 22.1673 16.7497 22.1208 16.7829 22.0638C16.8161 22.0067 16.8325 21.9415 16.8303 21.8756C16.8303 21.7801 16.7709 21.6979 16.6522 21.6287C16.5334 21.5595 16.3072 21.4918 15.9734 21.4256C15.6382 21.3635 15.3124 21.2585 15.004 21.1131C14.7711 20.9918 14.6076 20.8491 14.5134 20.6849C14.415 20.5015 14.3665 20.2955 14.3728 20.0874C14.3711 19.8262 14.4544 19.5715 14.6103 19.3618C14.7787 19.1381 15.0034 18.963 15.2615 18.8543C15.5573 18.7262 15.8768 18.6622 16.199 18.6668C16.4732 18.6629 16.7465 18.6966 17.0115 18.7668C17.2451 18.8319 17.4654 18.9377 17.6622 19.0793C17.7278 19.1235 17.7824 19.1824 17.8215 19.2512C17.8548 19.3205 17.8708 19.3968 17.8684 19.4737C17.8706 19.5914 17.832 19.7062 17.759 19.7987C17.7297 19.8405 17.691 19.8747 17.6459 19.8986C17.6008 19.9225 17.5507 19.9354 17.4997 19.9362C17.4486 19.9366 17.3979 19.9292 17.349 19.9143C17.2812 19.8891 17.2162 19.8566 17.1553 19.8174C17.1347 19.8049 17.0753 19.7724 16.9772 19.7206C16.8684 19.6643 16.7529 19.6223 16.6334 19.5956C16.4928 19.5633 16.3489 19.5475 16.2047 19.5487C16.0258 19.5403 15.8482 19.5826 15.6922 19.6706C15.6339 19.7018 15.5851 19.7482 15.551 19.8048C15.5169 19.8615 15.4987 19.9263 15.4984 19.9924C15.4952 20.0635 15.5199 20.133 15.5672 20.1862C15.6409 20.2531 15.7284 20.3032 15.8234 20.3331C16.005 20.3964 16.1912 20.4455 16.3803 20.4799C16.7076 20.5426 17.025 20.649 17.324 20.7962C17.5228 20.8916 17.6917 21.0397 17.8122 21.2243C17.9111 21.3995 17.9608 21.5982 17.9559 21.7993C17.9601 22.0609 17.8789 22.3168 17.7247 22.5281C17.5585 22.7478 17.3342 22.9166 17.0772 23.0156C16.7696 23.1361 16.4412 23.1947 16.1109 23.1881C15.7974 23.1911 15.4847 23.1545 15.1803 23.0793Z" fill="white"/>
<path d="M10.8189 22.9165C10.4903 22.7361 10.2227 22.4619 10.0502 22.129C9.87122 21.7552 9.77832 21.346 9.77832 20.9315C9.77832 20.5171 9.87122 20.1079 10.0502 19.734C10.2229 19.4011 10.4904 19.1268 10.8189 18.9459C11.2199 18.7432 11.6672 18.6497 12.1157 18.6749C12.5643 18.7002 12.9983 18.8432 13.3739 19.0896C13.4368 19.1313 13.4892 19.1869 13.5271 19.2521C13.5609 19.3224 13.577 19.3999 13.5739 19.4778C13.5771 19.5966 13.5384 19.7127 13.4646 19.8059C13.4337 19.8474 13.3935 19.8812 13.3473 19.9045C13.3011 19.9279 13.2501 19.9401 13.1983 19.9403C13.1408 19.9411 13.0837 19.9316 13.0296 19.9121C12.9684 19.8877 12.9098 19.8574 12.8546 19.8215C12.7256 19.7417 12.587 19.6787 12.4421 19.634C12.3121 19.5964 12.1774 19.5775 12.0421 19.5778C11.6708 19.5778 11.3946 19.6892 11.2133 19.9121C11.0321 20.1351 10.9414 20.4738 10.9414 20.9284C10.9414 21.3867 11.0321 21.7276 11.2133 21.9509C11.3946 22.1742 11.6708 22.2846 12.0421 22.2821C12.1655 22.2813 12.288 22.2602 12.4046 22.2196C12.5212 22.178 12.6712 22.1165 12.8546 22.0353C12.9421 21.989 13.0071 21.9578 13.0483 21.9415C13.0963 21.9237 13.1472 21.9152 13.1983 21.9165C13.2501 21.9165 13.3012 21.9287 13.3474 21.9521C13.3937 21.9754 13.4338 22.0092 13.4646 22.0509C13.5386 22.144 13.5773 22.2602 13.5739 22.379C13.5763 22.4557 13.5602 22.5318 13.5271 22.6009C13.4901 22.6676 13.4376 22.7244 13.3739 22.7665C12.9985 23.0134 12.5644 23.1567 12.1158 23.1819C11.6671 23.2072 11.2198 23.1134 10.8189 22.9103V22.9165Z" fill="white"/>
<path d="M21.8611 18.7672C21.9441 18.7172 22.0393 18.6913 22.1361 18.6922C22.2843 18.6917 22.428 18.7424 22.543 18.8359C22.5997 18.8777 22.6457 18.9324 22.6772 18.9954C22.7087 19.0584 22.7248 19.128 22.7242 19.1984C22.7229 19.2747 22.7036 19.3497 22.668 19.4172L21.0167 22.8253C20.9651 22.9354 20.8797 23.0263 20.773 23.0847C20.666 23.1445 20.5455 23.1759 20.423 23.1759C20.3004 23.1759 20.1799 23.1445 20.073 23.0847C19.9661 23.0263 19.8805 22.9355 19.8286 22.8253L18.178 19.4159C18.1441 19.348 18.1269 19.273 18.128 19.1972C18.1284 19.1267 18.1456 19.0573 18.1782 18.9948C18.2108 18.9323 18.2579 18.8785 18.3155 18.8378C18.434 18.7421 18.5819 18.6902 18.7342 18.6909C18.8322 18.6904 18.9285 18.7163 19.013 18.7659C19.1004 18.8187 19.1692 18.8973 19.2098 18.9909L20.4417 21.6547L21.6667 18.9922C21.7068 18.8989 21.7747 18.8204 21.8611 18.7672Z" fill="white"/>
</g>
<defs>
<clipPath id="clip0_6784_2057">
<rect width="32" height="32" fill="white"/>
</clipPath>
</defs>
</svg>
