<svg width="32" height="32" viewBox="0 0 32 32" fill="none" xmlns="http://www.w3.org/2000/svg">
<g clip-path="url(#clip0_6784_2118)">
<path d="M28.3162 6.83045C28.3161 6.6647 28.2503 6.50576 28.133 6.38857L21.9193 0.174824C21.8021 0.0576058 21.6432 -0.00826538 21.4774 -0.00830078H4.32617C4.16041 -0.00830078 4.00144 0.0575472 3.88423 0.174757C3.76702 0.291968 3.70117 0.450939 3.70117 0.616699V31.3667C3.70117 31.5325 3.76702 31.6914 3.88423 31.8086C4.00144 31.9258 4.16041 31.9917 4.32617 31.9917H27.6912C27.8569 31.9917 28.0159 31.9258 28.1331 31.8086C28.2503 31.6914 28.3162 31.5325 28.3162 31.3667V6.83045Z" fill="#F1F1F1"/>
<path d="M28.2957 6.67482C28.2684 6.56646 28.2122 6.46753 28.1332 6.38857L21.9194 0.174824C21.8022 0.0576058 21.6433 -0.00826538 21.4775 -0.00830078V5.9242C21.4775 6.12311 21.5566 6.31388 21.6972 6.45453C21.8379 6.59518 22.0286 6.6742 22.2275 6.6742L28.2957 6.67482Z" fill="#C7C7C7"/>
<path d="M28.296 6.6748H22.2285C22.0296 6.6748 21.8388 6.59579 21.6982 6.45513C21.5575 6.31448 21.4785 6.12372 21.4785 5.9248V6.55918C21.4785 6.97355 21.736 7.49668 22.2523 7.49668H28.3148V6.83043C28.3187 6.77783 28.3124 6.72496 28.296 6.6748Z" fill="#E4E4E4"/>
<path d="M3.70082 13.4585L2.0127 15.1516H3.70082V13.4585Z" fill="#086343"/>
<path d="M28.2959 13.4585L29.9846 15.1516H28.2959V13.4585Z" fill="#086343"/>
<path d="M29.5069 25.7605H2.49316C2.3274 25.7605 2.16843 25.6947 2.05122 25.5774C1.93401 25.4602 1.86816 25.3013 1.86816 25.1355V15.5518C1.86816 15.386 1.93401 15.227 2.05122 15.1098C2.16843 14.9926 2.3274 14.9268 2.49316 14.9268H29.5069C29.6727 14.9268 29.8316 14.9926 29.9489 15.1098C30.0661 15.227 30.1319 15.386 30.1319 15.5518V25.1349C30.132 25.217 30.1159 25.2983 30.0845 25.3742C30.0531 25.4501 30.0071 25.5191 29.9491 25.5772C29.891 25.6353 29.8221 25.6814 29.7462 25.7129C29.6704 25.7443 29.589 25.7605 29.5069 25.7605Z" fill="#008556"/>
<path d="M3.7002 25.7607H28.3158V26.5714H3.7002V25.7607Z" fill="#E4E4E4"/>
<path d="M14.2181 22.4159C14.2184 22.4866 14.2038 22.5566 14.1752 22.6213C14.1465 22.6859 14.1045 22.7437 14.0518 22.7909C14.0033 22.8414 13.945 22.8816 13.8806 22.9091C13.8162 22.9366 13.7469 22.9508 13.6768 22.9509C13.6033 22.9503 13.5308 22.9331 13.4648 22.9007C13.3988 22.8682 13.341 22.8213 13.2956 22.7634L12.2199 21.4753L11.1256 22.7634C11.0811 22.8208 11.0243 22.8674 10.9594 22.8999C10.8945 22.9323 10.8231 22.9498 10.7506 22.9509C10.6803 22.9505 10.6108 22.9359 10.5463 22.9078C10.4819 22.8798 10.4238 22.839 10.3756 22.7878C10.3265 22.7433 10.2866 22.6896 10.2583 22.6297C10.23 22.5698 10.2137 22.5049 10.2105 22.4387C10.2074 22.3725 10.2172 22.3063 10.2397 22.244C10.2621 22.1816 10.2966 22.1243 10.3412 22.0753L11.5418 20.6872L10.3724 19.3303C10.2874 19.2378 10.2386 19.1178 10.2349 18.9922C10.2349 18.9221 10.2497 18.8527 10.2782 18.7886C10.3067 18.7246 10.3484 18.6672 10.4006 18.6203C10.45 18.57 10.5089 18.5299 10.5739 18.5026C10.639 18.4752 10.7088 18.4611 10.7793 18.4609C10.8528 18.4617 10.9253 18.4789 10.9913 18.5113C11.0572 18.5438 11.1151 18.5906 11.1606 18.6484L12.2174 19.8984L13.2681 18.6484C13.3104 18.5903 13.3659 18.5431 13.43 18.5105C13.494 18.4779 13.5649 18.4609 13.6368 18.4609C13.7073 18.461 13.777 18.4751 13.8419 18.5025C13.9069 18.5299 13.9657 18.5699 14.0149 18.6203C14.0671 18.6672 14.1088 18.7246 14.1373 18.7886C14.1658 18.8527 14.1806 18.9221 14.1806 18.9922C14.1794 19.1171 14.1328 19.2373 14.0493 19.3303L12.8806 20.6872L14.0743 22.0753C14.1632 22.1668 14.2145 22.2884 14.2181 22.4159Z" fill="white"/>
<path d="M14.8998 22.7661C14.808 22.6748 14.7623 22.5411 14.7623 22.3661V19.0267C14.7588 18.9516 14.7706 18.8767 14.7969 18.8063C14.8232 18.7359 14.8635 18.6716 14.9155 18.6173C14.9708 18.565 15.0361 18.5244 15.1076 18.4981C15.179 18.4718 15.255 18.4603 15.3311 18.4642C15.4086 18.4601 15.4863 18.4715 15.5593 18.4978C15.6324 18.5241 15.6995 18.5647 15.7567 18.6173C15.8094 18.6712 15.8505 18.7353 15.8774 18.8058C15.9043 18.8762 15.9164 18.9514 15.913 19.0267V21.9723H17.3505C17.713 21.9723 17.8944 22.1286 17.8948 22.4411C17.8948 22.5998 17.8498 22.7161 17.7598 22.7911C17.6698 22.8661 17.5342 22.9042 17.3505 22.9042H15.2936C15.222 22.9088 15.1503 22.899 15.0826 22.8752C15.015 22.8515 14.9528 22.8144 14.8998 22.7661Z" fill="white"/>
<path d="M19.0171 22.8503C18.7657 22.7931 18.527 22.6903 18.3127 22.5472C18.25 22.5027 18.1977 22.4452 18.1596 22.3784C18.1257 22.3084 18.1096 22.2311 18.1127 22.1534C18.1106 22.0352 18.1504 21.9201 18.2252 21.8284C18.2553 21.7867 18.2946 21.7526 18.3402 21.7287C18.3858 21.7048 18.4363 21.6919 18.4877 21.6909C18.5408 21.6906 18.5936 21.6991 18.6439 21.7159C18.7098 21.74 18.7727 21.7714 18.8314 21.8097C18.9915 21.9009 19.163 21.9703 19.3414 22.0159C19.5288 22.0598 19.7209 22.0808 19.9133 22.0784C20.1596 22.0784 20.3458 22.0422 20.4758 21.9691C20.5348 21.9388 20.584 21.8924 20.6177 21.8353C20.6514 21.7783 20.6683 21.7128 20.6664 21.6466C20.6664 21.5511 20.6071 21.4688 20.4883 21.3997C20.3696 21.3305 20.1433 21.2628 19.8096 21.1966C19.4743 21.1345 19.1485 21.0295 18.8402 20.8841C18.6068 20.7628 18.4433 20.6201 18.3496 20.4559C18.2427 20.2477 18.1952 20.0142 18.2122 19.7808C18.2293 19.5474 18.3104 19.3232 18.4464 19.1328C18.6151 18.909 18.84 18.7339 19.0983 18.6253C19.394 18.4972 19.7136 18.4333 20.0358 18.4378C20.3099 18.4339 20.5833 18.4676 20.8483 18.5378C21.0817 18.6028 21.3018 18.7086 21.4983 18.8503C21.5643 18.8943 21.6191 18.9532 21.6583 19.0222C21.6915 19.0915 21.7076 19.1678 21.7052 19.2447C21.7074 19.3624 21.6687 19.4772 21.5958 19.5697C21.5664 19.6115 21.5275 19.6457 21.4823 19.6696C21.4371 19.6935 21.3869 19.7064 21.3358 19.7072C21.285 19.7075 21.2344 19.7002 21.1858 19.6853C21.1179 19.6601 21.053 19.6276 20.9921 19.5884C20.9714 19.5759 20.9114 19.5434 20.8139 19.4915C20.7052 19.4353 20.5897 19.3933 20.4702 19.3665C20.3296 19.3343 20.1857 19.3185 20.0414 19.3197C19.8625 19.3112 19.6849 19.3535 19.5289 19.4416C19.4706 19.4728 19.4218 19.5191 19.3877 19.5758C19.3536 19.6325 19.3355 19.6973 19.3352 19.7634C19.332 19.8345 19.3567 19.904 19.4039 19.9572C19.4777 20.0241 19.5651 20.0742 19.6602 20.1041C19.8415 20.1673 20.0275 20.2164 20.2164 20.2509C20.544 20.3135 20.8616 20.4199 21.1608 20.5672C21.3596 20.6626 21.5284 20.8107 21.6489 20.9953C21.7479 21.1705 21.7976 21.3692 21.7927 21.5703C21.797 21.832 21.7155 22.0879 21.5608 22.2991C21.3949 22.5187 21.1708 22.6876 20.9139 22.7866C20.6063 22.9071 20.278 22.9657 19.9477 22.9591C19.6341 22.962 19.3215 22.9255 19.0171 22.8503Z" fill="white"/>
</g>
<defs>
<clipPath id="clip0_6784_2118">
<rect width="32" height="32" fill="white"/>
</clipPath>
</defs>
</svg>
