<svg width="32" height="32" viewBox="0 0 32 32" fill="none" xmlns="http://www.w3.org/2000/svg">
<path d="M0 16C0 9.24739 0 5.87108 1.75524 3.52636C2.25814 2.85455 2.85455 2.25814 3.52636 1.75524C5.87108 0 9.24739 0 16 0C22.7526 0 26.1289 0 28.4736 1.75524C29.1454 2.25814 29.7419 2.85455 30.2448 3.52636C32 5.87108 32 9.24739 32 16C32 22.7526 32 26.1289 30.2448 28.4736C29.7419 29.1454 29.1454 29.7419 28.4736 30.2448C26.1289 32 22.7526 32 16 32C9.24739 32 5.87108 32 3.52636 30.2448C2.85455 29.7419 2.25814 29.1454 1.75524 28.4736C0 26.1289 0 22.7526 0 16Z" fill="#0037FA"/>
<rect x="8" y="8" width="9.77777" height="5.33333" rx="2" fill="white"/>
<rect x="18.6666" y="8" width="5.33333" height="5.33333" rx="2" fill="white"/>
<rect x="18.6666" y="14.2222" width="5.33333" height="9.77777" rx="2" fill="white"/>
<rect x="7.99994" y="14.2222" width="9.77777" height="9.77777" rx="2" fill="white"/>
</svg>
