<svg width="20" height="20" viewBox="0 0 20 20" fill="none" xmlns="http://www.w3.org/2000/svg">
<path fill-rule="evenodd" clip-rule="evenodd" d="M8 2C8 0.895431 7.10457 0 6 0C4.89543 0 4 0.895431 4 2V4H2C0.89543 4 0 4.89543 0 6C0 7.10457 0.89543 8 2 8H4V12H2C0.89543 12 0 12.8954 0 14C0 15.1046 0.89543 16 2 16H4V18C4 19.1046 4.89543 20 6 20C7.10457 20 8 19.1046 8 18V16L12 16V18C12 19.1046 12.8954 20 14 20C15.1046 20 16 19.1046 16 18V16H18C19.1046 16 20 15.1046 20 14C20 12.8954 19.1046 12 18 12H16V8H18C19.1046 8 20 7.10457 20 6C20 4.89543 19.1046 4 18 4H16V2C16 0.895431 15.1046 0 14 0C12.8954 0 12 0.895431 12 2V4L8 4V2ZM12 12V8H8V12H12Z" fill="#C7C7C7"/>
</svg>
