<svg width="12" height="12" viewBox="0 0 12 12" fill="none" xmlns="http://www.w3.org/2000/svg">
<line x1="1" y1="11" x2="11" y2="11" stroke="#0037FA" stroke-width="2" stroke-linecap="round"/>
<mask id="path-2-inside-1_4837:21786" fill="white">
<path fill-rule="evenodd" clip-rule="evenodd" d="M8.5 8H4C1.79086 8 0 6.20914 0 4C0 1.79086 1.79086 0 4 0C5.18883 0 6.25653 0.518628 6.98919 1.34197C7.44656 1.12277 7.95894 1 8.5 1C10.433 1 12 2.567 12 4.5C12 6.26324 10.6961 7.72194 9 7.96456V8H8.5Z"/>
</mask>
<path d="M6.98919 1.34197L5.49508 2.67151C6.08773 3.33751 7.04963 3.53084 7.85358 3.14553L6.98919 1.34197ZM9 7.96456L8.7168 5.98471C7.73167 6.12562 7 6.96939 7 7.96456H9ZM9 8V10C10.1046 10 11 9.10457 11 8H9ZM8.5 6H4V10H8.5V6ZM4 6C2.89543 6 2 5.10457 2 4H-2C-2 7.31371 0.686291 10 4 10V6ZM2 4C2 2.89543 2.89543 2 4 2V-2C0.686292 -2 -2 0.686292 -2 4H2ZM4 2C4.59419 2 5.12587 2.25659 5.49508 2.67151L8.48329 0.0124429C7.38719 -1.21933 5.78347 -2 4 -2V2ZM7.85358 3.14553C8.04691 3.05288 8.26447 3 8.5 3V-1C7.65341 -1 6.8462 -0.807334 6.1248 -0.461585L7.85358 3.14553ZM8.5 3C9.32843 3 10 3.67157 10 4.5H14C14 1.46243 11.5376 -1 8.5 -1V3ZM10 4.5C10 5.25395 9.44185 5.881 8.7168 5.98471L9.2832 9.9444C11.9504 9.56289 14 7.27252 14 4.5H10ZM7 7.96456V8H11V7.96456H7ZM9 6H8.5V10H9V6Z" fill="#0037FA" mask="url(#path-2-inside-1_4837:21786)"/>
</svg>
