<svg width="16" height="10" viewBox="0 0 16 10" fill="none" xmlns="http://www.w3.org/2000/svg">
  <path
    fill-rule="evenodd"
    clip-rule="evenodd"
    d="M14.6667 8.33333C15.125 8.33333 15.5 8.70833 15.5 9.16667C15.5 9.625 15.125 10 14.6667 10L1.33333 10C0.875 10 0.5 9.625 0.5 9.16667C0.5 8.70833 0.875 8.33333 1.33333 8.33333L14.6667 8.33333ZM14.6667 4.16667L1.33333 4.16666C0.875001 4.16666 0.5 4.54166 0.5 5C0.5 5.45833 0.875 5.83333 1.33333 5.83333L14.6667 5.83333C15.125 5.83333 15.5 5.45833 15.5 5C15.5 4.54167 15.125 4.16667 14.6667 4.16667ZM14.6667 -7.28523e-08L1.33333 -1.23849e-06C0.875001 -1.27856e-06 0.500001 0.374999 0.500001 0.833332C0.500001 1.29166 0.875001 1.66666 1.33333 1.66666L14.6667 1.66667C15.125 1.66667 15.5 1.29167 15.5 0.833333C15.5 0.375 15.125 -3.27835e-08 14.6667 -7.28523e-08Z"
    fill="white"
  />
</svg>
