<svg width="20" height="20" viewBox="0 0 20 20" fill="none" xmlns="http://www.w3.org/2000/svg">
  <path
    d="M4.74999 15.2417C4.90569 15.3977 5.11706 15.4854 5.33749 15.4854C5.55793 15.4854 5.7693 15.3977 5.92499 15.2417L9.99999 11.175L14.075 15.25C14.2307 15.4061 14.4421 15.4938 14.6625 15.4938C14.8829 15.4938 15.0943 15.4061 15.25 15.25C15.575 14.925 15.575 14.4 15.25 14.075L11.175 10L15.25 5.92504C15.575 5.60004 15.575 5.07504 15.25 4.75004C14.925 4.42504 14.4 4.42504 14.075 4.75004L9.99999 8.82504L5.92499 4.75004C5.59999 4.42503 5.07499 4.42503 4.74999 4.75004C4.42499 5.07504 4.42499 5.60003 4.74999 5.92503L8.82499 10L4.74999 14.075C4.43333 14.3917 4.43333 14.925 4.74999 15.2417Z"
    fill="white"
  />
</svg>
