<svg width="18" height="18" viewBox="0 0 18 18" fill="none" xmlns="http://www.w3.org/2000/svg">
  <path d="M4.83334 2.33332C4.83334 1.41285 5.57953 0.666656 6.50001 0.666656H11.5C12.4205 0.666656 13.1667 1.41285 13.1667 2.33332V3.99999H14.8247C14.8299 3.99994 14.835 3.99994 14.8402 3.99999H16.5C16.9602 3.99999 17.3333 4.37309 17.3333 4.83332C17.3333 5.29356 16.9602 5.66666 16.5 5.66666H15.6093L14.8865 15.7854C14.8242 16.6576 14.0985 17.3333 13.2241 17.3333H4.77594C3.90154 17.3333 3.1758 16.6576 3.11351 15.7854L2.39074 5.66666H1.50001C1.03977 5.66666 0.666672 5.29356 0.666672 4.83332C0.666672 4.37309 1.03977 3.99999 1.50001 3.99999H3.15979C3.16496 3.99994 3.17012 3.99994 3.17527 3.99999H4.83334V2.33332ZM6.50001 3.99999H11.5V2.33332H6.50001V3.99999ZM4.06165 5.66666L4.77594 15.6667H13.2241L13.9384 5.66666H4.06165ZM7.33334 7.33332C7.79358 7.33332 8.16667 7.70642 8.16667 8.16666V13.1667C8.16667 13.6269 7.79358 14 7.33334 14C6.8731 14 6.50001 13.6269 6.50001 13.1667V8.16666C6.50001 7.70642 6.8731 7.33332 7.33334 7.33332ZM10.6667 7.33332C11.1269 7.33332 11.5 7.70642 11.5 8.16666V13.1667C11.5 13.6269 11.1269 14 10.6667 14C10.2064 14 9.83334 13.6269 9.83334 13.1667V8.16666C9.83334 7.70642 10.2064 7.33332 10.6667 7.33332Z" fill="#0037FA" />
</svg>
