<svg width="20" height="20" viewBox="0 0 20 20" fill="none" xmlns="http://www.w3.org/2000/svg">
  <path d="M13.2428 7.74277L10.0011 10.9844L6.75943 7.74277C6.43443 7.41777 5.90943 7.41777 5.58443 7.74277C5.25943 8.06777 5.25943 8.59277 5.58443 8.91777L9.40943 12.7428C9.73443 13.0678 10.2594 13.0678 10.5844 12.7428L14.4178 8.91777C14.7428 8.59277 14.7428 8.06777 14.4178 7.74277C14.0928 7.42611 13.5594 7.42611 13.2428 7.74277ZM15.0011 15.0011C15.0011 15.4594 14.6261 15.8344 14.1678 15.8344L5.83443 15.8344C5.3761 15.8344 5.0011 15.4594 5.0011 15.0011C5.0011 14.5428 5.3761 14.1678 5.83443 14.1678L14.1678 14.1678C14.6261 14.1678 15.0011 14.5428 15.0011 15.0011Z" fill="#2C5DE5" />
  <rect x="10.8344" y="4.16553" width="7.5" height="1.66667" rx="0.833333" transform="rotate(90 10.8344 4.16553)" fill="#2C5DE5" />
</svg>
