<svg width="24" height="24" viewBox="0 0 24 24" fill="none" xmlns="http://www.w3.org/2000/svg">
  <path fill-rule="evenodd" clip-rule="evenodd" d="M11 15C11 15.5523 11.4477 16 12 16C12.5523 16 13 15.5523 13 15L13 6.41421L15.2929 8.70711C15.6834 9.09763 16.3166 9.09763 16.7071 8.70711C17.0976 8.31658 17.0976 7.68342 16.7071 7.29289L12.7071 3.29289C12.3166 2.90237 11.6834 2.90237 11.2929 3.29289L7.29289 7.29289C6.90237 7.68342 6.90237 8.31658 7.29289 8.70711C7.68342 9.09763 8.31658 9.09763 8.70711 8.70711L11 6.41421L11 15ZM6 17C6 16.4477 5.55228 16 5 16C4.44772 16 4 16.4477 4 17V18C4 19.6569 5.34315 21 7 21H17C18.6569 21 20 19.6569 20 18V17C20 16.4477 19.5523 16 19 16C18.4477 16 18 16.4477 18 17V18C18 18.5523 17.5523 19 17 19H7C6.44772 19 6 18.5523 6 18V17Z" fill="#A1A1A1" />
</svg>
