<svg width="20" height="20" viewBox="0 0 20 20" fill="none" xmlns="http://www.w3.org/2000/svg">
  <path fill-rule="evenodd" clip-rule="evenodd" d="M9.16732 12.5C9.16732 12.9602 9.54041 13.3333 10.0007 13.3333C10.4609 13.3333 10.834 12.9602 10.834 12.5L10.834 5.34518L12.7447 7.25592C13.0702 7.58136 13.5978 7.58136 13.9232 7.25592C14.2487 6.93049 14.2487 6.40285 13.9232 6.07741L10.5899 2.74408C10.2645 2.41864 9.73683 2.41864 9.4114 2.74408L6.07806 6.07741C5.75262 6.40285 5.75262 6.93049 6.07806 7.25592C6.4035 7.58136 6.93114 7.58136 7.25657 7.25592L9.16732 5.34518L9.16732 12.5ZM5.00065 14.1667C5.00065 13.7064 4.62755 13.3333 4.16732 13.3333C3.70708 13.3333 3.33398 13.7064 3.33398 14.1667V15C3.33398 16.3807 4.45327 17.5 5.83398 17.5H14.1673C15.548 17.5 16.6673 16.3807 16.6673 15V14.1667C16.6673 13.7064 16.2942 13.3333 15.834 13.3333C15.3737 13.3333 15.0007 13.7064 15.0007 14.1667V15C15.0007 15.4602 14.6276 15.8333 14.1673 15.8333H5.83398C5.37375 15.8333 5.00065 15.4602 5.00065 15V14.1667Z" fill="#0037FA" />
</svg>
