<svg width="16" height="12" viewBox="0 0 16 12" fill="none" xmlns="http://www.w3.org/2000/svg">
  <path
    fill-rule="evenodd"
    clip-rule="evenodd"
    d="M2.16667 1.00008C2.16667 0.539844 2.53976 0.166748 3 0.166748C3.46024 0.166748 3.83333 0.539844 3.83333 1.00008V1.83342V2.66675C3.83333 3.12699 3.46024 3.50008 3 3.50008C2.53976 3.50008 2.16667 3.12699 2.16667 2.66675L1.33333 2.66675C0.875 2.66675 0.5 2.29175 0.5 1.83342C0.5 1.37508 0.875 1.00008 1.33333 1.00008H2.16667ZM1.33333 6.83342H6.33333C6.79167 6.83342 7.16667 6.45842 7.16667 6.00008C7.16667 5.54175 6.79167 5.16675 6.33333 5.16675H1.33333C0.875 5.16675 0.5 5.54175 0.5 6.00008C0.5 6.45842 0.875 6.83342 1.33333 6.83342ZM13.8333 11.0001H14.6667C15.125 11.0001 15.5 10.6251 15.5 10.1667C15.5 9.70842 15.125 9.33342 14.6667 9.33342H13.8333C13.8333 8.87318 13.4602 8.50008 13 8.50008C12.5398 8.50008 12.1667 8.87318 12.1667 9.33342V10.1667V11.0001C12.1667 11.4603 12.5398 11.8334 13 11.8334C13.4602 11.8334 13.8333 11.4603 13.8333 11.0001ZM8.83333 6.00008V5.16675C8.83333 4.70651 9.20643 4.33341 9.66667 4.33341C10.1269 4.33341 10.5 4.70651 10.5 5.16675L14.6667 5.16675C15.125 5.16675 15.5 5.54175 15.5 6.00008C15.5 6.45842 15.125 6.83342 14.6667 6.83342H10.5C10.5 7.29365 10.1269 7.66675 9.66667 7.66675C9.20643 7.66675 8.83333 7.29365 8.83333 6.83342V6.00008ZM5.5 1.83342C5.5 1.37318 5.8731 1.00008 6.33333 1.00008H14.6667C15.1269 1.00008 15.5 1.37318 15.5 1.83342C15.5 2.29365 15.1269 2.66675 14.6667 2.66675H6.33333C5.8731 2.66675 5.5 2.29365 5.5 1.83342ZM1.33333 9.33342C0.873096 9.33342 0.5 9.70651 0.5 10.1667C0.5 10.627 0.873096 11.0001 1.33333 11.0001H9.66667C10.1269 11.0001 10.5 10.627 10.5 10.1667C10.5 9.70651 10.1269 9.33342 9.66667 9.33342H1.33333Z"
    fill="#2C5DE5"
  />
</svg>
