<svg width="20" height="18" viewBox="0 0 20 18" fill="none" xmlns="http://www.w3.org/2000/svg">
<path d="M1.76665 1H18.2334C18.3819 1 18.5272 1.04323 18.6517 1.12442C18.7761 1.20562 18.8744 1.32129 18.9345 1.45738C18.9945 1.59347 19.0139 1.74412 18.9901 1.89102C18.9664 2.03791 18.9005 2.17473 18.8006 2.28484L12.1994 9.22976C12.0711 9.37116 12 9.55538 12 9.74647V15L8 17V9.74647C8 9.55538 7.92891 9.37116 7.80063 9.22976L1.19937 2.28484C1.09947 2.17473 1.03363 2.03791 1.00987 1.89102C0.986114 1.74412 1.00545 1.59347 1.06554 1.45738C1.12562 1.32129 1.22387 1.20562 1.34833 1.12442C1.4728 1.04323 1.61812 1 1.76665 1Z" stroke="#A1A1A1" stroke-width="2" stroke-linecap="round" stroke-linejoin="round"/>
</svg>
