<svg width="24" height="24" viewBox="0 0 24 24" fill="none" xmlns="http://www.w3.org/2000/svg">
<path fill-rule="evenodd" clip-rule="evenodd" d="M7 16.0001H17C19.7614 16.0001 22 18.2386 22 21.0001C22 21.5523 21.5523 22.0001 21 22.0001C20.4872 22.0001 20.0645 21.614 20.0067 21.1167L19.9949 20.8238C19.907 19.3073 18.6928 18.093 17.1763 18.0052L17 18.0001H7C5.34315 18.0001 4 19.3432 4 21.0001C4 21.5523 3.55228 22.0001 3 22.0001C2.44772 22.0001 2 21.5523 2 21.0001C2 18.3113 4.12231 16.1182 6.78311 16.0047L7 16.0001Z" fill="#2C5DE5"/>
<path fill-rule="evenodd" clip-rule="evenodd" d="M12 2.00006C12.4062 2.00006 12.8078 2.04057 13.2004 2.12036C13.7416 2.23035 14.0912 2.75827 13.9812 3.29949C13.8712 3.84071 13.3432 4.19028 12.802 4.08028C12.5404 4.02711 12.2722 4.00006 12 4.00006C9.79086 4.00006 8 5.79092 8 8.00006C8 10.2092 9.79086 12.0001 12 12.0001C13.2748 12.0001 14.4482 11.4009 15.2001 10.4004C15.5319 9.95895 16.1588 9.87005 16.6003 10.2019C17.0418 10.5337 17.1307 11.1606 16.7989 11.6021C15.6731 13.0999 13.9104 14.0001 12 14.0001C8.68629 14.0001 6 11.3138 6 8.00006C6 4.68635 8.68629 2.00006 12 2.00006Z" fill="#2C5DE5"/>
<path fill-rule="evenodd" clip-rule="evenodd" d="M17.7071 2.29295L19 3.58506L20.2929 2.29295C20.6534 1.93247 21.2206 1.90474 21.6129 2.20977L21.7071 2.29295C22.0676 2.65344 22.0953 3.22067 21.7903 3.61296L21.7071 3.70717L20.415 5.00006L21.7071 6.29295C22.0976 6.68348 22.0976 7.31664 21.7071 7.70717C21.3166 8.09769 20.6834 8.09769 20.2929 7.70717L19 6.41506L17.7071 7.70717C17.3466 8.06765 16.7794 8.09538 16.3871 7.79036L16.2929 7.70717C15.9324 7.34668 15.9047 6.77945 16.2097 6.38716L16.2929 6.29295L17.585 5.00006L16.2929 3.70717C15.9024 3.31664 15.9024 2.68348 16.2929 2.29295C16.6834 1.90243 17.3166 1.90243 17.7071 2.29295Z" fill="#2C5DE5"/>
</svg>
