<svg width="10" height="10" viewBox="0 0 10 10" fill="none" xmlns="http://www.w3.org/2000/svg">
  <path fill-rule="evenodd" clip-rule="evenodd" d="M9.67719 1.88192C10.1077 1.4514 10.1077 0.753401 9.67719 0.322886C9.24667 -0.107629 8.54867 -0.107629 8.11815 0.322886L5.00001 3.44102L1.88192 0.322928C1.4514 -0.107587 0.753401 -0.107587 0.322886 0.322928C-0.107629 0.753443 -0.107629 1.45145 0.322886 1.88196L3.44098 5.00006L0.322989 8.11805C-0.107525 8.54856 -0.107525 9.24657 0.322989 9.67708C0.753504 10.1076 1.45151 10.1076 1.88202 9.67708L5.00001 6.55909L8.11805 9.67712C8.54856 10.1076 9.24657 10.1076 9.67708 9.67712C10.1076 9.24661 10.1076 8.54861 9.67708 8.11809L6.55905 5.00006L9.67719 1.88192Z" fill="white" />
</svg>
