<svg width="24" height="24" viewBox="0 0 24 24" fill="none" xmlns="http://www.w3.org/2000/svg">
  <path fill-rule="evenodd" clip-rule="evenodd" d="M7 2C6.44772 2 6 2.44772 6 3V6C6 6.55228 6.44772 7 7 7H8.31954L7.65287 11H6C5.44772 11 5 11.4477 5 12V16C5 16.5523 5.44772 17 6 17H11V21C11 21.5523 11.4477 22 12 22C12.5523 22 13 21.5523 13 21V17H18C18.5523 17 19 16.5523 19 16V12C19 11.4477 18.5523 11 18 11H16.2208L14.8874 7H16C16.5523 7 17 6.55228 17 6V3C17 2.44772 16.5523 2 16 2H7ZM8 5V4H15V5H13.5C13.1786 5 12.8767 5.15452 12.6888 5.41529C12.5008 5.67606 12.4497 6.01128 12.5513 6.31623L14.5513 12.3162C14.6874 12.7246 15.0696 13 15.5 13H17V15H7V13H8.5C8.98884 13 9.40603 12.6466 9.48639 12.1644L10.4864 6.1644C10.5347 5.87445 10.453 5.57792 10.263 5.35363C10.073 5.12933 9.79395 5 9.5 5H8Z" fill="#A1A1A1" />
  <path fill-rule="evenodd" clip-rule="evenodd" d="M18.6783 6.2652C19.0841 6.63981 19.1094 7.27246 18.7348 7.67829L6.73481 20.6783C6.3602 21.0841 5.72755 21.1094 5.32172 20.7348C4.9159 20.3602 4.8906 19.7275 5.2652 19.3217L17.2652 6.32172C17.6398 5.9159 18.2725 5.8906 18.6783 6.2652Z" fill="#A1A1A1" />
</svg>
