<svg width="20" height="19" viewBox="0 0 20 19" fill="none" xmlns="http://www.w3.org/2000/svg">
<path d="M9.05544 1.71739C9.36673 0.821828 10.6333 0.821828 10.9446 1.71739L12.3578 5.78304C12.4951 6.17811 12.8638 6.44598 13.282 6.4545L17.5853 6.5422C18.5333 6.56152 18.9247 7.76606 18.1691 8.33887L14.7392 10.9393C14.4059 11.192 14.265 11.6254 14.3862 12.0257L15.6326 16.1456C15.9071 17.0531 14.8825 17.7975 14.1042 17.256L10.5712 14.7975C10.2279 14.5586 9.77214 14.5586 9.42882 14.7975L5.89577 17.256C5.11753 17.7975 4.09288 17.0531 4.36743 16.1456L5.61385 12.0257C5.73496 11.6254 5.59414 11.192 5.26084 10.9393L1.83088 8.33887C1.07535 7.76606 1.46673 6.56152 2.41465 6.5422L6.71803 6.4545C7.1362 6.44598 7.50489 6.17811 7.64222 5.78304L9.05544 1.71739Z" fill="white" stroke="#C7C7C7" stroke-width="2"/>
</svg>
