<svg width="24" height="24" viewBox="0 0 24 24" fill="none" xmlns="http://www.w3.org/2000/svg">
<path d="M2 6C2 5.20435 2.31607 4.44129 2.87868 3.87868C3.44129 3.31607 4.20435 3 5 3H6.5C6.76522 3 7.01957 3.10536 7.20711 3.29289C7.39464 3.48043 7.5 3.73478 7.5 4C7.5 4.26522 7.39464 4.51957 7.20711 4.70711C7.01957 4.89464 6.76522 5 6.5 5H5C4.73478 5 4.48043 5.10536 4.29289 5.29289C4.10536 5.48043 4 5.73478 4 6V7.5C4 7.76522 3.89464 8.01957 3.70711 8.20711C3.51957 8.39464 3.26522 8.5 3 8.5C2.73478 8.5 2.48043 8.39464 2.29289 8.20711C2.10536 8.01957 2 7.76522 2 7.5V6ZM16.5 4C16.5 3.73478 16.6054 3.48043 16.7929 3.29289C16.9804 3.10536 17.2348 3 17.5 3H19C19.7956 3 20.5587 3.31607 21.1213 3.87868C21.6839 4.44129 22 5.20435 22 6V7.5C22 7.76522 21.8946 8.01957 21.7071 8.20711C21.5196 8.39464 21.2652 8.5 21 8.5C20.7348 8.5 20.4804 8.39464 20.2929 8.20711C20.1054 8.01957 20 7.76522 20 7.5V6C20 5.73478 19.8946 5.48043 19.7071 5.29289C19.5196 5.10536 19.2652 5 19 5H17.5C17.2348 5 16.9804 4.89464 16.7929 4.70711C16.6054 4.51957 16.5 4.26522 16.5 4ZM3 15.5C3.26522 15.5 3.51957 15.6054 3.70711 15.7929C3.89464 15.9804 4 16.2348 4 16.5V18C4 18.2652 4.10536 18.5196 4.29289 18.7071C4.48043 18.8946 4.73478 19 5 19H6.5C6.76522 19 7.01957 19.1054 7.20711 19.2929C7.39464 19.4804 7.5 19.7348 7.5 20C7.5 20.2652 7.39464 20.5196 7.20711 20.7071C7.01957 20.8946 6.76522 21 6.5 21H5C4.20435 21 3.44129 20.6839 2.87868 20.1213C2.31607 19.5587 2 18.7956 2 18V16.5C2 16.2348 2.10536 15.9804 2.29289 15.7929C2.48043 15.6054 2.73478 15.5 3 15.5ZM21 15.5C21.2652 15.5 21.5196 15.6054 21.7071 15.7929C21.8946 15.9804 22 16.2348 22 16.5V18C22 18.7956 21.6839 19.5587 21.1213 20.1213C20.5587 20.6839 19.7956 21 19 21H17.5C17.2348 21 16.9804 20.8946 16.7929 20.7071C16.6054 20.5196 16.5 20.2652 16.5 20C16.5 19.7348 16.6054 19.4804 16.7929 19.2929C16.9804 19.1054 17.2348 19 17.5 19H19C19.2652 19 19.5196 18.8946 19.7071 18.7071C19.8946 18.5196 20 18.2652 20 18V16.5C20 16.2348 20.1054 15.9804 20.2929 15.7929C20.4804 15.6054 20.7348 15.5 21 15.5ZM6 6.75C6.26522 6.75 6.51957 6.85536 6.70711 7.04289C6.89464 7.23043 7 7.48478 7 7.75V12V16.25C7 16.5152 6.89464 16.7696 6.70711 16.9571C6.51957 17.1446 6.26522 17.25 6 17.25C5.73478 17.25 5.48043 17.1446 5.29289 16.9571C5.10536 16.7696 5 16.5152 5 16.25V7.75C5 7.48478 5.10536 7.23043 5.29289 7.04289C5.48043 6.85536 5.73478 6.75 6 6.75ZM11 7.75C11 7.48478 10.8946 7.23043 10.7071 7.04289C10.5196 6.85536 10.2652 6.75 10 6.75C9.73478 6.75 9.48043 6.85536 9.29289 7.04289C9.10536 7.23043 9 7.48478 9 7.75V16.25C9 16.5152 9.10536 16.7696 9.29289 16.9571C9.48043 17.1446 9.73478 17.25 10 17.25C10.2652 17.25 10.5196 17.1446 10.7071 16.9571C10.8946 16.7696 11 16.5152 11 16.25V7.75ZM14 6.75C14.2652 6.75 14.5196 6.85536 14.7071 7.04289C14.8946 7.23043 15 7.48478 15 7.75V16.25C15 16.5152 14.8946 16.7696 14.7071 16.9571C14.5196 17.1446 14.2652 17.25 14 17.25C13.7348 17.25 13.4804 17.1446 13.2929 16.9571C13.1054 16.7696 13 16.5152 13 16.25V7.75C13 7.48478 13.1054 7.23043 13.2929 7.04289C13.4804 6.85536 13.7348 6.75 14 6.75ZM19 7.75C19 7.48478 18.8946 7.23043 18.7071 7.04289C18.5196 6.85536 18.2652 6.75 18 6.75C17.7348 6.75 17.4804 6.85536 17.2929 7.04289C17.1054 7.23043 17 7.48478 17 7.75V16.25C17 16.5152 17.1054 16.7696 17.2929 16.9571C17.4804 17.1446 17.7348 17.25 18 17.25C18.2652 17.25 18.5196 17.1446 18.7071 16.9571C18.8946 16.7696 19 16.5152 19 16.25V7.75Z" fill="black"/>
</svg>
