<svg width="24" height="24" viewBox="0 0 24 24" fill="none" xmlns="http://www.w3.org/2000/svg">
<path fill-rule="evenodd" clip-rule="evenodd" d="M12 1C11.6995 1 11.404 1.0774 11.142 1.22474L7.02435 3.54095C7.01397 3.54654 7.00369 3.55233 6.9935 3.5583L2.89204 5.86537C2.62447 6.01588 2.40126 6.23409 2.24474 6.49805L2.24145 6.50362L2.23938 6.50714C2.08262 6.77518 2 7.08011 2 7.39062V16.6384C2 16.9489 2.08262 17.2538 2.23938 17.5218C2.39615 17.7899 2.6214 18.0114 2.89204 18.1636L11.142 22.8042C11.404 22.9516 11.6995 23.029 12 23.029C12.3005 23.029 12.596 22.9516 12.858 22.8042L21.108 18.1636C21.3786 18.0114 21.6039 17.7899 21.7606 17.5218C21.9174 17.2538 22 16.9489 22 16.6384V7.39062C22 7.08011 21.9174 6.77518 21.7606 6.50714C21.6039 6.23911 21.3786 6.0176 21.108 5.86537L12.858 1.22474C12.596 1.0774 12.3005 1 12 1ZM4 16.4921V8.6536L11.0838 12.5993L11.0149 20.438L4 16.4921ZM13.0151 20.4211L20 16.4921V8.67023L17.5958 10.0361V14.3124C17.5958 14.8647 17.1481 15.3124 16.5958 15.3124C16.0435 15.3124 15.5958 14.8647 15.5958 14.3124V11.1723L13.0839 12.5994L13.0151 20.4211ZM12.0841 10.8671L14.5635 9.45852L7.50481 5.56538L5.04739 6.94768L12.0841 10.8671ZM18.968 6.95632L16.6035 8.2996L9.55504 4.41213L12 3.03684L18.968 6.95632Z" fill="#1A1A1A"/>
</svg>
