<svg width="24" height="24" viewBox="0 0 24 24" fill="none" xmlns="http://www.w3.org/2000/svg">
<path d="M2 5C2 3.89543 2.89543 3 4 3H20C21.1046 3 22 3.89543 22 5V16C22 17.1046 21.1046 18 20 18H15.4142L12.7071 20.7071C12.3166 21.0976 11.6834 21.0976 11.2929 20.7071L8.58579 18H4C2.89543 18 2 17.1046 2 16V5ZM20 5H4V16H9C9.26522 16 9.51957 16.1054 9.70711 16.2929L12 18.5858L14.2929 16.2929C14.4804 16.1054 14.7348 16 15 16H20V5ZM6 8.5C6 7.94772 6.44772 7.5 7 7.5H17C17.5523 7.5 18 7.94772 18 8.5C18 9.05228 17.5523 9.5 17 9.5H7C6.44772 9.5 6 9.05228 6 8.5ZM6 12.5C6 11.9477 6.44772 11.5 7 11.5H13C13.5523 11.5 14 11.9477 14 12.5C14 13.0523 13.5523 13.5 13 13.5H7C6.44772 13.5 6 13.0523 6 12.5Z" fill="#1A1A1A"/>
</svg>
