<svg width="32" height="32" viewBox="0 0 32 32" fill="none" xmlns="http://www.w3.org/2000/svg">
<path d="M16.005 22.8522V30.8529C16.005 31.4841 16.5167 31.9959 17.148 31.9959C17.7792 31.9959 18.291 31.4841 18.291 30.8529V22.8522H16.005Z" fill="#1A1A1A"/>
<path d="M29.5697 10.7577C29.6695 10.2232 29.7199 9.68065 29.7206 9.13692C29.7145 4.08706 25.6159 -0.00171765 20.566 0.00430963C16.7218 0.00893055 13.2911 2.4175 11.9809 6.03153C9.63502 5.0977 6.97625 6.24235 6.04236 8.58824C5.96153 8.79129 5.89536 8.99983 5.8444 9.21233C2.09864 9.77253 -0.483719 13.2632 0.0764837 17.009C0.578891 20.3684 3.46489 22.8538 6.8616 22.8523H16.0052V14.182L12.2414 17.9457C11.7874 18.3843 11.0638 18.3717 10.6253 17.9177C10.1975 17.4747 10.1975 16.7726 10.6253 16.3296L16.34 10.6149C16.4465 10.5082 16.5732 10.4239 16.7127 10.3669C16.9923 10.2513 17.3063 10.2513 17.5859 10.3669C17.7254 10.4239 17.852 10.5083 17.9585 10.6149L23.6732 16.3296C24.1273 16.7681 24.1399 17.4917 23.7014 17.9457C23.2628 18.3998 22.5393 18.4124 22.0853 17.9739C22.0757 17.9646 22.0664 17.9553 22.0571 17.9457L18.2911 14.182V22.8524H25.1488C28.9362 22.8489 32.0036 19.7756 32 15.9882C31.9981 13.9722 31.1093 12.0592 29.5697 10.7577Z" fill="#1A1A1A"/>
</svg>
