<svg width="20" height="20" viewBox="0 0 20 20" fill="none" xmlns="http://www.w3.org/2000/svg">
<path d="M13.2427 7.74277L10.001 10.9844L6.75937 7.74277C6.43437 7.41777 5.90937 7.41777 5.58437 7.74277C5.25937 8.06777 5.25937 8.59277 5.58437 8.91777L9.40937 12.7428C9.73437 13.0678 10.2594 13.0678 10.5844 12.7428L14.4177 8.91777C14.7427 8.59277 14.7427 8.06777 14.4177 7.74277C14.0927 7.42611 13.5594 7.42611 13.2427 7.74277ZM15.001 15.0011C15.001 15.4594 14.626 15.8344 14.1677 15.8344L5.83437 15.8344C5.37604 15.8344 5.00104 15.4594 5.00104 15.0011C5.00104 14.5428 5.37604 14.1678 5.83437 14.1678L14.1677 14.1678C14.626 14.1678 15.001 14.5428 15.001 15.0011Z" fill="#2C5DE5"/>
<rect x="10.8344" y="4.16602" width="7.5" height="1.66667" rx="0.833333" transform="rotate(90 10.8344 4.16602)" fill="#2C5DE5"/>
</svg>
