<svg width="24" height="24" viewBox="0 0 24 24" fill="none" xmlns="http://www.w3.org/2000/svg">
<path fill-rule="evenodd" clip-rule="evenodd" d="M7.99902 3.00001C6.34256 3 5 4.34113 5 5.99839L5 18.0032C5 19.6602 6.34023 21 7.99696 21L16.0007 21C17.656 21 19 19.6614 19 18.0031V17.9867V17.9704V17.9539V17.9375V17.9209V17.9044V17.8878V17.8711V17.8544V17.8376V17.8208V17.804V17.7871V17.7702V17.7532V17.7362V17.7192V17.702V17.6849V17.6677V17.6505V17.6332V17.6159V17.5985V17.5811V17.5637V17.5462V17.5287V17.5111V17.4935V17.4759V17.4582V17.4405V17.4227V17.4049V17.3871V17.3692V17.3513V17.3333V17.3154V17.2973V17.2793V17.2612V17.243V17.2248V17.2066V17.1884V17.1701V17.1518V17.1334V17.115V17.0966V17.0782V17.0597V17.0411V17.0226V17.004V16.9853V16.9667V16.948V16.9293V16.9105V16.8917V16.8729V16.854V16.8352V16.8162V16.7973V16.7783V16.7593V16.7403V16.7212V16.7021V16.683V16.6638V16.6446V16.6254V16.6062V16.5869V16.5676V16.5483V16.5289V16.5095V16.4901V16.4707V16.4512V16.4318V16.4123V16.3927V16.3732V16.3536V16.334V16.3143V16.2947V16.275V16.2553V16.2355V16.2158V16.196V16.1762V16.1564V16.1365V16.1167V16.0968V16.0769V16.0569V16.037V16.017V15.997V15.977V15.9569V15.9369V15.9168V15.8967V15.8766V15.8565V15.8363V15.8161V15.796V15.7758V15.7555V15.7353V15.715V15.6948V15.6745V15.6542V15.6338V15.6135V15.5931V15.5728V15.5524V15.532V15.5116V15.4911V15.4707V15.4502V15.4298V15.4093V15.3888V15.3683V15.3477V15.3272V15.3067V15.2861V15.2655V15.245V15.2244V15.2038V15.1831V15.1625V15.1419V15.1212V15.1006V15.0799V15.0592V15.0386V15.0179V14.9972V14.9765V14.9557V14.935V14.9143V14.8936V14.8728V14.8521V14.8313V14.8105V14.7898V14.769V14.7482V14.7274V14.7066V14.6858V14.665V14.6442V14.6234V14.6026V14.5818V14.561V14.5402V14.5193V14.4985V14.4777V14.4569V14.436V14.4152V14.3944V14.3735V14.3527V14.3318V14.311V14.2902V14.2693V14.2485V14.2277V14.2068V14.186V14.1652V14.1443V14.1235V14.1027V14.0819V14.061V14.0402V14.0194V13.9986V13.9778V13.957V13.9362V13.9154V13.8946V13.8738V13.8531V13.8323V13.8115V13.7908V13.77V13.7493V13.7285V13.7078V13.6871V13.6664V13.6456V13.6249V13.6043V13.5836V13.5629V13.5422V13.5216V13.5009V13.4803V13.4596V13.439V13.4184V13.3978V13.3772V13.3567V13.3361V13.3155V13.295V13.2745V13.254V13.2335V13.213V13.1925V13.172V13.1516V13.1312V13.1107V13.0903V13.0699V13.0496V13.0292V13.0089V12.9885V12.9682V12.9479V12.9276V12.9074V12.8871V12.8669V12.8467V12.8265V12.8063V12.7862V12.766V12.7459V12.7258V12.7057V12.6857V12.6656V12.6456V12.6256V12.6056V12.5857V12.5657V12.5458V12.5259V12.506V12.4862V12.4663V12.4465V12.4267V12.407V12.3872V12.3675V12.3478V12.3282V12.3085V12.2889V12.2693V12.2497V12.2302V12.2107V12.1912V12.1717V12.1523V12.1329V12.1135V12.0941V12.0748V12.0555V12.0362V12.0169V11.9977V11.9785V11.9594V11.9402V11.9211V11.902V11.883V11.864V11.845V11.826V11.8071V11.7882V11.7693V11.7505V11.7317V11.7129V11.6942V11.6755V11.6568V11.6382V11.6196V11.601V11.5825V11.564V11.5455V11.5271V11.5087V11.4903V11.472V11.4537V11.4354V11.4172V11.399V11.3808V11.3627V11.3447V11.3266V11.3086V11.2906V11.2727V11.2548V11.237V11.2192V11.2014V11.1837V11.166V11.1483V11.1307V11.1131V11.0956V11.0781V11.0606V11.0432V11.0259V11.0085V10.9912V10.974V10.9568V10.9396V10.9225V10.9055V10.8884V10.8714V10.8545V10.8376V10.8208V10.8039V10.7872V10.7705V10.7538V10.7372V10.7206V10.704V10.6876V10.6711V10.6547V10.6384V10.6221V10.6058V10.5896V10.5735V10.5573V10.5413V10.5253V10.5093V10.4934V10.4775V10.4617V10.446V10.4303V10.4146V10.399V10.3834V10.3679V10.3525V10.3371V10.3217V10.3064V10.2912V10.276V10.2608V10.2457V10.2307V10.2157V10.2008V10.1859V10.1711V10.1563V10.1416V10.127V10.1124V10.0978V10.0834V10.0689V10.0546V10.0402V10.026V10.0118V9.99764V9.98356V9.96953V9.95556V9.94165V9.9278V9.91401V9.90028V9.88661V9.873V9.85944V9.84595V9.83252V9.81915V9.80584V9.79259V9.77941V9.76628V9.75322V9.74022V9.72728V9.71441V9.7016V9.68885V9.67616V9.66354V9.65099V9.63849V9.62607V9.6137V9.60141V9.58917V9.57701V9.56491V9.55287V9.5409V9.529V9.51717V9.5054V9.4937V9.48206V9.4705V9.459V9.44757V9.43621V9.42492V9.4137V9.40254V9.39146V9.38045V9.3695V9.35863V9.34783V9.3371V9.32644V9.31585V9.30533V9.29488V9.28451V9.27421V9.26398V9.25382V9.24374V9.23373V9.22379V9.21393V9.20414V9.19443V9.18479V9.17522V9.16573V9.15632V9.14698V9.13772V9.12853V9.11942V9.11039V9.10143V9.09255V9.08375V9.07502V9.06637V9.0578V9.04931V9.0409V9.03257V9.02431V9.01614V9.00804V9.00002C19 8.73481 18.8946 8.48045 18.7071 8.29292L13.7071 3.29292C13.5195 3.10538 13.2652 3.00002 13 3.00002L7.99902 3.00001ZM7 5.99839C7 5.44651 7.44632 5.00001 7.99901 5.00001L11.9999 5.00002V8C11.9999 9.10457 12.8954 10 13.9999 10H16.9999C16.9999 10 17 10 17 10V10.0118V10.026V10.0402V10.0546V10.0689V10.0834V10.0978V10.1124V10.127V10.1416V10.1563V10.1711V10.1859V10.2008V10.2157V10.2307V10.2457V10.2608V10.276V10.2912V10.3064V10.3217V10.3371V10.3525V10.3679V10.3834V10.399V10.4146V10.4303V10.446V10.4617V10.4775V10.4934V10.5093V10.5253V10.5413V10.5573V10.5735V10.5896V10.6058V10.6221V10.6384V10.6547V10.6711V10.6876V10.704V10.7206V10.7372V10.7538V10.7705V10.7872V10.8039V10.8208V10.8376V10.8545V10.8714V10.8884V10.9055V10.9225V10.9396V10.9568V10.974V10.9912V11.0085V11.0259V11.0432V11.0606V11.0781V11.0956V11.1131V11.1307V11.1483V11.166V11.1837V11.2014V11.2192V11.237V11.2548V11.2727V11.2906V11.3086V11.3266V11.3447V11.3627V11.3808V11.399V11.4172V11.4354V11.4537V11.472V11.4903V11.5087V11.5271V11.5455V11.564V11.5825V11.601V11.6196V11.6382V11.6568V11.6755V11.6942V11.7129V11.7317V11.7505V11.7693V11.7882V11.8071V11.826V11.845V11.864V11.883V11.902V11.9211V11.9402V11.9594V11.9785V11.9977V12.0169V12.0362V12.0555V12.0748V12.0941V12.1135V12.1329V12.1523V12.1717V12.1912V12.2107V12.2302V12.2497V12.2693V12.2889V12.3085V12.3282V12.3478V12.3675V12.3872V12.407V12.4267V12.4465V12.4663V12.4862V12.506V12.5259V12.5458V12.5657V12.5857V12.6056V12.6256V12.6456V12.6656V12.6857V12.7057V12.7258V12.7459V12.766V12.7862V12.8063V12.8265V12.8467V12.8669V12.8871V12.9074V12.9276V12.9479V12.9682V12.9885V13.0089V13.0292V13.0496V13.0699V13.0903V13.1107V13.1312V13.1516V13.172V13.1925V13.213V13.2335V13.254V13.2745V13.295V13.3155V13.3361V13.3567V13.3772V13.3978V13.4184V13.439V13.4596V13.4803V13.5009V13.5216V13.5422V13.5629V13.5836V13.6043V13.6249V13.6456V13.6664V13.6871V13.7078V13.7285V13.7493V13.77V13.7908V13.8115V13.8323V13.8531V13.8738V13.8946V13.9154V13.9362V13.957V13.9778V13.9986V14.0194V14.0402V14.061V14.0819V14.1027V14.1235V14.1443V14.1652V14.186V14.2068V14.2277V14.2485V14.2693V14.2902V14.311V14.3318V14.3527V14.3735V14.3944V14.4152V14.436V14.4569V14.4777V14.4985V14.5193V14.5402V14.561V14.5818V14.6026V14.6234V14.6442V14.665V14.6858V14.7066V14.7274V14.7482V14.769V14.7898V14.8105V14.8313V14.8521V14.8728V14.8936V14.9143V14.935V14.9557V14.9765V14.9972V15.0179V15.0386V15.0592V15.0799V15.1006V15.1212V15.1419V15.1625V15.1831V15.2038V15.2244V15.245V15.2655V15.2861V15.3067V15.3272V15.3477V15.3683V15.3888V15.4093V15.4298V15.4502V15.4707V15.4911V15.5116V15.532V15.5524V15.5728V15.5931V15.6135V15.6338V15.6542V15.6745V15.6948V15.715V15.7353V15.7555V15.7758V15.796V15.8161V15.8363V15.8565V15.8766V15.8967V15.9168V15.9369V15.9569V15.977V15.997V16.017V16.037V16.0569V16.0769V16.0968V16.1167V16.1365V16.1564V16.1762V16.196V16.2158V16.2355V16.2553V16.275V16.2947V16.3143V16.334V16.3536V16.3732V16.3927V16.4123V16.4318V16.4512V16.4707V16.4901V16.5095V16.5289V16.5483V16.5676V16.5869V16.6062V16.6254V16.6446V16.6638V16.683V16.7021V16.7212V16.7403V16.7593V16.7783V16.7973V16.8162V16.8352V16.854V16.8729V16.8917V16.9105V16.9293V16.948V16.9667V16.9853V17.004V17.0226V17.0411V17.0597V17.0782V17.0966V17.115V17.1334V17.1518V17.1701V17.1884V17.2066V17.2248V17.243V17.2612V17.2793V17.2973V17.3154V17.3333V17.3513V17.3692V17.3871V17.4049V17.4227V17.4405V17.4582V17.4759V17.4935V17.5111V17.5287V17.5462V17.5637V17.5811V17.5985V17.6159V17.6332V17.6505V17.6677V17.6849V17.702V17.7192V17.7362V17.7532V17.7702V17.7871V17.804V17.8208V17.8376V17.8544V17.8711V17.8878V17.9044V17.9209V17.9375V17.9539V17.9704V17.9867V18.0031C17 18.5538 16.5545 19 16.0007 19L7.99696 19C7.44456 19 7 18.5554 7 18.0032L7 5.99839ZM15.5857 8L13.9999 6.41421V8H15.5857Z" fill="#1A1A1A"/>
</svg>
