<svg width="24" height="24" viewBox="0 0 24 24" fill="none" xmlns="http://www.w3.org/2000/svg">
<path fill-rule="evenodd" clip-rule="evenodd" d="M5 4.99838C5 3.34112 6.34256 1.99999 7.99902 2L13 2.00002C13.2652 2.00002 13.5195 2.10537 13.7071 2.29291L18.7071 7.29291C18.8946 7.48045 19 7.7348 19 8.00002V8.00803V8.01613V8.0243V8.03256V8.04089V8.0493V8.0578V8.06637V8.07501V8.08374V8.09254V8.10142V8.11038V8.11941V8.12852V8.13771V8.14697V8.15631V8.16573V8.17522V8.18478V8.19442V8.20413V8.21392V8.22379V8.23372V8.24373V8.25381V8.26397V8.2742V8.2845V8.29488V8.30532V8.31584V8.32643V8.33709V8.34782V8.35862V8.3695V8.38044V8.39145V8.40254V8.41369V8.42491V8.4362V8.44756V8.45899V8.47049V8.48206V8.49369V8.50539V8.51716V8.52899V8.54089V8.55286V8.5649V8.577V8.58917V8.6014V8.6137V8.62606V8.63849V8.65098V8.66353V8.67616V8.68884V8.70159V8.7144V8.72727V8.74021V8.75321V8.76627V8.7794V8.79259V8.80583V8.81914V8.83251V8.84594V8.85944V8.87299V8.8866V8.90027V8.91401V8.9278V8.94165V8.95556V8.96952V8.98355V8.99763C19 8.99894 18.9989 9 18.9976 9H17L13.9999 8.99999C12.8954 8.99999 11.9999 8.10456 11.9999 6.99999V4.00001L7.99901 4C7.44632 4 7 4.4465 7 4.99838L7 8C7 8.55228 6.55229 9 6 9C5.44772 9 5 8.55228 5 8L5 4.99838ZM13.9999 5.4142L15.5857 6.99999H13.9999V5.4142Z" fill="#1A1A1A"/>
<path fill-rule="evenodd" clip-rule="evenodd" d="M6 18C6.55228 18 7 18.4477 7 19V20H17V19C17 18.4477 17.4477 18 18 18C18.5523 18 19 18.4477 19 19V21C19 21.5523 18.5523 22 18 22H6C5.44772 22 5 21.5523 5 21V19C5 18.4477 5.44772 18 6 18Z" fill="black"/>
<path fill-rule="evenodd" clip-rule="evenodd" d="M5 11C5 10.4477 5.44772 10 6 10H8C8.55228 10 9 10.4477 9 11C9 11.5523 8.55228 12 8 12H7V15H8C8.55228 15 9 15.4477 9 16C9 16.5523 8.55228 17 8 17H6C5.44772 17 5 16.5523 5 16V11Z" fill="#1A1A1A"/>
<path fill-rule="evenodd" clip-rule="evenodd" d="M10 11C10 10.4477 10.4477 10 11 10H13C13.5523 10 14 10.4477 14 11C14 11.5523 13.5523 12 13 12H12V12.5H13C13.5523 12.5 14 12.9477 14 13.5V16C14 16.5523 13.5523 17 13 17H11C10.4477 17 10 16.5523 10 16C10 15.4477 10.4477 15 11 15H12V14.5H11C10.4477 14.5 10 14.0523 10 13.5V11Z" fill="#1A1A1A"/>
<path fill-rule="evenodd" clip-rule="evenodd" d="M15.7127 10.0422C16.2417 9.88348 16.7991 10.1837 16.9578 10.7127L17.5 12.5199L18.0422 10.7127C18.2009 10.1837 18.7584 9.88348 19.2874 10.0422C19.8164 10.2009 20.1165 10.7584 19.9578 11.2873L18.4578 16.2873C18.331 16.7103 17.9416 17 17.5 17C17.0584 17 16.6691 16.7103 16.5422 16.2873L15.0422 11.2873C14.8835 10.7584 15.1837 10.2009 15.7127 10.0422Z" fill="#1A1A1A"/>
</svg>
