<svg width="24" height="24" viewBox="0 0 24 24" fill="none" xmlns="http://www.w3.org/2000/svg">
<path fill-rule="evenodd" clip-rule="evenodd" d="M13 4C13 3.44772 12.5523 3 12 3C11.4477 3 11 3.44772 11 4V12.5858L8.70711 10.2929C8.31658 9.90237 7.68342 9.90237 7.29289 10.2929C6.90237 10.6834 6.90237 11.3166 7.29289 11.7071L11.2929 15.7071C11.6834 16.0976 12.3166 16.0976 12.7071 15.7071L16.7071 11.7071C17.0976 11.3166 17.0976 10.6834 16.7071 10.2929C16.3166 9.90237 15.6834 9.90237 15.2929 10.2929L13 12.5858V4ZM6 17C6 16.4477 5.55228 16 5 16C4.44772 16 4 16.4477 4 17V18C4 19.6569 5.34315 21 7 21H17C18.6569 21 20 19.6569 20 18V17C20 16.4477 19.5523 16 19 16C18.4477 16 18 16.4477 18 17V18C18 18.5523 17.5523 19 17 19H7C6.44772 19 6 18.5523 6 18V17Z" fill="#1A1A1A"/>
</svg>
