<svg width="24" height="24" viewBox="0 0 24 24" fill="none" xmlns="http://www.w3.org/2000/svg">
<path fill-rule="evenodd" clip-rule="evenodd" d="M4.3083 5L10.5254 11.5408L10.5412 11.5578C10.8366 11.8834 11 12.3072 11 12.7465V18.382L13 17.382V12.7465C13 12.3072 13.1634 11.8834 13.4588 11.5578L13.4746 11.5408L19.6917 5H4.3083ZM2.80195 3.28689C3.08882 3.09974 3.42397 3 3.76665 3H20.2334C20.576 3 20.9112 3.09974 21.1981 3.28689C21.4849 3.47403 21.711 3.74042 21.8493 4.05349C21.9875 4.36653 22.0319 4.71294 21.9773 5.05069C21.9227 5.38844 21.7713 5.70325 21.5412 5.9568L21.5254 5.97379L15 12.8389V18C15 18.3788 14.786 18.725 14.4472 18.8944L10.4472 20.8944C10.1372 21.0494 9.76909 21.0329 9.47427 20.8507C9.17945 20.6684 9 20.3466 9 20V12.839L2.47456 5.97379L2.45878 5.9568C2.22874 5.70325 2.07733 5.38844 2.0227 5.05069C1.96808 4.71294 2.01252 4.36653 2.15073 4.05349C2.28896 3.74042 2.5151 3.47402 2.80195 3.28689Z" fill="#1A1A1A"/>
</svg>
