<svg width="24" height="24" viewBox="0 0 24 24" fill="none" xmlns="http://www.w3.org/2000/svg">
<path fill-rule="evenodd" clip-rule="evenodd" d="M19.65 3.70042C18.3559 4.67096 17.2018 4.88666 16.0872 4.77135C14.9061 4.64916 13.7358 4.15637 12.3939 3.58128L12.3287 3.55335C11.0616 3.01015 9.63009 2.39648 8.11849 2.2401C6.51695 2.07443 4.86133 2.41983 3.15832 3.69416C3.14545 3.70363 3.13281 3.71339 3.12041 3.72345C2.89866 3.90288 2.77288 4.15949 2.75277 4.4254C2.75053 4.4551 2.7496 4.48491 2.75 4.51475V15.7376C2.74988 15.7467 2.74988 15.7557 2.75 15.7647V20.2504C2.75 20.8027 3.19772 21.2504 3.75 21.2504C4.30228 21.2504 4.75 20.8027 4.75 20.2504V16.2712C5.88408 15.5385 6.91423 15.3762 7.91269 15.4795C9.09388 15.6017 10.2642 16.0945 11.606 16.6696L11.6712 16.6975C12.9383 17.2407 14.3698 17.8544 15.8814 18.0107C17.4856 18.1767 19.144 17.8299 20.85 16.5504C21.1018 16.3616 21.25 16.0652 21.25 15.7504V4.50042C21.25 4.12165 21.036 3.77539 20.6972 3.60599C20.3584 3.4366 19.953 3.47316 19.65 3.70042ZM4.75 14.0048C5.89682 13.5032 7.02036 13.3765 8.11849 13.4901C9.63009 13.6465 11.0616 14.2601 12.3287 14.8033L12.3287 14.8033L12.3939 14.8313C13.7358 15.4064 14.9061 15.8992 16.0872 16.0214C17.0857 16.1246 18.1159 15.9623 19.25 15.2297V6.24599C18.1031 6.74765 16.9796 6.87434 15.8814 6.76074C14.3698 6.60437 12.9383 5.9907 11.6712 5.4475L11.606 5.41957C10.2642 4.84447 9.09388 4.35168 7.91269 4.22949C6.91423 4.1262 5.88408 4.28853 4.75 5.02117V14.0048Z" fill="#1A1A1A"/>
</svg>
