<svg width="24" height="24" viewBox="0 0 24 24" fill="none" xmlns="http://www.w3.org/2000/svg">
<path fill-rule="evenodd" clip-rule="evenodd" d="M4.75 4.75V19.25H19.25V8.66421L15.3358 4.75H10V8.00085H15C15.5523 8.00085 16 8.44856 16 9.00085C16 9.55313 15.5523 10.0008 15 10.0008H9C8.44772 10.0008 8 9.55313 8 9.00085V4.75H4.75ZM3.26256 3.26256C3.59075 2.93438 4.03587 2.75 4.5 2.75H15.4393C15.6692 2.75 15.8967 2.79527 16.109 2.88321C16.3214 2.97116 16.5143 3.10006 16.6768 3.26256L20.7374 7.32322C20.8999 7.48572 21.0288 7.67864 21.1168 7.89096C21.2047 8.10329 21.25 8.33085 21.25 8.56066V19.5C21.25 19.9641 21.0656 20.4092 20.7374 20.7374C20.4092 21.0656 19.9641 21.25 19.5 21.25H4.5C4.03587 21.25 3.59075 21.0656 3.26256 20.7374C2.93437 20.4092 2.75 19.9641 2.75 19.5V4.5C2.75 4.03587 2.93438 3.59075 3.26256 3.26256ZM12.0005 13.0009C11.1031 13.0009 10.3755 13.7284 10.3755 14.6259C10.3755 15.5233 11.1031 16.2509 12.0005 16.2509C12.898 16.2509 13.6255 15.5233 13.6255 14.6259C13.6255 13.7284 12.898 13.0009 12.0005 13.0009ZM8.37555 14.6259C8.37555 12.6238 9.99852 11.0009 12.0005 11.0009C14.0026 11.0009 15.6255 12.6238 15.6255 14.6259C15.6255 16.6279 14.0026 18.2509 12.0005 18.2509C9.99852 18.2509 8.37555 16.6279 8.37555 14.6259Z" fill="#1A1A1A"/>
</svg>
