<svg width="24" height="24" viewBox="0 0 24 24" fill="none" xmlns="http://www.w3.org/2000/svg">
<path d="M2 6C2 5.20435 2.31607 4.44129 2.87868 3.87868C3.44129 3.31607 4.20435 3 5 3H6.5C6.76522 3 7.01957 3.10536 7.20711 3.29289C7.39464 3.48043 7.5 3.73478 7.5 4C7.5 4.26522 7.39464 4.51957 7.20711 4.70711C7.01957 4.89464 6.76522 5 6.5 5H5C4.73478 5 4.48043 5.10536 4.29289 5.29289C4.10536 5.48043 4 5.73478 4 6V7.5C4 7.76522 3.89464 8.01957 3.70711 8.20711C3.51957 8.39464 3.26522 8.5 3 8.5C2.73478 8.5 2.48043 8.39464 2.29289 8.20711C2.10536 8.01957 2 7.76522 2 7.5V6ZM16.5 4C16.5 3.73478 16.6054 3.48043 16.7929 3.29289C16.9804 3.10536 17.2348 3 17.5 3H19C19.7956 3 20.5587 3.31607 21.1213 3.87868C21.6839 4.44129 22 5.20435 22 6V7.5C22 7.76522 21.8946 8.01957 21.7071 8.20711C21.5196 8.39464 21.2652 8.5 21 8.5C20.7348 8.5 20.4804 8.39464 20.2929 8.20711C20.1054 8.01957 20 7.76522 20 7.5V6C20 5.73478 19.8946 5.48043 19.7071 5.29289C19.5196 5.10536 19.2652 5 19 5H17.5C17.2348 5 16.9804 4.89464 16.7929 4.70711C16.6054 4.51957 16.5 4.26522 16.5 4ZM3 15.5C3.26522 15.5 3.51957 15.6054 3.70711 15.7929C3.89464 15.9804 4 16.2348 4 16.5V18C4 18.2652 4.10536 18.5196 4.29289 18.7071C4.48043 18.8946 4.73478 19 5 19H6.5C6.76522 19 7.01957 19.1054 7.20711 19.2929C7.39464 19.4804 7.5 19.7348 7.5 20C7.5 20.2652 7.39464 20.5196 7.20711 20.7071C7.01957 20.8946 6.76522 21 6.5 21H5C4.20435 21 3.44129 20.6839 2.87868 20.1213C2.31607 19.5587 2 18.7956 2 18V16.5C2 16.2348 2.10536 15.9804 2.29289 15.7929C2.48043 15.6054 2.73478 15.5 3 15.5ZM21 15.5C21.2652 15.5 21.5196 15.6054 21.7071 15.7929C21.8946 15.9804 22 16.2348 22 16.5V18C22 18.7956 21.6839 19.5587 21.1213 20.1213C20.5587 20.6839 19.7956 21 19 21H17.5C17.2348 21 16.9804 20.8946 16.7929 20.7071C16.6054 20.5196 16.5 20.2652 16.5 20C16.5 19.7348 16.6054 19.4804 16.7929 19.2929C16.9804 19.1054 17.2348 19 17.5 19H19C19.2652 19 19.5196 18.8946 19.7071 18.7071C19.8946 18.5196 20 18.2652 20 18V16.5C20 16.2348 20.1054 15.9804 20.2929 15.7929C20.4804 15.6054 20.7348 15.5 21 15.5Z" fill="#1A1A1A"/>
<path fill-rule="evenodd" clip-rule="evenodd" d="M9 7H15C16.6569 7 18 8.34315 18 10V14C18 15.6569 16.6569 17 15 17H9C7.34315 17 6 15.6569 6 14V10C6 8.34315 7.34315 7 9 7ZM9 9C8.44772 9 8 9.44772 8 10V14C8 14.5523 8.44772 15 9 15H15C15.5523 15 16 14.5523 16 14V10C16 9.44772 15.5523 9 15 9H9Z" fill="#1A1A1A"/>
</svg>
