<svg width="24" height="24" viewBox="0 0 24 24" fill="none" xmlns="http://www.w3.org/2000/svg">
<path fill-rule="evenodd" clip-rule="evenodd" d="M7.11965 12.0694C6.72785 11.6776 6.09215 11.6791 5.70217 12.0727L3.46338 14.3323C2.1029 15.7055 2.11318 17.9215 3.48634 19.282L4.84115 20.6243C6.21431 21.9848 8.43036 21.9745 9.79084 20.6014L15.0513 15.2919C16.4118 13.9187 16.4015 11.7027 15.0283 10.3422C14.6476 9.96498 14.0336 9.96641 13.6546 10.3454L13.6175 10.3825C13.2359 10.7641 13.2374 11.3832 13.6207 11.763C14.2092 12.346 14.2136 13.2957 13.6305 13.8842L8.37008 19.1937C7.78702 19.7822 6.83729 19.7866 6.24879 19.2036L4.89398 17.8613C4.30548 17.2782 4.30108 16.3285 4.88414 15.74L7.12292 13.4803C7.51036 13.0893 7.5089 12.4586 7.11965 12.0694Z" fill="black"/>
<path fill-rule="evenodd" clip-rule="evenodd" d="M10.3695 10.2034L15.6299 4.89396C16.213 4.30547 17.1627 4.30106 17.7512 4.88412L19.106 6.22642C19.6945 6.80948 19.6989 7.75922 19.1159 8.34772L16.7945 10.6907C16.4071 11.0818 16.4085 11.7124 16.7978 12.1017C17.1896 12.4935 17.8253 12.492 18.2153 12.0984L20.5366 9.75536C21.8971 8.3822 21.8868 6.16614 20.5137 4.80566L19.1589 3.46337C17.7857 2.10289 15.5697 2.11316 14.2092 3.48632L8.94873 8.7958C7.58825 10.169 7.59853 12.385 8.97169 13.7455C9.30832 14.079 9.85121 14.0778 10.1863 13.7427L10.3822 13.5468C10.72 13.209 10.7187 12.661 10.3793 12.3247C9.79083 11.7417 9.78643 10.7919 10.3695 10.2034Z" fill="black"/>
</svg>
