<svg width="24" height="24" viewBox="0 0 24 24" fill="none" xmlns="http://www.w3.org/2000/svg">
<path fill-rule="evenodd" clip-rule="evenodd" d="M5 1H19C20.1 1 21 1.90847 21 3.01881V16.0704C21 16.7669 20.65 17.3827 20.12 17.746L12.56 22.8334C12.22 23.0555 11.79 23.0555 11.45 22.8334L3.88 17.746C3.35 17.3827 3 16.7669 3 16.0704L3.01 3.01881C3.01 1.90847 3.9 1 5 1ZM12.0013 13.1034L15.1589 14.9302C15.5316 15.1467 15.9827 14.8266 15.8846 14.4217L15.0511 10.9658L17.8263 8.6588C18.1597 8.38572 17.9832 7.86782 17.5517 7.83015L13.8841 7.52882L12.4524 4.28956C12.2857 3.90348 11.7169 3.90348 11.5502 4.28956L10.1185 7.53824L6.45091 7.83957C6.01943 7.87723 5.84292 8.39514 6.16653 8.66822L8.94172 10.9753L8.10818 14.4217C8.01012 14.8266 8.47102 15.1467 8.84366 14.9302L12.0013 13.1034Z" fill="black"/>
</svg>
