<svg width="24" height="24" viewBox="0 0 24 24" fill="none" xmlns="http://www.w3.org/2000/svg">
<path fill-rule="evenodd" clip-rule="evenodd" d="M4.99995 20C4.29569 20 3.82468 19.2979 4.05973 18.6586L4.10552 18.5528L5.26094 16.242C5.69833 15.3672 5.94701 14.4115 5.99238 13.4369L5.99995 13.1115V10C5.99995 7.02694 8.16233 4.55893 11.0001 4.08293L10.9999 3C10.9999 2.44772 11.4477 2 11.9999 2C12.5522 2 12.9999 2.44772 12.9999 3L13.0008 4.08309C15.7593 4.54627 17.8793 6.89172 17.995 9.75347L17.9999 10V13.1115C17.9999 14.0895 18.2049 15.0555 18.6002 15.9474L18.739 16.242L19.8944 18.5528C20.2093 19.1827 19.792 19.918 19.1151 19.9936L18.9999 20H13.9999C13.9999 21.1046 13.1045 22 11.9999 22C10.8954 22 9.99995 21.1046 9.99995 20H4.99995ZM11.9999 6C9.85775 6 8.10887 7.68397 8.00484 9.80036L7.99995 10V13.1115C7.99995 14.3922 7.7266 15.6569 7.19975 16.8213L7.04979 17.1364L6.61798 18H17.3819L16.9501 17.1364C16.3773 15.9908 16.0562 14.7374 16.0067 13.4603L15.9999 13.1115V10C15.9999 7.79086 14.2091 6 11.9999 6Z" fill="#1A1A1A"/>
</svg>
