<svg width="20" height="20" viewBox="0 0 20 20" fill="none" xmlns="http://www.w3.org/2000/svg">
<path fill-rule="evenodd" clip-rule="evenodd" d="M10 3.33332C8.15905 3.33332 6.66667 4.82571 6.66667 6.66666C6.66667 8.50761 8.15905 9.99999 10 9.99999C11.8409 9.99999 13.3333 8.50761 13.3333 6.66666C13.3333 4.82571 11.8409 3.33332 10 3.33332ZM5 6.66666C5 3.90523 7.23858 1.66666 10 1.66666C12.7614 1.66666 15 3.90523 15 6.66666C15 9.42808 12.7614 11.6667 10 11.6667C7.23858 11.6667 5 9.42808 5 6.66666Z" fill="white"/>
<path fill-rule="evenodd" clip-rule="evenodd" d="M5.83335 13.3333H14.1667C16.4679 13.3333 18.3334 15.1988 18.3334 17.5C18.3334 17.9602 17.9603 18.3333 17.5 18.3333C17.0727 18.3333 16.7204 18.0116 16.6723 17.5972L16.6624 17.3531C16.5892 16.0894 15.5773 15.0775 14.3136 15.0043L14.1667 15H5.83335C4.45264 15 3.33335 16.1193 3.33335 17.5C3.33335 17.9602 2.96026 18.3333 2.50002 18.3333C2.03978 18.3333 1.66669 17.9602 1.66669 17.5C1.66669 15.2594 3.43528 13.4318 5.65261 13.3372L5.83335 13.3333Z" fill="white"/>
</svg>
