<svg width="24" height="24" viewBox="0 0 24 24" fill="none" xmlns="http://www.w3.org/2000/svg">
<path d="M3 12L2.10557 11.5528C1.96481 11.8343 1.96481 12.1657 2.10557 12.4472L3 12ZM21 12L21.8944 12.4472C22.0352 12.1657 22.0352 11.8343 21.8944 11.5528L21 12ZM3.89443 12.4472C4.33644 11.5632 5.30096 10.1775 6.70893 9.02339C8.10859 7.87613 9.89191 7 12 7V5C9.30809 5 7.09141 6.12387 5.44107 7.47661C3.79904 8.82253 2.66356 10.4368 2.10557 11.5528L3.89443 12.4472ZM12 7C14.1081 7 15.8914 7.87613 17.2911 9.02339C18.699 10.1775 19.6636 11.5632 20.1056 12.4472L21.8944 11.5528C21.3364 10.4368 20.201 8.82253 18.5589 7.47661C16.9086 6.12387 14.6919 5 12 5V7ZM20.1056 11.5528C19.1431 13.4777 16.9965 17 12 17V19C18.2035 19 20.8569 14.5223 21.8944 12.4472L20.1056 11.5528ZM12 17C7.00347 17 4.85689 13.4777 3.89443 11.5528L2.10557 12.4472C3.14311 14.5223 5.79653 19 12 19V17Z" fill="black"/>
<circle cx="12" cy="12" r="3" stroke="#1A1A1A" stroke-width="2"/>
</svg>
