<svg width="24" height="24" viewBox="0 0 24 24" fill="none" xmlns="http://www.w3.org/2000/svg">
<path fill-rule="evenodd" clip-rule="evenodd" d="M6 3C5.44772 3 5 3.44772 5 4V7H4.56C3.18348 7 2 8.08268 2 9.5V17C2 17.5523 2.44772 18 3 18H5V20C5 20.5523 5.44772 21 6 21H18C18.5523 21 19 20.5523 19 20V18H21C21.5523 18 22 17.5523 22 17V9.5C22 8.08268 20.8165 7 19.44 7H19V4C19 3.44772 18.5523 3 18 3H6ZM4.56 9H6H18H19.44C19.7866 9 20 9.26046 20 9.5V16H19V14C19 13.4477 18.5523 13 18 13H6C5.44772 13 5 13.4477 5 14V16H4V9.5C4 9.26046 4.21339 9 4.56 9ZM7 7H17V5H7V7ZM7 15H17V17V19H7V17V15ZM19 11C19 11.5523 18.5523 12 18 12C17.4477 12 17 11.5523 17 11C17 10.4477 17.4477 10 18 10C18.5523 10 19 10.4477 19 11Z" fill="#1A1A1A"/>
</svg>
