<svg width="14" height="14" viewBox="0 0 14 14" fill="none" xmlns="http://www.w3.org/2000/svg">
<path fill-rule="evenodd" clip-rule="evenodd" d="M7 14C10.866 14 14 10.866 14 7C14 3.13401 10.866 0 7 0C3.13401 0 0 3.13401 0 7C0 10.866 3.13401 14 7 14ZM10 5.46764C10 6.52561 9.30495 7.16901 8.70284 7.72638C8.24274 8.15229 7.83691 8.52797 7.83691 9H6.06009C6.06009 8.26096 6.61373 7.54697 7.14163 7.14614C7.66953 6.73278 8.22318 6.14405 8.22318 5.5929C8.22318 5.00418 7.78541 4.6785 7.0515 4.6785C6.33047 4.6785 5.81545 5.05428 5.51931 5.79332L4 4.94155C4.51502 3.70146 5.72532 3 7.11588 3C7.90129 3 8.57082 3.22547 9.13734 3.66388C9.71674 4.1023 10 4.70355 10 5.46764ZM8 11C8 11.5523 7.55228 12 7 12C6.44772 12 6 11.5523 6 11C6 10.4477 6.44772 10 7 10C7.55228 10 8 10.4477 8 11Z" fill="white"/>
</svg>
