<svg width="20" height="20" viewBox="0 0 20 20" fill="none" xmlns="http://www.w3.org/2000/svg">
<path fill-rule="evenodd" clip-rule="evenodd" d="M3.33331 10.0001C3.33331 8.15913 4.8257 6.66675 6.66665 6.66675H13.3333C15.1743 6.66675 16.6666 8.15913 16.6666 10.0001V14.1667C16.6666 16.0077 15.1743 17.5001 13.3333 17.5001H6.66665C4.8257 17.5001 3.33331 16.0077 3.33331 14.1667V10.0001ZM6.66665 8.33341C5.74617 8.33341 4.99998 9.07961 4.99998 10.0001V14.1667C4.99998 15.0872 5.74617 15.8334 6.66665 15.8334H13.3333C14.2538 15.8334 15 15.0872 15 14.1667V10.0001C15 9.07961 14.2538 8.33341 13.3333 8.33341H6.66665Z" fill="white"/>
<path fill-rule="evenodd" clip-rule="evenodd" d="M9.99998 3.33341C8.61927 3.33341 7.49998 4.4527 7.49998 5.83341V7.91675H5.83331V5.83341C5.83331 3.53223 7.69879 1.66675 9.99998 1.66675C12.3012 1.66675 14.1666 3.53223 14.1666 5.83341V7.91675H12.5V5.83341C12.5 4.4527 11.3807 3.33341 9.99998 3.33341Z" fill="white"/>
</svg>
