<svg width="24" height="24" viewBox="0 0 24 24" fill="none" xmlns="http://www.w3.org/2000/svg">
<path fill-rule="evenodd" clip-rule="evenodd" d="M5 6C5 5.44772 5.44772 5 6 5C6.55228 5 7 5.44772 7 6V7V8C7 8.55228 6.55228 9 6 9C5.44772 9 5 8.55228 5 8H4C3.45 8 3 7.55 3 7C3 6.45 3.45 6 4 6H5ZM10 13C10.55 13 11 12.55 11 12C11 11.45 10.55 11 10 11H4C3.45 11 3 11.45 3 12C3 12.55 3.45 13 4 13H10ZM19 18H20C20.55 18 21 17.55 21 17C21 16.45 20.55 16 20 16H19C19 15.4477 18.5523 15 18 15C17.4477 15 17 15.4477 17 16V17V18C17 18.5523 17.4477 19 18 19C18.5523 19 19 18.5523 19 18ZM13 12V11C13 10.4477 13.4477 10 14 10C14.5523 10 15 10.4477 15 11H20C20.55 11 21 11.45 21 12C21 12.55 20.55 13 20 13H15C15 13.5523 14.5523 14 14 14C13.4477 14 13 13.5523 13 13V12ZM9 7C9 6.44772 9.44772 6 10 6H20C20.5523 6 21 6.44772 21 7C21 7.55228 20.5523 8 20 8H10C9.44771 8 9 7.55228 9 7ZM4 16C3.44772 16 3 16.4477 3 17C3 17.5523 3.44772 18 4 18H14C14.5523 18 15 17.5523 15 17C15 16.4477 14.5523 16 14 16H4Z" fill="#1A1A1A"/>
</svg>
