<svg width="20" height="20" viewBox="0 0 20 20" fill="none" xmlns="http://www.w3.org/2000/svg">
<path fill-rule="evenodd" clip-rule="evenodd" d="M4.99992 5.83333C4.99992 5.76996 5.02636 5.63989 5.21812 5.44558C5.41342 5.2477 5.73734 5.03126 6.20339 4.83152C7.13254 4.43331 8.47424 4.16667 9.99992 4.16667C11.5256 4.16667 12.8673 4.43331 13.7964 4.83152C14.2625 5.03126 14.5864 5.2477 14.7817 5.44558C14.9735 5.63989 14.9999 5.76996 14.9999 5.83333C14.9999 5.89671 14.9735 6.02678 14.7817 6.22108C14.5864 6.41897 14.2625 6.63541 13.7964 6.83515C12.8673 7.23335 11.5256 7.5 9.99992 7.5C8.47424 7.5 7.13254 7.23335 6.20339 6.83515C5.73734 6.63541 5.41342 6.41897 5.21812 6.22108C5.02636 6.02678 4.99992 5.89671 4.99992 5.83333ZM16.6666 5.83333C16.6666 5.20635 16.3666 4.67874 15.968 4.27486C15.5729 3.87455 15.0425 3.55228 14.453 3.29961C13.2709 2.793 11.6959 2.5 9.99992 2.5C8.30393 2.5 6.72897 2.793 5.54686 3.29961C4.95729 3.55228 4.42694 3.87455 4.03187 4.27486C3.63327 4.67874 3.33325 5.20635 3.33325 5.83333V13.3333C3.33325 14.6212 4.09605 15.6931 5.27151 16.4036C6.43757 17.1083 8.05848 17.5 9.99992 17.5C11.9414 17.5 13.5623 17.1083 14.7283 16.4036C15.9038 15.6931 16.6666 14.6212 16.6666 13.3333V9.16667V5.83333ZM14.9999 8.10193C14.8254 8.19766 14.6422 8.28595 14.453 8.36705C13.2709 8.87367 11.6959 9.16667 9.99992 9.16667C8.30393 9.16667 6.72897 8.87367 5.54686 8.36705C5.35761 8.28595 5.17445 8.19766 4.99992 8.10193L4.99992 9.16667C4.99992 9.71976 5.31284 10.3145 6.13357 10.8105C6.9637 11.3122 8.25946 11.6667 9.99992 11.6667C11.7404 11.6667 13.0361 11.3122 13.8663 10.8105C14.687 10.3145 14.9999 9.71976 14.9999 9.16667V8.10193ZM14.9999 12.0612C14.9121 12.122 14.8215 12.1806 14.7283 12.2369C13.5623 12.9416 11.9414 13.3333 9.99992 13.3333C8.05848 13.3333 6.43757 12.9416 5.27151 12.2369C5.17833 12.1806 5.08774 12.122 4.99992 12.0612L4.99992 13.3333C4.99992 13.8864 5.31284 14.4811 6.13357 14.9772C6.9637 15.4789 8.25946 15.8333 9.99992 15.8333C11.7404 15.8333 13.0361 15.4789 13.8663 14.9772C14.687 14.4811 14.9999 13.8864 14.9999 13.3333V12.0612Z" fill="#0ABB7B"/>
</svg>
