<svg width="24" height="24" viewBox="0 0 24 24" fill="none" xmlns="http://www.w3.org/2000/svg">
<path fill-rule="evenodd" clip-rule="evenodd" d="M21.7071 2.29289C22.0976 2.68342 22.0976 3.31658 21.7071 3.70711L19.0754 6.33883L19.0718 6.34247L19.0667 6.34751L15.8891 9.52508L12.7071 12.7071C12.3166 13.0976 11.6834 13.0976 11.2929 12.7071C10.9024 12.3166 10.9024 11.6834 11.2929 11.2929L13.6646 8.92119C13.251 8.69758 12.7934 8.55793 12.3182 8.51456C11.5033 8.44019 10.6881 8.65371 10.0143 9.11801C9.34048 9.58232 8.85065 10.268 8.62995 11.056C8.40924 11.844 8.47162 12.6844 8.80624 13.4311C9.14086 14.1779 9.72657 14.7838 10.4616 15.1435C11.1965 15.5033 12.0343 15.5941 12.8293 15.4002C13.6243 15.2063 14.3263 14.74 14.8131 14.0823C15.3 13.4246 15.541 12.6171 15.4943 11.8002C15.4628 11.2488 15.8842 10.7762 16.4356 10.7447C16.987 10.7132 17.4595 11.1346 17.4911 11.686C17.5645 12.9698 17.1857 14.2388 16.4206 15.2723C15.6555 16.3058 14.5525 17.0386 13.3032 17.3433C12.0539 17.6479 10.7373 17.5052 9.58233 16.9399C8.42734 16.3746 7.50694 15.4225 6.9811 14.249C6.45527 13.0755 6.35724 11.7549 6.70406 10.5166C7.05088 9.27835 7.82062 8.20076 8.87949 7.47113C9.93837 6.7415 11.2194 6.40597 12.5 6.52284C13.4446 6.60905 14.3448 6.93737 15.1172 7.46862L16.9045 5.68125C15.6005 4.67165 14.0084 4.08494 12.3443 4.01579C10.3442 3.93267 8.38569 4.6033 6.8563 5.89501C5.32692 7.18671 4.33805 9.0054 4.08535 10.9913C3.83264 12.9771 4.3345 14.9855 5.49164 16.6191C6.64878 18.2527 8.3769 19.3924 10.3341 19.8129C12.2914 20.2334 14.3351 19.9039 16.0611 18.8897C17.787 17.8755 19.0694 16.2504 19.6546 14.336C20.2398 12.4215 20.0851 10.3572 19.2212 8.55132C18.9829 8.05312 19.1935 7.45602 19.6917 7.21768C20.1899 6.97933 20.787 7.18998 21.0254 7.68819C22.1055 9.94602 22.2989 12.527 21.5673 14.9206C20.8356 17.3142 19.2322 19.346 17.0743 20.614C14.9164 21.8821 12.3611 22.294 9.91406 21.7683C7.46698 21.2426 5.30635 19.8176 3.8596 17.7752C2.41286 15.7327 1.78539 13.2217 2.10135 10.7388C2.4173 8.25592 3.65365 5.98205 5.56581 4.36706C7.47797 2.75206 9.92664 1.91359 12.4274 2.01751C14.5934 2.10752 16.6618 2.89884 18.3279 4.25793L20.2929 2.29289C20.6834 1.90237 21.3166 1.90237 21.7071 2.29289Z" fill="#1A1A1A"/>
</svg>
