<svg width="24" height="24" viewBox="0 0 24 24" fill="none" xmlns="http://www.w3.org/2000/svg">
<path d="M9.2925 8.11L13.1825 12L9.2925 15.89C8.9025 16.28 8.9025 16.91 9.2925 17.3C9.6825 17.69 10.3125 17.69 10.7025 17.3L15.2925 12.71C15.6825 12.32 15.6825 11.69 15.2925 11.3L10.7025 6.7C10.3125 6.31 9.6825 6.31 9.2925 6.7C8.9125 7.09 8.9125 7.73 9.2925 8.11ZM18.0025 6C18.5525 6 19.0025 6.45 19.0025 7V17C19.0025 17.55 18.5525 18 18.0025 18C17.4525 18 17.0025 17.55 17.0025 17V7C17.0025 6.45 17.4525 6 18.0025 6Z" fill="#1A1A1A"/>
<rect x="5" y="11" width="9" height="2" rx="1" fill="#1A1A1A"/>
</svg>
