<svg width="60" height="44" viewBox="0 0 60 44" fill="none" xmlns="http://www.w3.org/2000/svg">
<path d="M42.2095 0.00924896C38.3789 -0.0102989 34.5466 0.00924896 30.7143 0.00924896L30.7192 0.00436201H18.8146C18.4884 -0.00866988 18.1606 0.00761998 17.8361 0.0516026C17.1675 0.173777 16.6848 0.76184 16.6946 1.44113C16.7337 2.14648 17.2849 2.71499 17.9878 2.78015C18.2846 2.80622 18.5863 2.79481 18.8847 2.79481C25.9753 2.79644 33.0707 2.77038 40.1629 2.81273C42.0628 2.82414 43.961 2.92025 45.8135 3.43012C50.5851 4.74308 54.0505 7.57426 55.9846 12.1924C57.2452 15.2109 57.286 18.3777 56.9076 21.564C56.3629 26.1561 54.755 30.323 51.5815 33.7439C47.0529 38.6227 41.3354 40.8952 34.7325 41.0743C33.6447 41.1037 32.5538 41.0483 31.4709 41.1151C30.4925 41.1737 29.9396 41.8481 30.0032 42.7261C30.062 43.5455 30.592 43.9984 31.5835 43.9984C33.9725 43.9984 36.3583 44.0424 38.736 43.6726C45.7499 42.5795 51.4136 39.2971 55.4318 33.3904C58.0361 29.5639 59.4109 25.2944 59.8724 20.6941C60.1871 17.5616 59.9474 14.5105 58.8433 11.562C56.2814 4.73331 49.548 0.0548606 42.2095 0.00924896ZM48.4766 25.2667C49.548 22.4893 49.8888 19.6011 48.9332 16.7357C47.5862 12.699 43.8908 10.1171 39.6166 10.109H14.1767C13.9337 10.0976 13.6907 10.109 13.4493 10.1432C12.7302 10.2816 12.3241 10.8518 12.3779 11.6435C12.4269 12.37 12.8264 12.8049 13.5488 12.8717C14.3854 12.9499 15.2269 13.0183 16.0667 13.0183C23.9662 13.0297 31.8786 13.0086 39.7846 13.0428C41.9943 13.0525 43.8321 13.9517 45.1922 15.7436C46.4153 17.3498 46.6958 19.1596 46.4838 21.1274C46.2147 23.6361 45.3096 25.8645 43.5826 27.7085C41.5686 29.8588 39.0344 30.9453 36.099 30.9551C27.7316 30.9828 19.3625 30.9697 10.995 30.9697C10.5352 30.9697 10.0688 30.9355 9.62357 31.0984C8.92234 31.3591 8.57335 31.8673 8.64511 32.6101C8.71686 33.353 9.18 33.7749 9.91547 33.8742C10.1862 33.8987 10.4585 33.9036 10.7309 33.8921H23.4508C27.5799 33.8921 31.7107 33.9036 35.8398 33.8921C41.5735 33.8775 46.4185 30.5983 48.4766 25.2667ZM7.91779 10.1057C7.52314 10.0112 7.11708 9.96561 6.71102 9.96561C5.38032 9.95095 4.04798 9.95421 2.71727 9.96561C2.22968 9.95095 1.74045 9.98353 1.25937 10.0617C0.377126 10.2409 -0.0811195 10.8681 0.0118341 11.5979C0.104788 12.3276 0.731002 12.8636 1.54638 12.8782C2.52484 12.8913 3.5033 12.8782 4.48176 12.8782L4.4785 12.8717C5.53687 12.8717 6.5985 12.8978 7.65686 12.8619C8.41028 12.8375 8.86037 12.3895 8.94517 11.6451C9.02997 10.9006 8.63695 10.2881 7.91779 10.1057ZM25.2561 41.146C23.2812 40.9962 21.2982 40.9994 19.3234 41.1542C18.521 41.2307 17.9307 41.9393 18.0008 42.7424C18.0905 43.4755 18.6808 43.9723 19.5582 43.9919C20.4845 44.0081 21.4075 43.9919 22.3305 43.9919V43.9984H25.0196C25.9263 43.9625 26.5004 43.4641 26.5607 42.6496C26.564 42.6235 26.5656 42.5974 26.5656 42.5714C26.5982 41.8155 26.0128 41.1786 25.2561 41.146Z" fill="#3C67FF"/>
</svg>
