<svg width="60" height="60" viewBox="0 0 60 60" fill="none" xmlns="http://www.w3.org/2000/svg">
<g clip-path="url(#clip0_6602_70)">
<path d="M59.1659 33.8031V26.1884L51.4428 25.5129C50.8924 22.7689 49.8415 20.2085 48.3986 17.9232L53.3194 12.06L47.9399 6.68052L42.2435 11.4678C39.9249 9.84149 37.2894 8.64049 34.437 7.97327L33.8031 0.833984H26.1884L25.5879 7.67302C22.502 8.17343 19.633 9.29937 17.1059 10.9174L12.06 6.68052L6.68052 12.06L10.7839 16.9474C8.9741 19.5079 7.68136 22.452 7.05584 25.6463L0.833984 26.1968V33.8115L7.06418 34.3536C7.6897 37.5479 8.98244 40.492 10.7923 43.0525L6.68886 47.9399L12.0683 53.3194L17.1142 49.0825C19.6413 50.7005 22.5187 51.8265 25.5963 52.3269L26.1968 59.1659H33.8115L34.437 52.0266C37.281 51.3594 39.9166 50.1584 42.2435 48.5321L47.9399 53.3194L53.3194 47.9399L48.3986 42.0767C49.8415 39.7914 50.8924 37.231 51.4428 34.487L59.1659 33.8031Z" stroke="#C7C7C7" stroke-width="2" stroke-miterlimit="10" stroke-linecap="round" stroke-linejoin="round"/>
<path d="M21.4097 24.487C21.4097 19.7414 25.2545 15.8965 30.0002 15.8965C34.7458 15.8965 38.5906 19.7414 38.5906 24.487C38.5906 29.2326 34.7458 33.0775 30.0002 33.0775V37.5145" stroke="#C7C7C7" stroke-width="2" stroke-miterlimit="10" stroke-linecap="round" stroke-linejoin="round"/>
<path d="M30 43C30.5523 43 31 42.5523 31 42C31 41.4477 30.5523 41 30 41C29.4477 41 29 41.4477 29 42C29 42.5523 29.4477 43 30 43Z" stroke="#C7C7C7" stroke-width="2" stroke-miterlimit="10" stroke-linecap="round" stroke-linejoin="round"/>
</g>
<defs>
<clipPath id="clip0_6602_70">
<rect width="60" height="60" fill="white"/>
</clipPath>
</defs>
</svg>
