<svg width="60" height="60" viewBox="0 0 60 60" fill="none" xmlns="http://www.w3.org/2000/svg">
<g clip-path="url(#clip0_5358_24763)">
<path d="M28.7604 5C17.3091 5 8.01562 8.35831 8.01562 12.5053V18.6698C8.01562 22.8168 17.3025 26.1817 28.7604 26.1817C40.2118 26.1817 49.5052 22.8233 49.5052 18.6698V12.5053C49.5052 8.35831 40.2184 5 28.7604 5Z" fill="#3C67FF"/>
<path d="M28.758 29.7699C17.823 29.7699 8.80094 26.7073 8.01324 22.8167C7.98015 23.0072 8.01324 32.9967 8.01324 32.9967C8.01324 37.1437 17.3001 40.5086 28.758 40.5086C40.2094 40.5086 49.5028 37.1437 49.5028 32.9967C49.5028 32.9967 49.5293 23.0072 49.4896 22.8167C48.7019 26.7073 39.6997 29.7699 28.758 29.7699Z" fill="#3C67FF"/>
<path d="M49.4829 37.3147C48.6952 41.2053 39.6996 44.2679 28.7646 44.2679C17.8295 44.2679 8.80747 41.2053 8.01978 37.3147V47.4948C8.01978 51.6417 17.3066 55.0066 28.7646 55.0066C40.2159 55.0066 49.5093 51.6483 49.5093 47.4948L49.4829 37.3147Z" fill="#3C67FF"/>
</g>
<defs>
<clipPath id="clip0_5358_24763">
<rect width="41.5094" height="50" fill="white" transform="translate(8 5)"/>
</clipPath>
</defs>
</svg>
