<svg width="56" height="62" viewBox="0 0 56 62" fill="none" xmlns="http://www.w3.org/2000/svg">
<g clip-path="url(#clip0_5358_24633)">
<path d="M35.3563 28.9438L23.0815 32.9981L12.4025 37.7655L9.4149 38.5631C8.6542 39.2954 7.85627 40.0367 6.99331 40.7876C6.04693 41.6133 5.16557 42.3642 4.4883 42.9086C3.737 43.5093 2.62333 44.6354 2.05772 45.3486C1.21359 46.4184 0.545299 47.554 0.257789 48.4269C-0.252627 50.0035 -0.0019111 51.5991 0.981699 53.0727C2.24341 54.9497 4.75784 56.8643 7.68984 58.1686C9.18387 58.8351 11.6979 59.689 13.5906 60.1676C16.7357 60.9748 22.8222 61.8477 26.1714 61.9792C26.8486 62.0074 27.7578 62.0074 27.795 61.9792C27.8695 61.9321 28.3889 60.928 28.9921 59.6799C31.0518 55.4283 32.5364 51.4399 33.3433 48.0331C33.8259 45.9683 34.2062 43.2185 34.4565 39.9623C34.5216 39.0517 34.5494 36.002 34.4938 34.9694C34.4103 33.2802 34.2619 31.9101 34.03 30.568C33.9927 30.3711 33.9833 30.1924 34.0022 30.1833C34.039 30.1552 34.1506 30.1175 35.6626 29.6765L35.3563 28.9438ZM32.5543 30.6048C32.6656 30.6048 32.9625 33.4858 33.0365 35.3069C33.0553 35.6917 33.0459 35.9448 33.0271 35.9448C32.9531 35.9448 31.4591 35.0533 30.3925 34.3778C29.4645 33.7866 27.7017 32.6038 27.4237 32.3788C27.3308 32.313 27.3398 32.3039 28.1009 32.0408C29.3904 31.5998 32.4525 30.6048 32.5543 30.6048ZM26.301 32.6886C26.3844 32.6886 26.5979 32.8107 27.1079 33.1296C29.0191 34.3401 31.6169 35.8042 32.7306 36.2924C33.0737 36.4425 33.111 36.3863 32.3224 36.9307C30.6338 38.0944 28.5275 39.2391 25.9485 40.3938C25.4941 40.6002 25.1137 40.7599 25.1043 40.7599C25.0859 40.7599 25.1411 40.5253 25.2156 40.2436C25.8372 37.9066 26.1898 35.5415 26.2086 33.6459C26.218 32.7072 26.218 32.7073 26.3014 32.6796C26.2822 32.6886 26.2916 32.6886 26.301 32.6886ZM25.0115 33.1859C25.0671 33.2422 25.0299 35.3446 24.9559 35.9167C24.789 37.2869 24.5293 38.5631 24.1023 39.9995C24.0001 40.3466 23.9072 40.6374 23.8888 40.6564C23.8516 40.7032 22.5805 39.446 22.1629 38.9578C21.439 38.113 20.8734 37.2687 20.4558 36.4425C20.2423 36.0201 19.9086 35.1944 19.9364 35.1663C20.0849 35.0628 24.9743 33.1482 25.0115 33.1859ZM18.9434 35.5977C18.9528 35.5977 18.9618 35.5977 18.9712 35.6073C18.9896 35.6259 19.0546 35.7765 19.1102 35.9453C19.4072 36.7619 20.075 37.9629 20.6505 38.7328C21.2815 39.5775 22.1073 40.4781 22.7935 41.0697C23.0164 41.2576 23.2201 41.4359 23.2479 41.464C23.3035 41.5203 23.3224 41.5107 21.8099 42.0928C20.0566 42.7684 18.145 43.4444 15.9553 44.1576C15.4321 44.3281 14.9097 44.5003 14.3877 44.6739C14.3039 44.702 14.3321 44.6553 14.5734 44.2705C15.6588 42.5529 17.3103 39.1837 18.2383 36.8C18.3962 36.3871 18.5536 35.9743 18.5819 35.8803C18.6191 35.7488 18.6653 35.702 18.7859 35.6363C18.8505 35.6164 18.9156 35.5977 18.9434 35.5977ZM17.0878 36.3767C17.1156 36.3958 16.6424 37.3998 16.1787 38.3195C15.2785 40.093 14.2953 41.8388 12.9775 43.9598C12.7551 44.3259 12.5416 44.6639 12.5138 44.7012C12.4676 44.7669 12.4487 44.7479 12.3003 44.4571C11.985 43.8282 11.7248 43.0211 11.5858 42.2798C11.4467 41.5475 11.4745 40.2713 11.6324 39.4832C11.7531 38.9015 11.7437 38.9106 12.0222 38.77C13.2099 38.1598 17.051 36.3391 17.0878 36.3767ZM33.0926 37.0337V37.4279C33.0926 39.5208 32.8701 42.3927 32.5449 44.4856C32.4893 44.8518 32.4427 45.1517 32.4337 45.1612C32.4337 45.1612 32.1646 45.0863 31.8493 44.992C30.4575 44.551 28.9451 43.9031 27.5815 43.1432C26.6813 42.6459 25.3734 41.8293 25.4107 41.7916C25.4196 41.7825 25.8094 41.5757 26.2642 41.332C28.083 40.3747 29.8268 39.3425 31.3393 38.3195C31.9053 37.9347 32.7588 37.3154 32.9445 37.1462L33.0926 37.0337ZM10.0832 39.8112C10.1204 39.8112 10.111 39.8861 10.0554 40.2241C10.0182 40.4682 9.97195 40.9187 9.95356 41.2281C9.87911 42.5983 10.102 43.6119 10.7699 45.0011C10.9556 45.3858 11.104 45.7052 11.0946 45.7143C11.0296 45.7705 4.8879 47.5916 2.9579 48.1261C2.38288 48.2858 1.88188 48.4265 1.84466 48.4356C1.77962 48.4546 1.77064 48.4451 1.79845 48.2854C2.01194 46.9057 3.05117 45.1041 4.49814 43.5837C5.46292 42.5702 6.23304 41.979 7.55079 41.2186C8.49718 40.6746 9.95356 39.858 10.0652 39.8203C10.0644 39.8112 10.0738 39.8112 10.0832 39.8112ZM24.5567 42.4299C24.5661 42.4204 24.7886 42.5425 25.0577 42.7022C27.0433 43.8659 29.808 44.9452 32.1646 45.4988L32.3781 45.5459L32.0811 45.7147C30.8472 46.4093 26.7926 48.1175 22.6455 49.6845C22.0422 49.9096 21.4488 50.1351 21.3372 50.1818C21.2259 50.2285 21.1237 50.2567 21.1237 50.2476C21.1237 50.2381 21.291 49.9096 21.504 49.5062C22.6639 47.3103 23.8328 44.6354 24.4266 42.7775C24.5011 42.5987 24.5473 42.4395 24.5567 42.4299ZM23.0815 42.9181C23.0909 42.9276 23.0164 43.1246 22.9236 43.3496C22.1167 45.33 21.0586 47.4886 19.7041 49.9096C19.361 50.5289 19.073 51.0266 19.0636 51.0266C19.0546 51.0266 18.7761 50.8574 18.442 50.6509C16.4747 49.4309 14.7308 47.9292 13.5898 46.4747L13.4225 46.2682L14.2666 46.0337C17.2915 45.1984 19.8611 44.2974 22.4128 43.1903C22.7751 43.0402 23.0721 42.9181 23.0815 42.9181ZM32.248 46.1557C32.248 46.1557 32.2574 46.1652 32.248 46.1557C32.2574 46.3717 31.7842 48.3049 31.3945 49.7032C31.0697 50.8764 30.7912 51.796 30.2812 53.4194C30.0587 54.1326 29.8636 54.7238 29.8547 54.7238C29.8452 54.7238 29.7896 54.7142 29.734 54.6956C26.9783 54.1889 24.5105 53.4847 22.1911 52.5465C21.5417 52.2838 20.6137 51.8614 20.5581 51.8142C20.5397 51.7952 21.0963 51.5325 21.8014 51.2231C26.0229 49.3556 30.4019 47.2346 31.9049 46.3241C32.0811 46.212 32.2202 46.1557 32.248 46.1557ZM11.0852 46.888C11.1036 46.9066 9.92532 48.6242 8.27385 50.9608C7.69883 51.7774 7.03054 52.7343 6.78025 53.0909C6.52953 53.4475 6.14918 54.0106 5.93611 54.3485L5.54635 54.9588L5.12878 54.6022C4.63719 54.1893 3.78364 53.3069 3.40329 52.8191C2.60536 51.8151 2.06713 50.7544 1.85407 49.788C1.75181 49.3375 1.75181 49.112 1.84466 49.0839C1.98371 49.0462 4.46091 48.455 6.78068 47.9106C8.07019 47.6103 9.56379 47.2537 10.102 47.1225C10.6398 46.991 11.0758 46.888 11.0852 46.888ZM12.2725 47.3476L12.5694 47.6856C13.9055 49.1964 15.2695 50.3134 16.921 51.2893C17.2179 51.4585 17.4404 51.6082 17.422 51.6177C17.3574 51.6645 11.688 53.7011 9.06236 54.6208C7.58716 55.1462 6.37166 55.5685 6.36267 55.5685C6.35326 55.5685 6.26983 55.5123 6.17699 55.4465L6.01013 55.3245L6.27924 54.9302C7.15119 53.6539 8.24646 52.2557 10.6308 49.3461L12.2725 47.3476ZM19.6767 52.7062C19.6857 52.6971 20.0943 52.8468 20.5949 53.0346C21.8009 53.4943 22.7567 53.7851 24.0373 54.114C25.6147 54.5178 27.8968 54.9116 29.2424 55.0245C29.4465 55.0431 29.5577 55.0622 29.5209 55.0903C29.4559 55.128 28.0919 55.5876 27.0899 55.907C25.4941 56.4137 20.6231 57.8683 16.6523 59.0225C15.9194 59.2385 15.2883 59.4168 15.2511 59.4259C15.1583 59.4449 14.8519 59.3601 14.8519 59.3224C14.8519 59.3038 15.0744 59.013 15.3435 58.6936C16.6792 57.0794 18.0064 55.2777 19.1102 53.5696C19.4166 53.1004 19.6767 52.7157 19.6767 52.7062ZM18.0436 52.7533C18.053 52.7629 17.3942 53.8327 16.2437 55.672C15.7517 56.451 15.2045 57.333 15.0094 57.6428C14.8237 57.9432 14.5456 58.4123 14.3877 58.675L14.1186 59.1536L13.9796 59.116C13.6454 59.0221 11.2983 58.1868 10.6766 57.9337C9.90649 57.6238 9.10857 57.2486 8.51472 56.9296C7.77242 56.5258 6.84485 55.9251 6.91887 55.9065C6.93727 55.897 8.20839 55.5499 9.73921 55.1275C13.8029 54.0106 16.0576 53.3631 17.5328 52.894C17.8023 52.8096 18.0342 52.7438 18.0436 52.7533ZM29.5945 55.4937H29.6039C29.6412 55.5876 28.1381 59.811 27.5905 61.1435C27.4703 61.4439 27.4237 61.5192 27.3586 61.5097C27.2007 61.5006 25.0205 61.1907 23.6937 60.9934C21.3838 60.6368 17.5054 59.9517 16.5312 59.7262L16.3087 59.6795L17.6911 59.3601C20.6603 58.6845 22.0889 58.3184 23.5363 57.8679C25.364 57.3048 27.1734 56.6007 29.0011 55.7378C29.2882 55.6062 29.5295 55.5032 29.5945 55.4937Z" fill="#3C67FF"/>
<path d="M22.7012 0.0007292C22.4972 -0.0274011 19.2032 1.17398 17.079 2.04645C14.212 3.22922 11.9855 4.3553 10.6121 5.33121C10.1021 5.69733 9.46165 6.34476 9.35982 6.59837C9.3226 6.69228 9.3042 6.8048 9.3042 6.91732L10.5475 8.10918L13.5069 9.06648L20.5488 10.3427L28.602 11.741L28.6855 11.0373C28.6577 11.0373 28.6393 11.0278 28.6115 11.0278L27.5534 10.859L27.3403 10.4743C26.2455 8.52205 25.0394 6.10068 24.3343 4.46782C23.7871 3.20066 23.2673 1.73702 22.9798 0.68581C22.8219 0.0474689 22.8035 0.0102502 22.7012 0.0007292ZM22.5528 0.479377H22.5622C22.5712 0.488465 22.6084 0.751592 22.6456 1.06103C22.8031 2.37493 23.091 3.64166 23.5458 5.01225C23.8889 6.04485 23.8889 5.98816 23.4902 5.86612C22.5438 5.60342 18.3039 4.86208 15.2328 4.43017C14.7412 4.36439 14.3236 4.29861 14.3236 4.28952C14.2864 4.25187 16.5412 3.06001 17.5338 2.59088C18.8044 1.99971 22.2931 0.526117 22.5528 0.479377ZM13.6087 4.68378L13.9707 4.80582C15.9375 5.48181 20.8825 6.43911 23.6104 6.66415C23.9163 6.69228 24.1764 6.72041 24.1854 6.72041C24.1948 6.72993 23.9351 6.87058 23.601 7.02984C22.2837 7.69632 20.8363 8.51253 19.8343 9.14135C19.5373 9.32874 19.2682 9.47934 19.2314 9.47934C19.1942 9.47934 18.9995 9.44169 18.7955 9.41356L18.4245 9.3573L17.497 8.43766C15.8639 6.83293 14.5838 5.59433 14.0918 5.12477L13.6087 4.68378ZM13.2378 4.9746L14.5461 6.6265C15.2606 7.53705 15.9841 8.42857 16.142 8.62548C16.2994 8.82283 16.4295 8.98209 16.4205 8.99161C16.3833 9.01974 14.5277 8.65361 13.5441 8.42857C12.5327 8.19401 12.1151 8.08148 11.4939 7.88414L10.9835 7.71536V7.5838C10.9929 6.95497 11.7814 6.01672 13.1176 5.05942L13.2378 4.9746ZM24.3527 7.22719C24.3899 7.22719 24.4361 7.31158 24.5474 7.56519C24.8627 8.26888 25.8463 10.1649 26.0876 10.531C26.1621 10.653 26.2917 10.6625 24.9838 10.4466C21.8387 9.93029 20.8273 9.76151 20.8273 9.7429C20.8273 9.73338 20.9201 9.66803 21.0408 9.60225C22.015 9.05782 22.9986 8.36365 23.8705 7.62188C24.084 7.44358 24.2787 7.27479 24.3159 7.24623C24.3249 7.22719 24.3433 7.21767 24.3527 7.22719Z" fill="#3C67FF"/>
<path d="M9.42399 6.4668C9.42399 6.4668 9.21991 6.79527 9.41458 7.28344C9.53523 7.58379 9.88777 7.94948 10.2865 8.32513C10.2865 8.32513 14.4152 12.398 14.9162 12.98C17.1983 15.6451 18.1913 18.2729 18.2842 21.8956C18.3398 24.2231 17.9038 26.2688 16.8184 28.6434C14.8884 32.9041 10.8153 37.6062 4.53418 42.8241L5.45276 42.5143C6.0466 42.0638 6.85351 41.5851 8.74629 40.5339C13.1163 38.1125 18.0335 35.8881 24.0643 33.5983C32.7482 30.2945 47.0275 26.4281 55.1548 25.1704L55.9993 25.0389L55.8693 24.8324C55.1274 23.6687 54.6166 22.946 54.0043 22.1765C52.2232 19.9429 50.0613 18.1318 47.4173 16.6301C43.7802 14.5748 39.076 12.9701 33.12 11.7782C31.9974 11.5528 29.5296 11.1213 27.5256 10.8114C23.2762 10.1454 20.5299 9.68534 17.5055 9.15952C16.4201 8.97169 14.7964 8.69039 13.72 8.45583C13.1633 8.33378 12.0963 8.08018 11.2616 7.78936C10.5929 7.52709 9.62807 7.2644 9.42399 6.4668ZM11.8178 8.8133C11.8268 8.80421 11.9752 8.86004 12.1703 8.92582C12.5229 9.04786 12.9772 9.18851 13.5159 9.33869C13.9232 9.45207 14.3313 9.56156 14.7404 9.66716C15.297 9.80781 15.7608 9.93938 15.7702 9.93938C15.8352 10.0052 16.7722 13.0363 17.0879 14.2C17.2086 14.6415 17.3014 15.0167 17.292 15.0167C17.2826 15.0262 17.1808 14.8665 17.0601 14.6506C15.9747 12.7174 14.2582 10.756 12.2726 9.17899C12.0124 8.9916 11.8178 8.82239 11.8178 8.8133ZM16.3824 10.0895C16.4291 10.0895 16.6331 10.1177 16.8834 10.1739C18.4609 10.5305 21.2906 11.075 23.0995 11.3848C23.4059 11.4316 23.6472 11.4883 23.6472 11.5069C23.6472 11.5259 23.5359 11.5913 23.3965 11.6666C23.0906 11.8258 21.8562 12.5676 21.4481 12.8489C20.4183 13.5435 19.4903 14.2939 18.8224 14.9699C18.5533 15.2422 18.3214 15.4672 18.3214 15.4672C18.3214 15.4672 18.2658 15.3079 18.2191 15.1106C17.8854 13.8062 17.1893 11.8726 16.5583 10.5119C16.456 10.296 16.3726 10.0991 16.3726 10.0805C16.373 10.0986 16.373 10.0895 16.3824 10.0895ZM24.4173 11.638C24.4729 11.6566 24.5658 11.976 24.7514 12.6797C25.095 14.0408 25.2525 15.5611 25.1968 16.978C25.178 17.3723 25.1596 17.738 25.1412 17.7851L25.1134 17.879L24.6308 17.7198C23.6382 17.4008 22.0235 16.9222 20.6416 16.5279C19.8526 16.312 19.2126 16.1151 19.2126 16.0965C19.2126 16.0402 20.3631 14.8765 20.8547 14.4355C21.7916 13.5993 24.3334 11.6099 24.4173 11.638ZM25.0574 11.7315C25.0852 11.7034 28.8985 12.3698 30.6334 12.7074C31.9234 12.9606 33.7973 13.3548 33.9086 13.402C33.9642 13.4206 33.7695 13.5331 33.1479 13.8149C30.6985 14.9319 28.8801 15.9359 27.0708 17.1559C26.5976 17.4748 26.1984 17.7375 26.1894 17.7375C26.18 17.7375 26.171 17.4653 26.171 17.1368C26.171 15.3538 25.8185 13.5517 25.169 12.0314C25.1036 11.8821 25.0479 11.741 25.0574 11.7315ZM34.92 13.7028C34.9478 13.7309 34.8271 14.4913 34.7159 14.9414C34.3818 16.3397 33.482 18.414 32.3782 20.3658C32.1831 20.7129 32.0068 20.9946 31.9884 21.0041C31.97 21.0136 31.7193 20.8725 31.4318 20.7038C30.3558 20.0654 29.1308 19.4652 27.7947 18.9017C27.4237 18.7424 27.099 18.6109 27.0896 18.5923C27.0246 18.536 30.0122 16.537 31.5892 15.5797C32.8415 14.8102 34.8828 13.6651 34.92 13.7028ZM35.6251 13.8153C35.7085 13.8153 37.3972 14.2844 38.2785 14.5476C40.4588 15.2045 42.9638 16.1337 44.5969 16.8845L45.2742 17.1944L44.801 17.3069C40.8118 18.2361 37.3972 19.3059 34.1037 20.6575C33.8345 20.77 33.5932 20.8639 33.5748 20.8639C33.556 20.8639 33.6489 20.6479 33.7695 20.3852C34.7621 18.2551 35.4026 16.0307 35.56 14.1347C35.5694 13.956 35.5968 13.8153 35.6251 13.8153ZM18.8134 17.7194C18.8412 17.6912 20.1307 18.0011 20.8268 18.198C21.8845 18.4983 24.1298 19.2587 24.1298 19.315C24.1298 19.3245 23.8795 19.54 23.5826 19.8032C22.3671 20.8262 21.1982 21.9051 19.797 23.2753C19.3795 23.6791 19.0269 24.0076 19.0085 24.0076C18.9897 24.0076 18.9807 23.9513 18.9897 23.876C19.2032 22.2994 19.157 20.2723 18.8601 18.217C18.8318 17.9539 18.804 17.7289 18.8134 17.7194ZM45.9142 17.7475C45.9326 17.7661 45.3204 18.742 44.9306 19.2959C44.374 20.1031 43.5573 21.1733 41.7111 23.5194C40.7369 24.758 39.6421 26.1567 39.2805 26.6258C38.9092 27.095 38.6033 27.4892 38.5939 27.4892C38.5844 27.4892 38.4642 27.3204 38.3342 27.114C37.2949 25.5374 36.0516 24.1577 34.5764 22.9191C34.2979 22.6846 33.992 22.431 33.8902 22.3561C33.7879 22.2812 33.7045 22.2059 33.7045 22.1968C33.7045 22.1687 35.2815 21.4836 36.4786 20.9955C38.5755 20.1321 41.4326 19.0999 43.5761 18.4334C44.6987 18.076 45.8954 17.7289 45.9142 17.7475ZM46.6287 17.9353C46.6655 17.9258 46.8884 18.0387 47.1576 18.198C49.4123 19.5024 51.6204 21.1824 53.3647 22.9092C53.8563 23.3973 55.0718 24.6736 55.053 24.6831C55.053 24.6831 54.6264 24.7208 54.1254 24.758C50.2192 25.0583 45.2186 25.8936 40.4126 27.0668C40.0879 27.1417 39.8004 27.2075 39.7816 27.2075C39.7632 27.2075 40.1251 26.8414 40.5795 26.4004C43.3998 23.6505 44.6898 21.9142 46.2112 18.8173C46.4247 18.3577 46.6099 17.9634 46.6287 17.9353C46.6193 17.9353 46.6193 17.9353 46.6287 17.9353ZM25.9665 20.0749C26.0966 20.1031 27.3027 20.6756 28.2118 21.1352C29.047 21.5576 30.2993 22.2332 30.3643 22.2894C30.3737 22.299 29.9283 22.5335 29.3811 22.8057C27.6368 23.6877 26.1432 24.523 24.5842 25.4803C24.1388 25.7525 23.7678 25.978 23.7584 25.978C23.7212 25.978 23.7306 25.9403 23.9809 25.4803C24.816 23.9413 25.4839 22.1016 25.8643 20.3091C25.9015 20.1689 25.9387 20.0749 25.9665 20.0749ZM24.7604 20.3C24.7882 20.3281 24.4729 21.4823 24.2783 22.1111C23.8979 23.303 23.2574 24.7952 22.6362 25.9213C22.4877 26.184 22.2648 26.5687 22.1442 26.7847L21.9123 27.1599L21.3929 26.6531C20.7901 26.0619 20.298 25.6958 19.6674 25.3673C19.4167 25.2362 19.222 25.1233 19.222 25.1046C19.222 25.0298 20.8084 23.5748 22.024 22.5236C22.8955 21.7641 24.7326 20.2719 24.7604 20.3ZM32.1364 23.3692L32.5912 23.6696C33.63 24.3546 34.8549 25.2652 35.7919 26.0628C36.3207 26.5038 37.3411 27.433 37.5456 27.6584L37.6569 27.7805L36.9056 27.9964C32.6563 29.1883 29.3717 30.2486 25.54 31.6754C25.1134 31.8347 24.7514 31.9663 24.7236 31.9663C24.668 31.9663 24.6214 32.013 25.5772 31.1215C28.0266 28.8412 30.1975 26.3259 31.8121 23.8764L32.1364 23.3692ZM30.1975 23.857C30.2159 23.8756 28.9447 25.6867 28.184 26.7098C27.2749 27.9298 25.6606 29.9755 24.5469 31.3085C24.0832 31.8624 23.6844 32.322 23.6656 32.3315C23.6378 32.3411 23.6284 32.2 23.6284 31.9844C23.6284 30.8489 23.3408 29.6379 22.8398 28.6058C22.6264 28.1743 22.5891 28.0709 22.6358 28.0241C22.812 27.8644 25.5117 26.3065 27.2188 25.3777C28.3697 24.758 30.1692 23.8383 30.1975 23.857ZM18.4699 26.7665C18.4977 26.7665 18.7112 26.879 18.9525 27.0106C19.5463 27.3391 20.0751 27.7052 20.5483 28.0994C20.5667 28.118 20.3258 28.3154 20.0101 28.55C19.1287 29.1883 17.7926 30.2114 17.0135 30.8398C16.1967 31.4967 16.1694 31.5153 16.2618 31.3747C16.874 30.4269 17.1803 29.892 17.5051 29.2069C17.7926 28.5971 18.0801 27.8744 18.2842 27.2456C18.3586 26.9729 18.4515 26.7665 18.4699 26.7665ZM21.5965 29.2441C21.6427 29.235 21.6988 29.319 21.9491 29.6946C22.4779 30.4922 22.8861 31.5621 22.9883 32.4254L23.0067 32.6133L21.736 33.1105C19.4629 34.002 17.366 34.884 15.9464 35.541C15.5477 35.7288 14.8516 36.0664 14.3972 36.2918C13.9424 36.5264 13.5715 36.7047 13.5715 36.6952C13.5715 36.6857 13.859 36.4702 14.2115 36.207C16.9857 34.1708 19.3889 31.9368 21.1888 29.7033C21.3839 29.4687 21.5602 29.2528 21.5786 29.2433L21.5965 29.2441ZM20.1586 29.6007C20.1958 29.6384 19.1382 30.8489 18.4142 31.5902C16.6237 33.439 14.8516 34.8845 12.6529 36.2923C12.3744 36.4706 12.1241 36.6298 12.0963 36.6489C12.0313 36.6865 12.1147 36.5926 13.0799 35.5319C13.6921 34.8654 14.1564 34.3024 14.6852 33.6082C15.0377 33.1486 15.1027 33.0828 15.6132 32.7167C16.9763 31.7218 20.1213 29.5631 20.1586 29.6007Z" fill="#3C67FF"/>
</g>
<defs>
<clipPath id="clip0_5358_24633">
<rect width="56" height="62" fill="white"/>
</clipPath>
</defs>
</svg>
