<svg width="58" height="57" viewBox="0 0 58 57" fill="none" xmlns="http://www.w3.org/2000/svg">
<path fill-rule="evenodd" clip-rule="evenodd" d="M53.4194 44.0814C50.2645 44.0015 47.8172 44.3188 45.7659 45.1875C45.1756 45.4264 44.2273 45.4264 44.1496 46.175C44.4652 46.4889 44.5034 47.0034 44.7802 47.4387C45.2533 48.229 46.0829 49.2942 46.8314 49.8462C47.661 50.4788 48.4893 51.11 49.3558 51.6634C50.8944 52.6106 52.63 53.1633 54.1283 54.1119C54.9968 54.6653 55.864 55.3757 56.7324 55.9687C57.1749 56.2846 57.4421 56.7991 57.9949 56.9957V56.8762C57.7189 56.5221 57.6398 56.0089 57.3644 55.6125C56.969 55.2187 56.575 54.8618 56.1796 54.4681C55.0364 52.9279 53.6157 51.5843 52.0771 50.4802C50.8146 49.6108 48.0544 48.4268 47.5411 46.9665L47.4634 46.8867C48.3298 46.8069 49.3558 46.4909 50.1847 46.2541C51.527 45.8999 52.7486 45.9777 54.1283 45.6229C54.7603 45.4639 55.3909 45.2674 56.0235 45.0695V44.7153C55.3138 44.0043 54.8005 43.0564 54.052 42.3856C52.0403 40.6482 49.8302 38.9498 47.5418 37.5283C46.3188 36.7388 44.7406 36.2243 43.4393 35.5549C42.9641 35.3174 42.1768 35.1993 41.9007 34.8042C41.189 33.9369 40.7956 32.7905 40.2823 31.7628C39.1391 29.5907 38.0341 27.1826 37.0483 24.8918C36.3387 23.3516 35.9031 21.8115 35.0366 20.39C30.973 13.6766 26.5535 9.60958 19.7686 5.62099C18.3097 4.79189 16.5741 4.435 14.7288 4.00099L11.7702 3.842C11.1383 3.56563 10.5077 2.81499 9.95482 2.45947C7.70589 1.03804 1.90666 -2.04228 0.248765 2.02615C-0.816733 4.59263 1.8269 7.11953 2.7247 8.42358C3.39686 9.33185 4.2633 10.3582 4.73776 11.3852C5.00295 12.056 5.09157 12.7677 5.36834 13.4781C5.99891 15.2154 6.59131 17.1514 7.41957 18.7707C7.862 19.5998 8.32555 20.4699 8.87841 21.2198C9.19404 21.6538 9.7469 21.8517 9.86415 22.5628C9.31129 23.353 9.2738 24.5363 8.95817 25.525C7.53751 29.9879 8.08969 35.516 10.1014 38.7921C10.7333 39.7789 12.2235 41.9516 14.2448 41.1218C16.0199 40.4108 15.6238 38.1602 16.1372 36.1861C16.2565 35.7125 16.1767 35.3965 16.4133 35.0799V35.1598L18.0316 38.4373C19.2546 40.3719 21.3856 42.3863 23.16 43.7299C24.1062 44.441 24.8561 45.6659 26.0389 46.0992V45.9798H25.9612C25.7239 45.6256 25.3688 45.4666 25.0531 45.1903C24.3435 44.4792 23.5547 43.6105 23.0019 42.821C21.346 40.61 19.8872 38.1609 18.5845 35.634C17.9525 34.4098 17.3997 33.0675 16.8884 31.8433C16.6498 31.3691 16.6498 30.6573 16.2565 30.4219C15.6641 31.2892 14.7976 32.0419 14.3613 33.1071C13.6115 34.8049 13.5337 36.8978 13.2577 39.0699C13.0988 39.1095 13.169 39.0699 13.0988 39.1497C11.8377 38.8344 11.4028 37.5297 10.9297 36.4256C9.7469 33.6216 9.54853 29.1199 10.5745 25.8819C10.8506 25.0528 12.0354 22.4461 11.5623 21.6566C11.3237 20.9059 10.5363 20.4726 10.1014 19.8796C9.58875 19.129 9.03793 18.1818 8.68209 17.3527C7.73588 15.1397 7.26278 12.6926 6.23614 10.481C5.761 9.454 4.93341 8.3881 4.26262 7.44094C3.51275 6.37436 2.68585 5.62372 2.09345 4.36061C1.89644 3.92661 1.62035 3.21556 1.93597 2.74061C2.01369 2.42466 2.17321 2.30661 2.48679 2.22745C2.99943 1.79345 4.46031 2.34619 4.97295 2.58161C6.43179 3.17461 7.65476 3.72667 8.87773 4.5551C9.43059 4.94952 10.023 5.70015 10.7326 5.89873H11.5623C12.8248 6.1751 14.2441 5.97857 15.4262 6.33273C17.5169 7.00557 19.41 7.99163 21.1081 9.05889C26.2754 12.3364 30.5367 16.9965 33.4155 22.5648C33.8886 23.4731 34.0857 24.3022 34.5206 25.25C35.3502 27.186 36.3755 29.1595 37.2024 31.0558C38.032 32.912 38.8208 34.8083 40.0035 36.3485C40.5959 37.1776 42.9621 37.6116 44.0262 38.0463C44.8156 38.4004 46.0379 38.7191 46.7496 39.1524C48.0898 39.9815 49.4314 40.9294 50.6933 41.8377C51.3238 42.3106 53.2973 43.298 53.4146 44.0855L53.4194 44.0814ZM13.1888 9.76517C12.6434 9.76039 12.1001 9.82658 11.5725 9.96238V10.0422H11.6502C11.9658 10.6741 12.5187 11.1088 12.9127 11.6622L13.8207 13.5579L13.8985 13.4781C14.4513 13.0836 14.7281 12.4511 14.7281 11.5046C14.4909 11.2282 14.452 10.9512 14.255 10.6755C14.0178 10.2811 13.5051 10.0825 13.1888 9.76722V9.76517Z" fill="#3C67FF"/>
</svg>
