<svg width="54" height="34" viewBox="0 0 54 34" fill="none" xmlns="http://www.w3.org/2000/svg">
<g clip-path="url(#clip0_5358_24647)">
<path d="M17.0262 34.0005C7.56761 34.0005 0.000732422 26.4449 0.000732422 17.0005C0.000732422 7.55606 7.56761 0.000488281 17.0262 0.000488281H36.9753C46.4339 0.000488281 54.0007 7.55606 54.0007 17.0005C54.0007 26.4449 46.4339 34.0005 36.9753 34.0005H17.0262ZM36.4593 27.9904C42.6504 27.9904 47.4657 23.0106 47.4657 17.0005C47.4657 10.8187 42.4784 6.01059 36.4593 6.01059H17.5421C11.3511 6.01059 6.53576 10.9904 6.53576 17.0005C6.53576 23.0106 11.523 27.9904 17.5421 27.9904H36.4593Z" fill="#3C67FF"/>
</g>
<defs>
<clipPath id="clip0_5358_24647">
<rect width="54" height="34" fill="white"/>
</clipPath>
</defs>
</svg>
