<svg width="54" height="56" viewBox="0 0 54 56" fill="none" xmlns="http://www.w3.org/2000/svg">
<g clip-path="url(#clip0_5358_24656)">
<path d="M44.6613 14.7252C41.8414 14.3654 39.9969 14.7441 39.2091 15.8864C37.377 18.5309 40.9223 24.9494 42.4417 27.6948C42.8293 28.3954 43.1107 28.9003 43.2357 29.2096C43.3983 29.6072 43.5796 29.9606 43.761 30.2762C44.8677 27.9978 44.5926 25.6879 44.33 23.4474C44.1986 22.3618 44.0673 21.2447 44.1049 20.1655C44.1424 19.061 44.2799 18.1459 44.4112 17.2623C44.5363 16.4292 44.6551 15.6214 44.6613 14.7252ZM42.6105 16.7385C42.4417 16.9152 42.0915 17.2244 41.6163 17.2875L41.4287 17.3002C40.7284 17.3002 40.1219 16.7448 40.0719 16.3913C40.0156 15.9622 40.7159 15.634 41.435 15.533C41.5913 15.5078 41.7539 15.5014 41.9039 15.5014C42.5292 15.5014 42.9419 15.6845 42.9794 15.9811C43.0044 16.1768 42.8606 16.4734 42.6105 16.7385ZM17.0498 33.0531C16.8184 32.8575 16.5934 32.6492 16.3808 32.4283C14.4862 30.4339 13.6234 27.6696 14.0173 24.8421C14.4425 21.7749 14.2861 19.0673 14.1986 17.6094C14.1736 17.2244 14.1611 16.9404 14.1611 16.7385C14.1611 16.7385 14.1611 16.7385 14.1611 16.7321C14.1486 16.3661 13.9798 7.63128 18.9756 2.54439C19.0444 2.47496 19.1194 2.41185 19.1882 2.34874C16.237 1.36418 8.55874 -0.693301 3.90055 2.63906C1.06811 4.66498 -0.232432 8.4265 0.0301777 13.8226C0.117714 15.5267 1.18066 21.5918 3.00642 27.6254C5.11981 34.612 7.52081 39.0173 9.60293 39.7178C9.92807 39.8314 10.9222 40.1596 12.3416 38.4366C14.3424 36.0068 16.2244 33.943 17.0498 33.0531ZM43.142 37.7487C43.317 37.9317 44.1986 38.241 46.0244 38.159C47.6501 38.0895 49.3633 37.7298 50.3887 37.2501C51.7018 36.6316 52.5771 35.9437 53.0336 35.4767L52.7835 35.5208C49.232 36.2593 46.7185 36.1646 45.3179 35.2305C45.2178 35.1611 45.1303 35.0917 45.049 35.0286C44.8989 35.0917 44.7551 35.1295 44.6551 35.1548C43.8548 35.3757 43.0294 35.6092 43.142 37.7487ZM42.0728 5.70634C44.8302 8.95034 46.187 12.5225 46.2933 13.7154C46.312 13.8984 46.2933 14.0435 46.262 14.1698C46.3058 15.4194 46.1495 16.486 45.9931 17.5147C45.8681 18.3478 45.7368 19.2125 45.6993 20.2223C45.668 21.1753 45.7868 22.1851 45.9181 23.258C46.2307 25.8583 46.5684 28.7993 44.7801 31.7593C44.8177 31.8098 44.8614 31.8603 44.8989 31.9108C44.9927 32.0244 45.0803 32.138 45.1616 32.2516C52.102 21.27 54.4904 8.48961 52.3145 5.68109C49.4884 2.02055 45.4867 0.114543 40.4346 0.00725142C38.3337 -0.0369276 36.4767 0.24708 35.1636 0.531088C38.2649 1.86908 40.5346 3.895 42.0728 5.70634ZM44.1611 33.6022C44.0298 33.4002 43.8423 33.1604 43.6422 32.9143C43.0857 32.2137 42.3291 31.2544 41.7414 29.8217C41.6476 29.6009 41.36 29.077 41.0286 28.4774C39.2278 25.2145 35.4762 18.4236 37.8835 14.9524C38.9965 13.343 41.2162 12.7119 44.4925 13.0653C43.5359 10.1053 38.9527 0.846652 28.0794 0.669936C24.8093 0.613134 22.1269 1.62925 20.1136 3.68042C16.8685 6.98753 16.0431 12.2259 15.8368 14.9334C16.0119 14.8325 16.2057 14.7252 16.4245 14.6116C17.2249 14.2013 18.8318 13.4881 20.5888 13.2988C23.4962 12.9959 25.4158 14.3023 25.991 16.9846C27.5417 24.2173 26.1161 27.4171 25.0719 29.7523C24.8781 30.1878 24.6967 30.598 24.5467 30.9956L24.4154 31.3491C24.0902 32.2327 23.7901 33.0468 23.6338 33.7663C23.8464 33.6969 24.059 33.6527 24.2778 33.6527C24.778 33.6527 25.1844 33.8231 25.4533 33.9367C26.3162 34.2964 27.029 35.1674 27.3291 36.2088C27.3916 36.4233 27.4291 36.6316 27.4479 36.8399C27.4541 36.8904 27.4729 36.9282 27.4729 36.9787C27.2666 44.2746 27.5542 50.8825 28.1357 52.3467C29.0423 54.6377 30.4241 56.6447 34.3195 55.799C38.0148 54.9975 39.4029 53.5837 40.0219 49.9737C40.4908 47.2156 41.4225 39.4086 41.5413 37.7992C41.3787 34.4669 43.217 33.8736 44.1611 33.6022ZM17.5437 31.3049C18.7693 32.5987 20.3887 33.3119 22.0456 33.3119H22.0769C22.2645 32.523 22.5709 31.6836 22.9022 30.7874L23.0335 30.4403C23.1961 29.9922 23.3899 29.5567 23.5963 29.0959C24.5967 26.8491 25.8472 24.0469 24.4091 17.338C24.1215 16.0064 23.4337 15.2427 22.2957 14.9839C19.9635 14.4664 16.4933 16.2336 15.7618 16.9341L15.793 17.5147C15.8806 19.0231 16.0494 21.838 15.5992 25.0694C15.2866 27.3919 15.9931 29.6703 17.5437 31.3049ZM21.5642 15.9495C21.7205 15.9495 21.8893 15.9622 22.0519 15.9811C22.4395 16.0379 22.7959 16.1452 23.0586 16.2967C23.515 16.5554 23.5525 16.8458 23.5275 16.9909C23.4712 17.4011 22.821 18.0196 22.0331 18.0196L21.8268 18.007C21.3703 17.9439 20.9139 17.6536 20.6013 17.2371C20.4887 17.0919 20.3137 16.8016 20.3449 16.5491C20.4074 16.1768 20.8576 15.9495 21.5642 15.9495ZM24.8343 35.4388C24.6155 35.3504 24.4404 35.281 24.2716 35.281C24.184 35.281 23.9152 35.281 23.4587 35.7922C23.0773 36.2277 22.8022 36.5811 22.5521 36.8904C21.5017 38.2347 21.0202 38.6891 17.9001 39.3392C17.1373 39.4969 16.7497 39.661 16.5558 39.762C16.7997 39.9514 17.2811 40.2038 17.8251 40.3427C18.6442 40.5509 19.4445 40.6519 20.1949 40.6519C22.4833 40.6519 24.3216 39.6926 25.6596 37.8055C25.941 37.4142 25.8535 36.9156 25.7784 36.6506C25.6221 36.1078 25.2345 35.6029 24.8343 35.4388Z" fill="#3C67FF"/>
</g>
<defs>
<clipPath id="clip0_5358_24656">
<rect width="53.1034" height="56" fill="white"/>
</clipPath>
</defs>
</svg>
