<svg width="46" height="53" viewBox="0 0 46 53" fill="none" xmlns="http://www.w3.org/2000/svg">
<path d="M24.2636 40.3057L24.2312 39.8959C24.1858 39.5942 23.777 36.9152 23.2125 34.7247C22.8491 33.3114 22.5669 32.6622 22.395 32.367C22.2327 32.0916 21.9635 31.6292 22.794 28.5338L23.3033 26.6319L23.3325 26.6811C23.5077 26.1105 23.7056 25.5039 23.9165 24.8677L24.2474 23.8873C25.6489 16.6569 30.0222 7.65901 34.4505 2.90759C34.6484 2.69445 34.8398 2.4977 35.028 2.31079H3.93526C1.77135 2.31079 0 4.0979 0 6.28506V42.2699C0 44.4571 1.77135 46.2442 3.93526 46.2442H24.3837C24.2247 44.2866 24.1825 42.2371 24.2636 40.3057Z" fill="#3C67FF"/>
<path d="M43.7453 1.13037C41.5328 -0.863327 38.8563 -0.0632263 36.2155 2.30756C35.8229 2.65843 35.4304 3.05192 35.0443 3.46837C30.5251 8.31488 26.327 17.2931 25.0261 24.1464C25.5355 25.1859 25.9313 26.5139 26.1908 27.5304C26.2589 27.7895 26.3173 28.0354 26.366 28.242C26.4795 28.7338 26.5412 29.0519 26.5412 29.0519C26.5412 29.0519 26.5022 28.8978 26.3335 28.4092C26.3011 28.3141 26.2654 28.2125 26.2232 28.0944C26.207 28.0452 26.1811 27.9862 26.1551 27.9206C25.8599 27.2287 25.0456 25.7663 24.6855 25.1301C24.3773 26.045 24.108 26.9008 23.8809 27.6747C24.9158 29.5897 25.5484 32.8754 25.5484 32.8754C25.5484 32.8754 25.4933 32.6622 25.2337 31.9211C25.0034 31.2653 23.8517 29.2257 23.5792 28.7502C23.112 30.4914 22.9271 31.6654 23.0958 31.9539C23.4202 32.5081 23.7284 33.4656 24.0009 34.5215C24.6141 36.9054 25.0391 39.8074 25.0391 39.8074C25.0391 39.8074 25.0521 40.0008 25.0748 40.296C24.9904 42.2962 25.0391 44.3719 25.1948 46.2475C25.3992 48.7298 25.7788 50.8645 26.2687 52.0056L26.5996 51.822C25.8826 49.5725 25.5938 46.6246 25.7204 43.2275C25.9118 38.0301 27.0959 31.767 29.2825 25.235C32.9745 15.3748 38.1004 7.46559 42.7883 3.68807C38.5156 7.5902 32.7312 20.218 30.9987 24.894C29.0587 30.1307 27.6864 35.0461 26.8591 39.7516C28.2866 35.338 32.9064 33.4394 32.9064 33.4394C32.9064 33.4394 35.1708 30.6161 37.8214 26.5795C36.2349 26.9467 33.6298 27.5698 32.7604 27.9403C31.4724 28.4846 31.1253 28.6715 31.1253 28.6715C31.1253 28.6715 35.2941 26.1073 38.8693 24.9432C43.7843 17.1193 49.1405 5.99655 43.7453 1.13037Z" fill="#3C67FF"/>
</svg>
