<svg width="60" height="60" viewBox="0 0 60 60" fill="none" xmlns="http://www.w3.org/2000/svg">
<path d="M58.6957 57.3913H57.3913V9.13043C57.3913 8.40978 56.8076 7.82609 56.087 7.82609H45.6522C44.9315 7.82609 44.3478 8.40978 44.3478 9.13043V57.3913H39.1304V19.5652C39.1304 18.8446 38.5467 18.2609 37.8261 18.2609H27.3913C26.6707 18.2609 26.087 18.8446 26.087 19.5652V57.3913H20.8696V30C20.8696 29.2793 20.2859 28.6957 19.5652 28.6957H9.13043C8.40978 28.6957 7.82609 29.2793 7.82609 30V57.3913H2.6087V1.30435C2.6087 0.583696 2.025 0 1.30435 0C0.583696 0 0 0.583696 0 1.30435V58.6957C0 59.4163 0.583696 60 1.30435 60H9.13043H19.5652H27.3913H37.8261H45.6522H56.087H58.6957C59.4163 60 60 59.4163 60 58.6957C60 57.975 59.4163 57.3913 58.6957 57.3913ZM10.4348 31.3043H18.2609V57.3913H10.4348V31.3043ZM28.6957 20.8696H36.5217V57.3913H28.6957V20.8696ZM46.9565 10.4348H54.7826V57.3913H46.9565V10.4348Z" fill="#FB6B1A"/>
</svg>
