<svg width="60" height="60" viewBox="0 0 60 60" fill="none" xmlns="http://www.w3.org/2000/svg">
<path d="M58.6957 57.3913H57.3913H54.7826H46.9565H44.3478H39.1304H36.5217H28.6957H26.087H20.8696H18.2609H10.4348H7.82609H4.04837H2.6087V1.30435C2.6087 0.583696 2.025 0 1.30435 0C0.583696 0 0 0.583696 0 1.30435V58.6957C0 59.4163 0.583696 60 1.30435 60H9.13043H19.5652H27.3913H37.8261H45.6522H56.087H58.6957C59.4163 60 60 59.4163 60 58.6957C60 57.975 59.4163 57.3913 58.6957 57.3913Z" fill="#FB6B1A"/>
<path d="M12.5267 49.193C13.198 49.0345 13.6137 48.3618 13.4552 47.6905C13.2967 47.0192 12.624 46.6036 11.9527 46.7621C11.2815 46.9206 10.8658 47.5932 11.0243 48.2645C11.1828 48.9358 11.8555 49.3515 12.5267 49.193Z" fill="#FB6B1A"/>
<path d="M49.5131 13.1427C50.1843 12.9842 50.6 12.3115 50.4415 11.6402C50.283 10.969 49.6103 10.5533 48.9391 10.7118C48.2678 10.8703 47.8521 11.543 48.0106 12.2142C48.1691 12.8855 48.8418 13.3012 49.5131 13.1427Z" fill="#FB6B1A"/>
<path d="M45.7078 29.0593C43.0469 29.0593 40.8833 26.8941 40.8833 24.2349C40.8833 21.5756 43.0485 19.4104 45.7078 19.4104C48.367 19.4104 50.5322 21.5756 50.5322 24.2349C50.5322 26.8941 48.3686 29.0593 45.7078 29.0593ZM45.7078 22.0175C44.4849 22.0175 43.492 23.012 43.492 24.2332C43.492 25.4544 44.4866 26.449 45.7078 26.449C46.929 26.449 47.9235 25.4544 47.9235 24.2332C47.9235 23.012 46.9306 22.0175 45.7078 22.0175Z" fill="#FB6B1A"/>
<path d="M16.0843 42.5674C13.6485 42.5674 11.6675 40.5864 11.6675 38.1505C11.6675 35.7146 13.6485 33.7336 16.0843 33.7336C18.5202 33.7336 20.5012 35.7146 20.5012 38.1505C20.5012 40.5864 18.5202 42.5674 16.0843 42.5674ZM16.0843 36.3423C15.0865 36.3423 14.2762 37.1543 14.2762 38.1505C14.2762 39.1467 15.0881 39.9587 16.0843 39.9587C17.0805 39.9587 17.8925 39.1467 17.8925 38.1505C17.8925 37.1543 17.0805 36.3423 16.0843 36.3423Z" fill="#FB6B1A"/>
<path d="M29.9997 37.0696C26.1014 37.0696 22.9302 33.8984 22.9302 30C22.9302 26.1016 26.1014 22.9304 29.9997 22.9304C33.8981 22.9304 37.0693 26.1016 37.0693 30C37.0693 33.8984 33.8981 37.0696 29.9997 37.0696ZM29.9997 25.5391C27.5394 25.5391 25.5389 27.5397 25.5389 30C25.5389 32.4603 27.5394 34.4609 29.9997 34.4609C32.4601 34.4609 34.4606 32.4603 34.4606 30C34.4606 27.5397 32.4601 25.5391 29.9997 25.5391Z" fill="#FB6B1A"/>
</svg>
