<svg width="60" height="60" viewBox="0 0 60 60" fill="none" xmlns="http://www.w3.org/2000/svg">
<g clip-path="url(#clip0_1_28035)">
<path d="M34.9766 60H25.0225C24.5349 60 24.0927 59.7009 23.9032 59.2432L0.0943388 1.72175C-0.0644085 1.3384 -0.0239117 0.900529 0.20125 0.553536C0.426412 0.208196 0.807082 0 1.21367 0H58.7839C59.1905 0 59.5711 0.208196 59.7963 0.553536C60.0215 0.898876 60.0619 1.3384 59.9032 1.72009L36.096 59.2432C35.9048 59.7009 35.4642 60 34.9766 60ZM25.8276 57.5215H34.1699L56.9534 2.47852H3.04574L25.8276 57.5215Z" fill="#FB6B1A"/>
<path d="M54.4777 11.5601H5.68555V14.0386H54.4777V11.5601Z" fill="#FB6B1A"/>
<path d="M49.2456 23.0503H10.7559V25.5288H49.2456V23.0503Z" fill="#FB6B1A"/>
<path d="M44.4898 34.5405H15.4844V37.0191H44.4898V34.5405Z" fill="#FB6B1A"/>
<path d="M39.7321 46.031H19.2407V48.5095H39.7321V46.031Z" fill="#FB6B1A"/>
</g>
<defs>
<clipPath id="clip0_1_28035">
<rect width="60" height="60" fill="white"/>
</clipPath>
</defs>
</svg>
