<svg width="61" height="57" viewBox="0 0 61 57" fill="none" xmlns="http://www.w3.org/2000/svg">
<path d="M30 0C13.4581 0 0 13.5229 0 30.1444C0 35.5288 1.43027 40.8141 4.13709 45.4296C6.76464 49.9068 10.5199 53.6509 14.9968 56.2537C15.2751 56.4163 15.6067 56.4602 15.9174 56.3756C16.228 56.2927 16.4934 56.0879 16.6552 55.8066L22.6658 45.345C23.0008 44.763 22.8018 44.0168 22.2225 43.6803C17.4253 40.8921 14.4467 35.7044 14.4467 30.1444C14.4467 26.2735 15.8543 22.7278 18.1825 19.9949L26.2965 28.148C26.3321 28.1838 26.3709 28.2163 26.4098 28.2472C26.1105 28.8162 25.9406 29.4632 25.9406 30.1493C25.9406 32.4009 27.764 34.2315 30.0032 34.2315C32.2425 34.2315 34.0659 32.3993 34.0659 30.1493C34.0659 27.8993 32.2425 26.067 30.0032 26.067C29.3205 26.067 28.6765 26.2378 28.1102 26.5385C28.0795 26.4995 28.0471 26.4605 28.0115 26.4247L19.8975 18.2716C22.6189 15.9322 26.1477 14.5162 30 14.5162C38.5751 14.5162 45.5533 21.5264 45.5533 30.1444C45.5533 35.706 42.5731 40.8921 37.7775 43.6803C37.1983 44.0168 36.9992 44.763 37.3342 45.345L43.3448 55.8066C43.5066 56.0863 43.7704 56.2911 44.0826 56.3756C44.1862 56.4033 44.2913 56.4163 44.3965 56.4163C44.6085 56.4163 44.8172 56.361 45.0049 56.2521C49.4817 53.6493 53.237 49.9068 55.8645 45.4279C58.5714 40.8141 60.0016 35.5288 60.0016 30.1428C60 13.5229 46.5419 0 30 0ZM30.0065 28.5057C30.9093 28.5057 31.6422 29.2437 31.6422 30.1493C31.6422 31.0564 30.9077 31.7929 30.0065 31.7929C29.1053 31.7929 28.3707 31.0548 28.3707 30.1493C28.3691 29.2437 29.1037 28.5057 30.0065 28.5057ZM13.5099 11.85C13.0358 11.3736 12.2673 11.3736 11.7932 11.85C11.3192 12.3263 11.3192 13.0986 11.7932 13.5749L16.4642 18.2684C13.6992 21.4467 12.0214 25.6021 12.0214 30.146C12.0214 36.1661 15.0421 41.8074 19.98 45.1467L15.1747 53.5095C7.28077 48.4372 2.42692 39.5964 2.42692 30.1444C2.42692 15.2754 14.1441 3.10678 28.7865 2.46624V12.1199C24.7401 12.3914 21.0576 14.0138 18.1793 16.5419L13.5099 11.85ZM44.8253 53.5078L40.02 45.1451C44.9579 41.8058 47.9786 36.1645 47.9786 30.1444C47.9786 20.5932 40.562 12.749 31.2118 12.1199V2.46624C45.8543 3.10678 57.5715 15.2754 57.5715 30.1444C57.5731 39.5964 52.7192 48.4372 44.8253 53.5078Z" fill="#FB6B1A"/>
</svg>
