<svg width="60" height="60" viewBox="0 0 60 60" fill="none" xmlns="http://www.w3.org/2000/svg">
<path d="M58.6957 57.3913H2.6087V1.30435C2.6087 0.583696 2.025 0 1.30435 0C0.583696 0 0 0.583696 0 1.30435V58.6957C0 59.4163 0.583696 60 1.30435 60H58.6957C59.4163 60 60 59.4163 60 58.6957C60 57.975 59.4163 57.3913 58.6957 57.3913Z" fill="#FB6B1A"/>
<path d="M36.5218 22.1738V31.3042H27.3913C27.0457 31.3042 26.7131 31.4412 26.4685 31.6857L10.8163 47.3379C10.306 47.8482 10.306 48.6716 10.8163 49.1819C11.0707 49.4379 11.4049 49.5651 11.7392 49.5651C12.0734 49.5651 12.4076 49.4379 12.662 49.1836L27.931 33.9129H37.8261C38.5468 33.9129 39.1305 33.3292 39.1305 32.6086V22.7135L54.7826 7.06128V19.5651C54.7826 20.2857 55.3663 20.8694 56.087 20.8694C56.8076 20.8694 57.3913 20.2857 57.3913 19.5651V3.91291C57.3913 3.74335 57.3555 3.57378 57.2903 3.414C57.1582 3.09606 56.9038 2.84172 56.5843 2.70802C56.4245 2.6428 56.2549 2.60693 56.0854 2.60693H40.4332C39.7125 2.60693 39.1288 3.19063 39.1288 3.91128C39.1288 4.63193 39.7125 5.21563 40.4332 5.21563H52.937L36.9033 21.2493C36.6587 21.4955 36.5218 21.8281 36.5218 22.1738Z" fill="#FB6B1A"/>
</svg>
