<svg width="60" height="60" viewBox="0 0 60 60" fill="none" xmlns="http://www.w3.org/2000/svg">
<path d="M30 0C13.4576 0 0 13.4576 0 30C0 46.5424 13.4576 60 30 60C38.0185 60 45.556 56.881 51.2185 51.2185C56.8794 45.556 60 38.0185 60 30C60 13.4576 46.5424 0 30 0ZM38.2989 38.2989C36.0815 40.5163 33.1337 41.7391 30 41.7391C23.5272 41.7391 18.2609 36.4728 18.2609 30C18.2609 23.5272 23.5272 18.2609 30 18.2609C36.4728 18.2609 41.7391 23.5272 41.7391 30C41.7391 33.1337 40.5163 36.0815 38.2989 38.2989ZM28.6957 2.67554V15.719C21.825 16.3418 16.3402 21.825 15.719 28.6957H2.67554C3.34239 14.6348 14.6348 3.34239 28.6957 2.67554ZM2.67554 31.3043H15.719C16.381 38.6054 22.5293 44.3478 30 44.3478C33.3929 44.3478 36.6033 43.1723 39.1777 41.0201L48.406 50.25C43.3565 54.8478 36.8837 57.3913 30 57.3913C15.3359 57.3913 3.36196 45.8005 2.67554 31.3043ZM50.25 48.406L41.0217 39.1761C43.1723 36.6033 44.3478 33.3929 44.3478 30C44.3478 22.5293 38.6054 16.3793 31.3043 15.719V2.67554C45.7989 3.36196 57.3913 15.3359 57.3913 30C57.3913 36.8837 54.8462 43.3582 50.25 48.406Z" fill="#FB6B1A"/>
</svg>
