<svg width="63" height="60" viewBox="0 0 63 60" fill="none" xmlns="http://www.w3.org/2000/svg">
<path d="M59.7969 18.9801L35.3828 1.31709C32.954 -0.439029 29.6911 -0.439029 27.264 1.31709L2.84994 18.9801C0.421152 20.7362 -0.586864 23.8256 0.340988 26.6686L9.66556 55.2471C10.5934 58.0902 13.232 59.9991 16.2339 59.9991H46.4112C49.4131 59.9991 52.0517 58.0902 52.9795 55.2471L62.3041 26.6686C63.2337 23.8256 62.2256 20.7362 59.7969 18.9801ZM58.2925 21.0403C58.8417 21.4377 59.2749 21.9455 59.5785 22.5144L53.8852 23.7441C53.0495 22.1136 51.3473 20.9927 49.3875 20.9927C48.3846 20.9927 47.4499 21.2865 46.6637 21.7909L35.8535 13.5012C35.961 13.0953 36.0172 12.669 36.0172 12.2291C36.0172 9.99915 34.5504 8.10377 32.5259 7.4482L32.5838 2.73522C33.0392 2.87279 33.4776 3.08509 33.8784 3.37551L58.2925 21.0403ZM23.2746 46.9183C23.0512 46.3765 22.7357 45.8806 22.3468 45.4526L30.9925 32.2936L34.8523 37.9288C34.0797 38.812 33.6106 39.9652 33.6106 41.2254C33.6106 41.7689 33.6993 42.292 33.8596 42.7828L23.2746 46.9183ZM30.9686 9.92272C32.2478 9.92272 33.2866 10.9587 33.2866 12.2308C33.2866 13.5029 32.2461 14.5389 30.9686 14.5389C29.6911 14.5389 28.6507 13.5029 28.6507 12.2308C28.6507 10.9587 29.6911 9.92272 30.9686 9.92272ZM34.5777 15.7413L44.9256 23.6761C44.5845 24.3181 44.3781 25.0399 44.3457 25.8076L32.2683 28.418L32.4082 17.0491C33.2422 16.8011 33.9841 16.3443 34.5777 15.7413ZM28.5177 16.6228C28.9304 16.8521 29.3773 17.0253 29.8498 17.1323L29.7116 28.4078L25.9678 27.5518C25.9268 26.2101 25.3572 24.9991 24.4566 24.1211L28.5177 16.6228ZM23.2405 27.7047C23.2405 28.9784 22.2001 30.0127 20.9226 30.0127C19.6451 30.0127 18.6047 28.9767 18.6047 27.7047C18.6047 26.4326 19.6451 25.3966 20.9226 25.3966C22.2001 25.3966 23.2405 26.4309 23.2405 27.7047ZM20.9226 32.7301C22.8619 32.7301 24.5487 31.6347 25.393 30.0331L28.8929 30.833L20.2045 44.0566C19.7594 43.9088 19.2886 43.8188 18.7991 43.8001L20.8748 32.7284C20.8919 32.7301 20.9072 32.7301 20.9226 32.7301ZM16.285 48.8222C16.285 47.5484 17.3255 46.5141 18.603 46.5141C19.8805 46.5141 20.9209 47.5501 20.9209 48.8222C20.9209 50.0943 19.8805 51.1303 18.603 51.1303C17.3255 51.1303 16.285 50.0943 16.285 48.8222ZM38.6558 38.9156C39.935 38.9156 40.9737 39.9516 40.9737 41.2237C40.9737 42.4958 39.9333 43.5318 38.6558 43.5318C37.3783 43.5318 36.3379 42.4958 36.3379 41.2237C36.3379 39.9516 37.3783 38.9156 38.6558 38.9156ZM41.6543 37.1833C40.8151 36.565 39.7781 36.1982 38.6558 36.1982C38.0623 36.1982 37.4909 36.3018 36.9621 36.4903L33.0955 30.8449L44.8881 28.2957C45.306 29.1092 45.9388 29.797 46.7114 30.2794L41.6543 37.1833ZM49.3875 28.3297C48.1083 28.3297 47.0696 27.2936 47.0696 26.0216C47.0696 24.7495 48.11 23.7135 49.3875 23.7135C50.665 23.7135 51.7054 24.7495 51.7054 26.0216C51.7054 27.2936 50.6667 28.3297 49.3875 28.3297ZM4.35258 21.0403L28.7667 3.37721C29.1573 3.09528 29.5837 2.88468 30.0254 2.74711L29.9691 7.30384C27.6632 7.76749 25.9217 9.80044 25.9217 12.2308C25.9217 13.1564 26.1759 14.0226 26.6142 14.7682L22.2342 22.8524C21.8146 22.7403 21.3763 22.6792 20.9209 22.6792C18.9816 22.6792 17.2948 23.7746 16.4505 25.3762L3.16548 22.3395C3.46225 21.8402 3.86137 21.3969 4.35258 21.0403ZM2.77319 25.8806C2.65891 25.529 2.59239 25.1707 2.57022 24.8157L15.8791 27.8575C15.9337 29.6493 16.9349 31.2084 18.4 32.0542L16.0701 44.4761C14.5675 45.3473 13.5561 46.9676 13.5561 48.8205C13.5561 50.1163 14.0507 51.2984 14.8608 52.19L12.6453 55.563C12.4167 55.2284 12.2291 54.8599 12.0995 54.4591L2.77319 25.8806ZM16.2339 57.4516C15.6812 57.4516 15.1491 57.3463 14.6562 57.1561L17.0014 53.5878C17.5045 53.7559 18.0435 53.8494 18.603 53.8494C21.146 53.8494 23.2542 51.9676 23.6004 49.5287L35.2838 44.9635C36.1776 45.7651 37.3613 46.2525 38.6558 46.2525C39.2494 46.2525 39.819 46.1489 40.3495 45.9604L48.0111 57.1476C47.5131 57.3429 46.9724 57.4516 46.4112 57.4516H16.2339ZM50.5473 54.4591C50.4194 54.8514 50.2369 55.2148 50.0135 55.5443L42.4627 44.5202C43.2354 43.6371 43.7044 42.4839 43.7044 41.2237C43.7044 40.5256 43.5612 39.8616 43.3019 39.257L49.321 31.0436C49.3432 31.0436 49.3653 31.0453 49.3892 31.0453C52.1011 31.0453 54.3184 28.9054 54.431 26.2322L60.0578 25.0161C60.0254 25.3049 59.9674 25.5936 59.8736 25.8789L50.5473 54.4591Z" fill="#FB6B1A"/>
</svg>
