<svg width="60" height="60" viewBox="0 0 60 60" fill="none" xmlns="http://www.w3.org/2000/svg">
<path d="M58.7738 27.0589C59.4507 27.0589 60 26.5095 60 25.8327V1.22616C60 0.549319 59.4507 0 58.7738 0C58.097 0 57.5477 0.549319 57.5477 1.22616V3.40218H2.50463C2.48665 3.40218 2.4703 3.40381 2.45232 3.40545V1.22616C2.45232 0.549319 1.903 0 1.22616 0C0.549319 0 0 0.549319 0 1.22616V58.7738C0 59.4507 0.549319 60 1.22616 60C1.903 60 2.45232 59.4507 2.45232 58.7738V53.2054C9.23869 52.9063 15.5771 50.1204 20.4114 45.2861L29.8905 35.8071L34.7673 42.0589C37.2589 45.2534 42.2403 47.2365 47.7695 47.2365H57.5477V57.8289C57.5477 58.5057 58.097 59.055 58.7738 59.055C59.4507 59.055 60 58.5057 60 57.8289V34.1918C60 33.515 59.4507 32.9657 58.7738 32.9657C58.097 32.9657 57.5477 33.515 57.5477 34.1918V44.7842H47.7695C43.0512 44.7842 38.7057 43.1215 36.6997 40.5499L31.6365 34.0594L37.7183 27.9777C42.3793 23.3166 48.5771 20.7482 55.1706 20.7482H57.5477V25.8294C57.5477 26.5095 58.097 27.0589 58.7738 27.0589ZM2.50463 5.8545H57.5477V10.7902H54.9711C47.9068 10.7902 41.2676 13.6169 36.2763 18.7488L27.0752 28.2098L23.2692 23.3313C20.7777 20.1384 15.7962 18.1537 10.267 18.1537H2.45232V5.85286C2.4703 5.85286 2.48665 5.8545 2.50463 5.8545ZM2.45232 20.606H10.2654C14.9837 20.606 19.3275 22.2687 21.3351 24.8403L25.3488 29.9853L19.442 36.0589C14.9166 40.7133 8.90027 43.2752 2.50463 43.2752C2.48665 43.2752 2.4703 43.2768 2.45232 43.2785V20.606ZM18.6785 43.5531C14.3068 47.9248 8.58474 50.4539 2.45232 50.7515V45.7242C2.4703 45.7242 2.48665 45.7275 2.50463 45.7275C9.56894 45.7275 16.2082 42.9008 21.1995 37.7689L26.8708 31.939L28.37 33.8616L18.6785 43.5531ZM55.1722 18.2975C47.9248 18.2975 41.1106 21.1193 35.9869 26.2447L30.1193 32.1123L28.5989 30.1619L38.0354 20.4589C42.5591 15.806 48.5755 13.2425 54.9711 13.2425H57.5477V18.2975H55.1722Z" fill="#FB6B1A"/>
</svg>
