<svg width="60" height="60" viewBox="0 0 60 60" fill="none" xmlns="http://www.w3.org/2000/svg">
<path d="M58.7738 0H1.22616C0.549319 0 0 0.549319 0 1.22616V58.7738C0 59.4507 0.549319 60 1.22616 60H58.7738C59.4507 60 60 59.4507 60 58.7738V1.22616C60 0.549319 59.4507 0 58.7738 0ZM57.5477 2.45232V14.3869H2.45232V2.45232H57.5477ZM21.6965 43.1608V31.2262H38.3738V43.1608H21.6965ZM38.3738 45.6131V57.5477H21.6965V45.6131H38.3738ZM38.3738 16.8392V28.7738H21.6965V16.8392H38.3738ZM19.2441 28.7738H2.45232V16.8392H19.2441V28.7738ZM19.2441 31.2262V43.1608H2.45232V31.2262H19.2441ZM40.8262 31.2262H57.5477V43.1608H40.8262V31.2262ZM40.8262 28.7738V16.8392H57.5477V28.7738H40.8262ZM2.45232 45.6131H19.2441V57.5477H2.45232V45.6131ZM40.8262 57.5477V45.6131H57.5477V57.5477H40.8262Z" fill="#FB6B1A"/>
</svg>
