<svg width="60" height="60" viewBox="0 0 60 60" fill="none" xmlns="http://www.w3.org/2000/svg">
<path d="M58.7738 0H1.22616C0.549319 0 0 0.549319 0 1.22616V58.7738C0 59.4507 0.549319 60 1.22616 60H58.7738C59.4507 60 60 59.4507 60 58.7738V1.22616C60 0.549319 59.4507 0 58.7738 0ZM38.2381 39.1733H21.7226V22.3815H38.2381V39.1733ZM21.7226 41.6256H38.2381V57.5477H21.7226V41.6256ZM40.6905 34.5646H48.0441V57.5477H40.6905V34.5646ZM40.6905 32.1123V22.3815H57.5477V32.1123H40.6905ZM57.5477 19.9292H50.4965V2.50954H48.0441V19.9292H21.7226V2.45232H57.5477V19.9292ZM2.45232 2.45232H19.2703V57.5477H2.45232V2.45232ZM50.4965 57.5477V34.5646H57.5477V57.5477H50.4965Z" fill="#FB6B1A"/>
</svg>
