<svg width="20" height="20" viewBox="0 0 20 20" fill="none" xmlns="http://www.w3.org/2000/svg">
<g clip-path="url(#clip0_421_8041)">
<path d="M7.448 11.8828C7.448 11.5594 7.1855 11.2969 6.86206 11.2969H3.09644C2.773 11.2969 2.5105 11.5594 2.5105 11.8828V17.6563H7.448V11.8828Z" fill="#C7C7C7"/>
<path d="M19.4141 5.64851H15.6484C15.325 5.64851 15.0625 5.91101 15.0625 6.23445V17.6563H19.4141C19.6198 17.6563 19.8167 17.6923 20 17.7568V6.23445C20 5.91101 19.7375 5.64851 19.4141 5.64851Z" fill="#C7C7C7"/>
<path d="M13.7239 0.585968C13.7239 0.262531 13.4614 3.05176e-05 13.1379 3.05176e-05H9.37231C9.04888 3.05176e-05 8.78638 0.262531 8.78638 0.585968V17.6563H13.7239V0.585968Z" fill="#C7C7C7"/>
<path d="M19.4141 18.8282H1.17188V0.585968C1.17188 0.262531 0.909375 3.05176e-05 0.585938 3.05176e-05C0.261979 3.05176e-05 0 0.262531 0 0.585968V19.4141C0 19.7375 0.261979 20 0.585938 20H19.4141C19.7375 20 20 19.7375 20 19.4141C20 19.0907 19.7375 18.8282 19.4141 18.8282Z" fill="#C7C7C7"/>
</g>
<defs>
<clipPath id="clip0_421_8041">
<rect width="20" height="20" fill="white"/>
</clipPath>
</defs>
</svg>
