<svg width="20" height="20" viewBox="0 0 20 20" fill="none" xmlns="http://www.w3.org/2000/svg">
<g clip-path="url(#clip0_421_9421)">
<path d="M4.35164 17.4896C5.36675 17.4896 6.19279 16.6636 6.19279 15.6485C6.19279 14.6334 5.36675 13.8074 4.35164 13.8074C3.33654 13.8074 2.5105 14.6334 2.5105 15.6485C2.5105 16.6636 3.33654 17.4896 4.35164 17.4896Z" fill="#C7C7C7"/>
<path d="M18.1588 3.68232C19.1739 3.68232 19.9999 2.85628 19.9999 1.84118C19.9999 0.826072 19.1739 3.05176e-05 18.1588 3.05176e-05C17.1437 3.05176e-05 16.3176 0.826072 16.3176 1.84118C16.3176 2.85628 17.1437 3.68232 18.1588 3.68232Z" fill="#C7C7C7"/>
<path d="M6.23445 12.4688C7.24955 12.4688 8.07559 11.6428 8.07559 10.6277C8.07559 9.61257 7.24955 8.78653 6.23445 8.78653C5.21935 8.78653 4.39331 9.61257 4.39331 10.6277C4.39331 11.6428 5.21935 12.4688 6.23445 12.4688Z" fill="#C7C7C7"/>
<path d="M16.276 8.70314C17.2911 8.70314 18.1171 7.8771 18.1171 6.86199C18.1171 5.84689 17.2911 5.02084 16.276 5.02084C15.2609 5.02084 14.4348 5.84689 14.4348 6.86199C14.4348 7.8771 15.2609 8.70314 16.276 8.70314Z" fill="#C7C7C7"/>
<path d="M11.2552 10.5859C12.2703 10.5859 13.0964 9.75987 13.0964 8.74477C13.0964 7.72967 12.2708 6.90363 11.2552 6.90363C10.2401 6.90363 9.41406 7.72967 9.41406 8.74477C9.41406 9.75987 10.2401 10.5859 11.2552 10.5859Z" fill="#C7C7C7"/>
<path d="M19.4141 18.8282H1.17188V0.585968C1.17188 0.262531 0.909375 3.05176e-05 0.585938 3.05176e-05C0.261979 3.05176e-05 0 0.262531 0 0.585968V19.4141C0 19.7375 0.261979 20 0.585938 20H19.4141C19.7375 20 20 19.7375 20 19.4141C20 19.0907 19.7375 18.8282 19.4141 18.8282Z" fill="#C7C7C7"/>
</g>
<defs>
<clipPath id="clip0_421_9421">
<rect width="20" height="20" fill="white"/>
</clipPath>
</defs>
</svg>
