<svg width="22" height="20" viewBox="0 0 22 20" fill="none" xmlns="http://www.w3.org/2000/svg">
<g clip-path="url(#clip0_421_5173)">
<path d="M15.2975 12.9273L17.1927 9.51222H4.80737L6.70258 12.9273H15.2975Z" fill="#C7C7C7"/>
<path d="M7.44678 14.2683L10.442 19.6651C10.5571 19.8725 10.7697 20 11 20C11.2303 20 11.4429 19.8725 11.558 19.6651L14.5532 14.2683H7.44678Z" fill="#C7C7C7"/>
<path d="M2.16797 4.75607L4.06318 8.17116H17.9369L19.8321 4.75607H2.16797Z" fill="#C7C7C7"/>
<path d="M1.4238 3.41511H20.5764L21.9136 1.00608C22.0287 0.798671 22.0287 0.542987 21.9136 0.335579C21.799 0.127575 21.5859 3.05176e-05 21.3556 3.05176e-05H0.644632C0.41432 3.05176e-05 0.201768 0.127575 0.0866113 0.334983C-0.0285449 0.542391 -0.0285449 0.798075 0.0866113 1.00548L1.4238 3.41511Z" fill="#C7C7C7"/>
</g>
<defs>
<clipPath id="clip0_421_5173">
<rect width="22" height="20" fill="white"/>
</clipPath>
</defs>
</svg>
