<svg width="22" height="19" viewBox="0 0 22 19" fill="none" xmlns="http://www.w3.org/2000/svg">
<g clip-path="url(#clip0_421_5160)">
<path d="M10.3554 3.05176e-05C7.87065 0.142845 5.5406 1.10928 3.68091 2.76856L6.55695 5.64778C7.63919 4.74558 8.95346 4.20071 10.3548 4.07224V3.05176e-05H10.3554Z" fill="#C7C7C7"/>
<path d="M5.64544 6.56031L2.76939 3.68109C1.1108 5.54169 0.143717 7.87489 0.000488281 10.363H4.06877C4.19768 8.95947 4.74309 7.64375 5.64544 6.56031Z" fill="#C7C7C7"/>
<path d="M17.9312 10.363H21.9994C21.8562 7.87489 20.8891 5.54226 19.2305 3.68109L16.3545 6.56031C17.2568 7.64375 17.8023 8.95947 17.9312 10.363Z" fill="#C7C7C7"/>
<path d="M17.9306 11.6534C17.8401 12.6468 17.5571 13.4762 17.2219 14.1409C17.5491 14.6456 17.8212 15.0718 18.0011 15.3551C18.4915 16.1265 18.3827 17.1165 17.737 17.7629C17.58 17.9195 17.4012 18.0462 17.207 18.1397L17.8768 18.8102C18.0028 18.9364 18.1684 18.9994 18.3334 18.9994C18.4984 18.9994 18.664 18.9364 18.79 18.8102C20.7202 16.8779 21.8459 14.3566 22.0001 11.6528H17.9306V11.6534Z" fill="#C7C7C7"/>
<path d="M4.06943 11.6535H0C0.154115 14.3572 1.2799 16.8785 3.21005 18.8108C3.33609 18.937 3.50167 19.0001 3.66667 19.0001C3.83167 19.0001 3.99724 18.937 4.12328 18.8108L6.07865 16.8527C6.33073 16.6003 6.33073 16.1908 6.07865 15.9385C5.56818 15.4274 4.28255 13.9976 4.06943 11.6535Z" fill="#C7C7C7"/>
<path d="M18.319 2.76856C16.4588 1.10928 14.1293 0.142845 11.6445 3.05176e-05V4.07224C13.0459 4.20014 14.3602 4.74558 15.4424 5.64778L18.319 2.76856Z" fill="#C7C7C7"/>
<path d="M12.4322 9.58515C11.6427 8.7948 10.3577 8.7948 9.56818 9.58515C8.7787 10.3755 8.7787 11.662 9.56818 12.4523C10.5656 13.4509 15.4681 16.5848 16.0238 16.9386C16.2788 17.1009 16.6122 17.0648 16.8259 16.8503C17.0396 16.6364 17.0763 16.3026 16.9141 16.0473C16.5601 15.4916 13.4296 10.5837 12.4322 9.58515Z" fill="#C7C7C7"/>
</g>
<defs>
<clipPath id="clip0_421_5160">
<rect width="22" height="19" fill="white"/>
</clipPath>
</defs>
</svg>
