<svg width="20" height="20" viewBox="0 0 20 20" fill="none" xmlns="http://www.w3.org/2000/svg">
<path d="M19.4141 18.8281H1.17188V0.585938C1.17188 0.2625 0.909375 0 0.585938 0C0.261979 0 0 0.2625 0 0.585938V19.4141C0 19.7375 0.261979 20 0.585938 20H19.4141C19.7375 20 20 19.7375 20 19.4141C20 19.0906 19.7375 18.8281 19.4141 18.8281Z" fill="#C7C7C7"/>
<path d="M6.23438 11.2135C7.24948 11.2135 8.07552 10.3875 8.07552 9.37238C8.07552 8.98488 7.95469 8.62551 7.75 8.32864L11.3047 3.58906C11.487 3.64947 11.6813 3.68281 11.8828 3.68281C12.4828 3.68281 13.0161 3.39427 13.3526 2.94895L15.6906 3.72812C15.6927 4.74166 16.5177 5.5651 17.5318 5.5651C18.5469 5.5651 19.3729 4.73906 19.3729 3.72395C19.3729 2.70885 18.5469 1.88281 17.5318 1.88281C16.9318 1.88281 16.3984 2.17135 16.062 2.61666L13.724 1.83698C13.7219 0.823957 12.8969 0 11.8828 0C10.8677 0 10.0417 0.826041 10.0417 1.84114C10.0417 2.22864 10.162 2.58802 10.3672 2.88489L6.8125 7.62447C6.63073 7.56405 6.43646 7.53124 6.23438 7.53124C5.42396 7.53124 4.7349 8.05728 4.48958 8.78645H2.34375V9.95832H4.48906C4.7349 10.687 5.42396 11.2135 6.23438 11.2135Z" fill="#C7C7C7"/>
<path d="M6.23438 17.4894C7.24948 17.4894 8.07552 16.6633 8.07552 15.6482C8.07552 15.354 8.00573 15.0758 7.88229 14.829L11.063 11.6482C11.3099 11.7717 11.588 11.8415 11.8823 11.8415C12.1766 11.8415 12.4547 11.7717 12.7021 11.6482L15.8828 14.829C15.7594 15.0758 15.6896 15.3545 15.6896 15.6482C15.6896 16.6633 16.5156 17.4894 17.5307 17.4894C18.5458 17.4894 19.3719 16.6633 19.3719 15.6482C19.3719 14.6331 18.5458 13.8071 17.5307 13.8071C17.2365 13.8071 16.9583 13.8769 16.7115 14.0003L13.5307 10.8196C13.6542 10.5727 13.724 10.2946 13.724 10.0003C13.724 8.98522 12.8979 8.15918 11.8828 8.15918C10.8677 8.15918 10.0417 8.98522 10.0417 10.0003C10.0417 10.2946 10.1115 10.5727 10.2349 10.8196L7.05417 14.0003C6.80729 13.8769 6.52917 13.8071 6.23438 13.8071C5.42396 13.8071 4.7349 14.3337 4.48958 15.0623H2.34375V16.2342H4.48906C4.7349 16.9628 5.42396 17.4894 6.23438 17.4894Z" fill="#C7C7C7"/>
</svg>
