<svg width="20" height="20" viewBox="0 0 20 20" fill="none" xmlns="http://www.w3.org/2000/svg">
<path d="M17.225 12.7031H9.29736L14.9021 18.3078C15.15 18.5552 15.5604 18.5333 15.776 18.2573C16.889 16.8328 17.5869 15.1495 17.8073 13.3573C17.85 13.0089 17.5755 12.7031 17.225 12.7031Z" fill="#C7C7C7"/>
<path d="M7.46879 12.531C7.35889 12.4211 7.29691 12.2721 7.29691 12.1164V4.91432C7.29691 4.55547 6.9766 4.27786 6.62243 4.33515C2.86514 4.9414 -0.0119419 8.21276 3.72706e-05 12.1409C0.0130581 16.4617 3.5417 19.9888 7.86254 19.9997C9.54795 20.0039 11.1542 19.482 12.4938 18.5112C12.7849 18.3003 12.8157 17.8779 12.562 17.6242L7.46879 12.531Z" fill="#C7C7C7"/>
<path d="M19.9969 10.8858C19.4172 5.15404 14.8458 0.582688 9.11406 0.0030009C8.76823 -0.0318949 8.46875 0.242063 8.46875 0.589459V11.5311H19.4104C19.7583 11.5311 20.0318 11.2316 19.9969 10.8858Z" fill="#C7C7C7"/>
</svg>
