<svg width="20" height="20" viewBox="0 0 20 20" fill="none" xmlns="http://www.w3.org/2000/svg">
<g clip-path="url(#clip0_421_8052)">
<path d="M19.7583 7.2875L10.3442 0.117422C10.139 -0.0387339 9.8609 -0.0387339 9.65517 0.117422L0.24163 7.2875C0.0359012 7.44366 -0.0495155 7.72103 0.0286095 7.97437L3.62496 19.5752C3.70361 19.828 3.92861 19.9995 4.18226 19.9995H15.8177C16.0718 19.9995 16.2963 19.828 16.375 19.5752L19.9713 7.97382C20.0494 7.72103 19.9635 7.44366 19.7583 7.2875ZM18.1515 7.61237L15.6494 8.54112L10.625 2.71693V1.84934L18.139 7.57251L18.1515 7.61237ZM1.86142 7.57197L9.37496 1.84934V2.70328L4.08225 8.40844L1.86142 7.57197ZM9.37496 4.58261V10.4019L5.37444 8.89493L9.37496 4.58261ZM8.98538 11.6479L5.94059 15.834L5.10413 10.1857L8.98538 11.6479ZM9.99944 12.4144L11.8078 14.9037L7.18538 16.284L9.99944 12.4144ZM5.91923 18.0246L12.6213 16.0235L14.6177 18.7715H5.37601L5.91923 18.0246ZM11.0161 11.6511L14.2703 10.4428L12.7031 13.9733L11.0161 11.6511ZM10.625 10.4063V4.67052L14.3729 9.01505L10.625 10.4063ZM1.52913 8.83924L3.76455 9.68117L4.88955 17.2788L4.36767 17.9962L1.52913 8.83924ZM15.6302 18.0022L13.5588 15.151L15.9208 9.82968L18.4546 8.88892L15.6302 18.0022Z" fill="#C7C7C7"/>
</g>
<defs>
<clipPath id="clip0_421_8052">
<rect width="20" height="20" fill="white"/>
</clipPath>
</defs>
</svg>
