<svg width="36" height="36" viewBox="0 0 36 36" fill="none" xmlns="http://www.w3.org/2000/svg">
<g clip-path="url(#clip0)">
<path d="M31.856 7.68432C31.8559 7.49785 31.7818 7.31904 31.65 7.18721L24.6595 0.196738C24.5277 0.0648676 24.3488 -0.00923752 24.1624 -0.00927734H4.86722C4.68074 -0.00927734 4.5019 0.0648017 4.37003 0.196663C4.23817 0.328525 4.16409 0.507367 4.16409 0.693848V35.2876C4.16409 35.4741 4.23817 35.6529 4.37003 35.7848C4.5019 35.9166 4.68074 35.9907 4.86722 35.9907H31.1528C31.3393 35.9907 31.5182 35.9166 31.65 35.7848C31.7819 35.6529 31.856 35.4741 31.856 35.2876V7.68432Z" fill="#F1F1F1"/>
<path d="M31.8329 7.50924C31.8022 7.38733 31.739 7.27603 31.6501 7.18721L24.6596 0.196738C24.5278 0.0648676 24.349 -0.00923752 24.1625 -0.00927734V6.66478C24.1625 6.88856 24.2514 7.10317 24.4096 7.2614C24.5679 7.41964 24.7825 7.50853 25.0062 7.50853L31.8329 7.50924Z" fill="#C7C7C7"/>
<path d="M31.8323 7.5094H25.0063C24.7825 7.5094 24.5679 7.4205 24.4097 7.26227C24.2515 7.10404 24.1626 6.88943 24.1626 6.66565V7.37932C24.1626 7.84549 24.4522 8.43401 25.033 8.43401H31.8533V7.68448C31.8578 7.6253 31.8507 7.56582 31.8323 7.5094Z" fill="#E4E4E4"/>
<path d="M4.16297 15.1411L2.26383 17.0459H4.16297V15.1411Z" fill="#09A46C"/>
<path d="M31.8322 15.1411L33.732 17.0459H31.8322V15.1411Z" fill="#09A46C"/>
<path d="M33.1955 28.9807H2.805C2.61852 28.9807 2.43968 28.9066 2.30782 28.7747C2.17595 28.6429 2.10188 28.464 2.10188 28.2776V17.4958C2.10188 17.3094 2.17595 17.1305 2.30782 16.9987C2.43968 16.8668 2.61852 16.7927 2.805 16.7927H33.1955C33.3819 16.7927 33.5608 16.8668 33.6926 16.9987C33.8245 17.1305 33.8986 17.3094 33.8986 17.4958V28.2769C33.8987 28.3693 33.8806 28.4608 33.8453 28.5461C33.81 28.6315 33.7582 28.7091 33.6929 28.7745C33.6276 28.8399 33.5501 28.8917 33.4647 28.9271C33.3793 28.9625 33.2879 28.9807 33.1955 28.9807Z" fill="#0ABB7B"/>
<path d="M4.16318 28.9808H31.8558V29.8928H4.16318V28.9808Z" fill="#E4E4E4"/>
<path d="M10.7649 25.6114C10.7105 25.5518 10.6688 25.4819 10.6422 25.4057C10.6156 25.3296 10.6047 25.2489 10.6102 25.1684V21.4046C10.601 21.3239 10.6101 21.2421 10.6369 21.1654C10.6637 21.0887 10.7075 21.0191 10.7649 20.9616C10.8223 20.9042 10.892 20.8604 10.9687 20.8337C11.0454 20.8069 11.1271 20.7977 11.2079 20.8069H12.6289C13.1773 20.8069 13.6498 20.9065 14.0464 21.1058C14.4303 21.2921 14.749 21.5901 14.9604 21.9608C15.1714 22.3315 15.2768 22.7724 15.2768 23.2833C15.2768 23.7943 15.1726 24.2396 14.964 24.6193C14.7566 24.9907 14.4395 25.2891 14.0562 25.4736C13.6597 25.6705 13.1848 25.7691 12.6317 25.7696H11.2079C11.1272 25.7746 11.0463 25.7631 10.9702 25.7359C10.894 25.7087 10.8242 25.6664 10.7649 25.6114ZM12.5375 24.7255C13.0208 24.7255 13.3831 24.6069 13.6245 24.3697C13.8659 24.1325 13.9866 23.7704 13.9866 23.2833C13.9866 22.7954 13.8659 22.4342 13.6245 22.1998C13.3831 21.9655 13.0208 21.8483 12.5375 21.8483H11.9047V24.7255H12.5375Z" fill="white"/>
<path d="M17.1644 25.7728C16.7961 25.5691 16.4964 25.2608 16.3031 24.8869C16.1035 24.4658 16 24.0057 16 23.5397C16 23.0737 16.1035 22.6136 16.3031 22.1925C16.4958 21.8189 16.7957 21.5114 17.1644 21.3094C17.5743 21.1059 18.0258 21 18.4835 21C18.9411 21 19.3926 21.1059 19.8025 21.3094C20.1706 21.5117 20.4694 21.8199 20.6603 22.1939C20.8683 22.6115 20.9715 23.0734 20.9613 23.5397C20.9726 24.0068 20.8687 24.4695 20.6589 24.8869C20.4651 25.2607 20.1652 25.5689 19.7969 25.7728C19.389 25.979 18.9384 26.0865 18.4813 26.0865C18.0243 26.0865 17.5737 25.979 17.1658 25.7728H17.1644ZM19.3631 24.6971C19.574 24.4317 19.6795 24.046 19.6795 23.5397C19.6795 23.0335 19.5728 22.6489 19.3595 22.3859C19.1458 22.1229 18.8538 21.9917 18.4835 21.9921C18.1131 21.9926 17.8202 22.1227 17.6045 22.3824C17.3931 22.6425 17.2874 23.0283 17.2874 23.5397C17.2874 24.0511 17.3931 24.4381 17.6045 24.7006C17.8155 24.9631 18.1085 25.0943 18.4835 25.0943C18.8585 25.0943 19.1521 24.9619 19.3631 24.6971Z" fill="white"/>
<path d="M22.6918 25.5235C22.3221 25.3205 22.0211 25.0121 21.827 24.6376C21.6252 24.2172 21.5204 23.7568 21.5204 23.2904C21.5204 22.8241 21.6252 22.3637 21.827 21.9432C22.0213 21.5686 22.3222 21.2601 22.6918 21.0566C23.1428 20.8285 23.6459 20.7233 24.1504 20.7517C24.6549 20.7801 25.143 20.9411 25.5655 21.2183C25.6364 21.2649 25.6954 21.3276 25.7378 21.4011C25.7758 21.4801 25.7939 21.5673 25.7905 21.6549C25.7944 21.7887 25.7508 21.9194 25.6675 22.0241C25.6329 22.0708 25.5879 22.1089 25.536 22.1351C25.4841 22.1614 25.4268 22.1751 25.3686 22.1753C25.304 22.1762 25.2397 22.1655 25.1788 22.1436C25.11 22.1161 25.0441 22.082 24.9819 22.0417C24.8368 21.952 24.6809 21.8811 24.5179 21.8307C24.3714 21.7884 24.2196 21.7671 24.0672 21.7674C23.65 21.7674 23.3394 21.8928 23.1355 22.1436C22.9316 22.3944 22.8294 22.7755 22.829 23.2869C22.829 23.8025 22.9311 24.186 23.1355 24.4372C23.3399 24.6885 23.6504 24.8138 24.0672 24.8134C24.2063 24.8124 24.3443 24.7887 24.4757 24.7431C24.6065 24.6962 24.7752 24.6271 24.9819 24.5356C25.0527 24.4968 25.1255 24.4616 25.1999 24.4302C25.2538 24.4101 25.3111 24.4006 25.3686 24.4021C25.4268 24.402 25.4842 24.4157 25.5361 24.442C25.588 24.4682 25.633 24.5063 25.6675 24.5532C25.7511 24.6577 25.7947 24.7886 25.7905 24.9224C25.7932 25.0086 25.7751 25.0942 25.7378 25.172C25.6964 25.2472 25.6373 25.3111 25.5655 25.3583C25.1432 25.636 24.6551 25.7972 24.1504 25.8256C23.6458 25.854 23.1426 25.7486 22.6918 25.52V25.5235Z" fill="white"/>
</g>
<defs>
<clipPath id="clip0">
<rect width="36" height="36" fill="white"/>
</clipPath>
</defs>
</svg>
