<svg width="36" height="36" viewBox="0 0 36 36" fill="none" xmlns="http://www.w3.org/2000/svg">
<g clip-path="url(#clip0)">
<path d="M4.16321 15.1412L2.26406 17.046H4.16321V15.1412Z" fill="#09A46C"/>
<path d="M31.8326 15.1412L33.7324 17.046H31.8326V15.1412Z" fill="#09A46C"/>
<path d="M31.8558 7.68432C31.8557 7.49785 31.7816 7.31904 31.6498 7.18721L24.6593 0.196738C24.5275 0.0648676 24.3487 -0.00923752 24.1622 -0.00927734H4.86703C4.68055 -0.00927734 4.50171 0.0648017 4.36985 0.196663C4.23799 0.328525 4.16391 0.507367 4.16391 0.693848V35.2876C4.16391 35.4741 4.23799 35.6529 4.36985 35.7848C4.50171 35.9166 4.68055 35.9907 4.86703 35.9907H31.1527C31.3391 35.9907 31.518 35.9166 31.6498 35.7848C31.7817 35.6529 31.8558 35.4741 31.8558 35.2876V7.68432Z" fill="#F1F1F1"/>
<path d="M31.8326 7.50924C31.8019 7.38733 31.7387 7.27603 31.6498 7.18721L24.6593 0.196738C24.5275 0.0648676 24.3487 -0.00923752 24.1622 -0.00927734V6.66478C24.1622 6.88856 24.2511 7.10317 24.4093 7.26141C24.5676 7.41964 24.7822 7.50853 25.0059 7.50853L31.8326 7.50924Z" fill="#C7C7C7"/>
<path d="M31.8326 7.50952H25.0066C24.7828 7.50952 24.5682 7.42063 24.41 7.26239C24.2518 7.10416 24.1629 6.88955 24.1629 6.66577V7.37944C24.1629 7.84561 24.4525 8.43413 25.0333 8.43413H31.8536V7.6846C31.8581 7.62542 31.851 7.56594 31.8326 7.50952Z" fill="#E4E4E4"/>
<path d="M33.1952 28.9807H2.80476C2.61828 28.9807 2.43944 28.9066 2.30758 28.7747C2.17572 28.6429 2.10164 28.464 2.10164 28.2776V17.4958C2.10164 17.3094 2.17572 17.1305 2.30758 16.9987C2.43944 16.8668 2.61828 16.7927 2.80476 16.7927H33.1952C33.3817 16.7927 33.5606 16.8668 33.6924 16.9987C33.8243 17.1305 33.8984 17.3094 33.8984 17.4958V28.2769C33.8985 28.3692 33.8803 28.4608 33.8451 28.5461C33.8098 28.6315 33.758 28.7091 33.6927 28.7745C33.6274 28.8399 33.5498 28.8917 33.4645 28.9271C33.3791 28.9625 33.2876 28.9807 33.1952 28.9807Z" fill="#0ABB7B"/>
<path d="M4.16321 28.9808H31.8558V29.8928H4.16321V28.9808Z" fill="#E4E4E4"/>
<path d="M8.40092 25.6113C8.34656 25.5517 8.30482 25.4818 8.27823 25.4056C8.25165 25.3295 8.24076 25.2488 8.24624 25.1683V21.4045C8.23704 21.3238 8.24617 21.242 8.27296 21.1653C8.29974 21.0886 8.34348 21.019 8.40093 20.9615C8.45837 20.9041 8.52804 20.8603 8.60473 20.8335C8.68143 20.8068 8.76318 20.7976 8.84389 20.8068H10.2656C10.815 20.8068 11.2875 20.9064 11.6831 21.1056C12.0671 21.2919 12.3857 21.59 12.5972 21.9606C12.8081 22.3314 12.9136 22.7723 12.9136 23.2832C12.9136 23.7942 12.8093 24.2395 12.6007 24.6192C12.3933 24.9906 12.0763 25.289 11.693 25.4735C11.2973 25.6703 10.8225 25.7688 10.2684 25.7688H8.84389C8.76325 25.7738 8.68244 25.7624 8.60631 25.7353C8.53019 25.7082 8.46032 25.666 8.40092 25.6113ZM10.1735 24.7253C10.6568 24.7253 11.0191 24.6067 11.2605 24.3696C11.5019 24.1324 11.6226 23.7703 11.6226 23.2832C11.6226 22.7953 11.5019 22.4341 11.2605 22.1997C11.0191 21.9653 10.6568 21.8481 10.1735 21.8481H9.54069V24.7253H10.1735Z" fill="white"/>
<path d="M14.722 25.5165C14.3535 25.3128 14.0536 25.0045 13.86 24.6306C13.6609 24.2093 13.5577 23.7492 13.5577 23.2834C13.5577 22.8175 13.6609 22.3574 13.86 21.9362C14.0531 21.5626 14.3532 21.2551 14.722 21.0531C15.1319 20.8495 15.5834 20.7437 16.0411 20.7437C16.4987 20.7437 16.9502 20.8495 17.3601 21.0531C17.7284 21.255 18.0273 21.5633 18.2179 21.9376C18.4154 22.3594 18.5174 22.8195 18.5168 23.2852C18.5162 23.7509 18.413 24.2107 18.2144 24.632C18.0209 25.0059 17.7209 25.3142 17.3524 25.5179C16.9446 25.7241 16.4941 25.8315 16.0372 25.8315C15.5803 25.8315 15.1298 25.7241 14.722 25.5179V25.5165ZM16.92 24.4407C17.1309 24.1754 17.2364 23.7896 17.2364 23.2834C17.2364 22.7771 17.1297 22.3925 16.9165 22.1295C16.7036 21.8666 16.4119 21.7353 16.0411 21.7358C15.6703 21.7363 15.3771 21.8663 15.1615 22.126C14.9505 22.3862 14.8451 22.772 14.8451 23.2834C14.8451 23.7948 14.9505 24.1817 15.1615 24.4442C15.3724 24.7067 15.6656 24.838 16.0411 24.838C16.4165 24.838 16.7095 24.7056 16.92 24.4407Z" fill="white"/>
<path d="M20.3288 25.5234C19.9587 25.3206 19.6573 25.0122 19.4632 24.6375C19.2619 24.2169 19.1573 23.7565 19.1573 23.2903C19.1573 22.824 19.2619 22.3637 19.4632 21.9431C19.6575 21.5683 19.9588 21.2597 20.3288 21.0565C20.7797 20.8284 21.2828 20.7232 21.7873 20.7516C22.2918 20.78 22.7799 20.9409 23.2024 21.2182C23.2732 21.265 23.3321 21.3276 23.3747 21.401C23.4126 21.4798 23.4308 21.5667 23.4274 21.6541C23.4312 21.788 23.3876 21.919 23.3044 22.024C23.2696 22.0707 23.2245 22.1087 23.1725 22.1349C23.1205 22.1612 23.0631 22.1749 23.0049 22.1751C22.9402 22.1761 22.8759 22.1654 22.815 22.1435C22.7462 22.116 22.6803 22.0819 22.6181 22.0415C22.4731 21.9516 22.3172 21.8807 22.1541 21.8306C22.0078 21.7883 21.8563 21.767 21.7041 21.7673C21.2864 21.7673 20.9756 21.8927 20.7717 22.1435C20.5678 22.3943 20.4659 22.7754 20.4659 23.2868C20.4659 23.8024 20.5678 24.1858 20.7717 24.4371C20.9756 24.6883 21.2864 24.8137 21.7041 24.8132C21.8429 24.8123 21.9807 24.7886 22.1119 24.7429C22.2434 24.6986 22.4121 24.629 22.6181 24.5355C22.7166 24.4835 22.7897 24.4483 22.8361 24.4293C22.8902 24.4099 22.9474 24.4006 23.0049 24.4019C23.0631 24.4019 23.1206 24.4156 23.1726 24.4419C23.2246 24.4681 23.2698 24.5062 23.3044 24.5531C23.3876 24.6578 23.4312 24.7885 23.4274 24.9222C23.4301 25.0084 23.412 25.094 23.3747 25.1718C23.3331 25.2469 23.274 25.3108 23.2024 25.3582C22.7416 25.6759 22.1927 25.841 21.6331 25.83C21.1792 25.8414 20.73 25.7358 20.3288 25.5234Z" fill="white"/>
<path d="M28.1686 25.2175C28.1691 25.297 28.1528 25.3757 28.1206 25.4484C28.0885 25.5211 28.0414 25.5862 27.9823 25.6394C27.9276 25.6962 27.8621 25.7414 27.7896 25.7723C27.7171 25.8032 27.6392 25.8192 27.5604 25.8194C27.4776 25.8188 27.3961 25.7995 27.3218 25.763C27.2475 25.7264 27.1825 25.6736 27.1315 25.6084L25.9214 24.1593L24.6937 25.6042C24.6437 25.6687 24.5798 25.7211 24.5068 25.7576C24.4338 25.7941 24.3535 25.8138 24.2719 25.8152C24.1928 25.8148 24.1146 25.7983 24.0421 25.7668C23.9695 25.7352 23.9042 25.6893 23.85 25.6317C23.7914 25.5781 23.7446 25.5129 23.7125 25.4403C23.6804 25.3677 23.6638 25.2892 23.6637 25.2098C23.6654 25.0695 23.7178 24.9346 23.8113 24.8301L25.162 23.2684L23.8465 21.742C23.7505 21.6381 23.6956 21.5029 23.6918 21.3616C23.6918 21.2827 23.7084 21.2046 23.7405 21.1326C23.7726 21.0605 23.8195 20.996 23.8781 20.9432C23.9337 20.8866 24 20.8415 24.0732 20.8108C24.1463 20.78 24.2249 20.7641 24.3042 20.7639C24.3869 20.7648 24.4684 20.7842 24.5426 20.8207C24.6168 20.8572 24.6819 20.9099 24.7331 20.9749L25.9221 22.3811L27.1041 20.9749C27.1517 20.9095 27.2141 20.8563 27.2862 20.8196C27.3583 20.7829 27.438 20.7639 27.5189 20.7639C27.5982 20.7641 27.6766 20.78 27.7496 20.8108C27.8227 20.8416 27.8888 20.8866 27.9443 20.9432C28.0029 20.996 28.0499 21.0605 28.082 21.1326C28.1141 21.2046 28.1306 21.2827 28.1306 21.3616C28.129 21.5021 28.0766 21.6372 27.983 21.742L26.6674 23.2684L28.0111 24.8301C28.1106 24.9347 28.1668 25.0731 28.1686 25.2175Z" fill="white"/>
</g>
<defs>
<clipPath id="clip0">
<rect width="36" height="36" fill="white"/>
</clipPath>
</defs>
</svg>
