<svg width="36" height="36" viewBox="0 0 36 36" fill="none" xmlns="http://www.w3.org/2000/svg">
<g clip-path="url(#clip0)">
<path d="M31.8557 7.68432C31.8556 7.49785 31.7815 7.31904 31.6496 7.18721L24.6592 0.196738C24.5273 0.0648676 24.3485 -0.00923752 24.1621 -0.00927734H4.8669C4.68042 -0.00927734 4.50158 0.0648017 4.36972 0.196663C4.23786 0.328525 4.16378 0.507367 4.16378 0.693848V35.2876C4.16378 35.4741 4.23786 35.6529 4.36972 35.7848C4.50158 35.9166 4.68042 35.9907 4.8669 35.9907H31.1525C31.339 35.9907 31.5178 35.9166 31.6497 35.7848C31.7816 35.6529 31.8557 35.4741 31.8557 35.2876V7.68432Z" fill="#F1F1F1"/>
<path d="M31.8325 7.50924C31.8018 7.38733 31.7387 7.27603 31.6497 7.18721L24.6592 0.196738C24.5274 0.0648676 24.3486 -0.00923752 24.1621 -0.00927734V6.66478C24.1621 6.88856 24.251 7.10317 24.4093 7.26141C24.5675 7.41964 24.7821 7.50853 25.0059 7.50853L31.8325 7.50924Z" fill="#C7C7C7"/>
<path d="M31.8326 7.5094H25.0067C24.7829 7.5094 24.5683 7.4205 24.41 7.26227C24.2518 7.10404 24.1629 6.88943 24.1629 6.66565V7.37932C24.1629 7.84549 24.4526 8.43401 25.0334 8.43401H31.8537V7.68448C31.8582 7.6253 31.851 7.56582 31.8326 7.5094Z" fill="#E4E4E4"/>
<path d="M4.16304 15.141L2.2639 17.0458H4.16304V15.141Z" fill="#A80005"/>
<path d="M31.8326 15.141L33.7324 17.0458H31.8326V15.141Z" fill="#A80005"/>
<path d="M33.1952 28.9807H2.8047C2.61821 28.9807 2.43937 28.9066 2.30751 28.7747C2.17565 28.6429 2.10157 28.464 2.10157 28.2776V17.4958C2.10157 17.3094 2.17565 17.1305 2.30751 16.9987C2.43937 16.8668 2.61821 16.7927 2.8047 16.7927H33.1952C33.3816 16.7927 33.5605 16.8668 33.6923 16.9987C33.8242 17.1305 33.8983 17.3094 33.8983 17.4958V28.2769C33.8984 28.3693 33.8803 28.4608 33.845 28.5461C33.8097 28.6315 33.7579 28.7091 33.6926 28.7745C33.6273 28.8399 33.5497 28.8917 33.4644 28.9271C33.379 28.9625 33.2876 28.9807 33.1952 28.9807Z" fill="#E00007"/>
<path d="M4.16323 28.9808H31.8558V29.8928H4.16323V28.9808Z" fill="#E4E4E4"/>
<path d="M11.5525 25.6361C11.4937 25.5739 11.448 25.5003 11.4184 25.42C11.3888 25.3396 11.3758 25.2541 11.3803 25.1685V21.4047C11.371 21.3239 11.3802 21.2421 11.407 21.1653C11.4338 21.0886 11.4776 21.0189 11.5352 20.9614C11.5927 20.9039 11.6625 20.8602 11.7392 20.8335C11.816 20.8068 11.8979 20.7977 11.9786 20.807H13.7814C14.3299 20.807 14.7567 20.9465 15.0618 21.2254C15.367 21.5043 15.5193 21.8924 15.5189 22.3898C15.5189 22.8819 15.3653 23.2689 15.0583 23.5506C14.7513 23.8323 14.3257 23.973 13.7814 23.9725H12.6747V25.1678C12.6792 25.2537 12.6659 25.3395 12.6357 25.42C12.6054 25.5004 12.5589 25.5738 12.4989 25.6354C12.4349 25.6947 12.3595 25.7406 12.2774 25.7703C12.1953 25.8 12.108 25.813 12.0208 25.8084C11.9352 25.8129 11.8495 25.7999 11.769 25.7703C11.6885 25.7407 11.6148 25.695 11.5525 25.6361ZM13.6035 23.0022C13.8426 23.0022 14.0198 22.9523 14.1344 22.8538C14.249 22.7554 14.3067 22.6035 14.3067 22.3968C14.3067 21.989 14.0723 21.7851 13.6035 21.7851H12.6747V23.0022H13.6035Z" fill="white"/>
<path d="M16.2978 25.6114C16.2435 25.5518 16.2017 25.4819 16.1752 25.4057C16.1486 25.3296 16.1377 25.2489 16.1432 25.1684V21.4046C16.134 21.3239 16.1431 21.2421 16.1699 21.1654C16.1967 21.0887 16.2404 21.0191 16.2978 20.9616C16.3553 20.9042 16.425 20.8604 16.5017 20.8337C16.5783 20.8069 16.6601 20.7977 16.7408 20.8069H18.1618C18.7103 20.8069 19.1828 20.9065 19.5793 21.1058C19.9633 21.2921 20.2819 21.5901 20.4934 21.9608C20.7043 22.3315 20.8098 22.7724 20.8098 23.2833C20.8098 23.7943 20.7055 24.2396 20.4969 24.6193C20.2895 24.9907 19.9725 25.2891 19.5892 25.4736C19.1926 25.6705 18.7178 25.7691 18.1646 25.7696H16.7408C16.6601 25.7746 16.5793 25.7631 16.5031 25.7359C16.427 25.7087 16.3571 25.6663 16.2978 25.6114ZM18.0704 24.7255C18.5537 24.7255 18.916 24.6069 19.1574 24.3697C19.3989 24.1325 19.5196 23.7704 19.5196 23.2833C19.5196 22.7954 19.3989 22.4342 19.1574 22.1998C18.916 21.9655 18.5537 21.8483 18.0704 21.8483H17.4376V24.7255H18.0704Z" fill="white"/>
<path d="M21.757 25.6325C21.6975 25.5713 21.6511 25.4985 21.6208 25.4187C21.5904 25.3389 21.5767 25.2537 21.5805 25.1684V21.4046C21.5714 21.3238 21.5807 21.2421 21.6075 21.1654C21.6344 21.0887 21.6782 21.019 21.7357 20.9616C21.7932 20.9042 21.8629 20.8605 21.9396 20.8337C22.0164 20.8069 22.0981 20.7977 22.1789 20.8069H24.5428C24.7537 20.8069 24.9084 20.8479 25.0068 20.93C25.1053 21.012 25.1545 21.1421 25.1545 21.3202C25.1545 21.4936 25.1041 21.6204 25.0033 21.7006C24.9028 21.78 24.7488 21.8201 24.5428 21.8201H22.8518V22.7342H24.3986C24.6049 22.7342 24.7584 22.7764 24.8592 22.8608C24.96 22.9451 25.0104 23.0743 25.0104 23.2482C25.0104 23.4221 24.96 23.5486 24.8592 23.6279C24.7584 23.7071 24.6049 23.7469 24.3986 23.7474H22.8518V25.1719C22.8562 25.2575 22.8432 25.343 22.8136 25.4234C22.784 25.5038 22.7384 25.5773 22.6795 25.6395C22.5514 25.7516 22.3868 25.8131 22.2165 25.8125C22.0463 25.8118 21.8821 25.7491 21.7549 25.636L21.757 25.6325Z" fill="white"/>
</g>
<defs>
<clipPath id="clip0">
<rect width="36" height="36" fill="white"/>
</clipPath>
</defs>
</svg>
