<svg width="36" height="36" viewBox="0 0 36 36" fill="none" xmlns="http://www.w3.org/2000/svg">
<g clip-path="url(#clip0)">
<path d="M31.8556 7.68432C31.8556 7.49785 31.7815 7.31904 31.6496 7.18721L24.6592 0.196738C24.5273 0.0648676 24.3485 -0.00923752 24.1621 -0.00927734H4.8669C4.68042 -0.00927734 4.50157 0.0648017 4.36971 0.196663C4.23785 0.328525 4.16377 0.507367 4.16377 0.693848V35.2876C4.16377 35.4741 4.23785 35.6529 4.36971 35.7848C4.50157 35.9166 4.68042 35.9907 4.8669 35.9907H31.1525C31.339 35.9907 31.5178 35.9166 31.6497 35.7848C31.7816 35.6529 31.8556 35.4741 31.8556 35.2876V7.68432Z" fill="#F1F1F1"/>
<path d="M31.8325 7.50924C31.8019 7.38733 31.7387 7.27603 31.6497 7.18721L24.6592 0.196738C24.5274 0.0648676 24.3486 -0.00923752 24.1621 -0.00927734V6.66478C24.1621 6.88856 24.251 7.10317 24.4093 7.26141C24.5675 7.41964 24.7821 7.50853 25.0059 7.50853L31.8325 7.50924Z" fill="#C7C7C7"/>
<path d="M31.8326 7.5094H25.0067C24.7829 7.5094 24.5683 7.4205 24.41 7.26227C24.2518 7.10404 24.1629 6.88943 24.1629 6.66565V7.37932C24.1629 7.84549 24.4526 8.43401 25.0334 8.43401H31.8537V7.68448C31.8582 7.6253 31.851 7.56582 31.8326 7.5094Z" fill="#E4E4E4"/>
<path d="M4.16304 15.141L2.2639 17.0458H4.16304V15.141Z" fill="#00840D"/>
<path d="M31.8326 15.141L33.7324 17.0458H31.8326V15.141Z" fill="#00840D"/>
<path d="M33.1952 28.9807H2.8047C2.61821 28.9807 2.43937 28.9066 2.30751 28.7747C2.17565 28.6429 2.10157 28.464 2.10157 28.2776V17.4958C2.10157 17.3094 2.17565 17.1305 2.30751 16.9987C2.43937 16.8668 2.61821 16.7927 2.8047 16.7927H33.1952C33.3816 16.7927 33.5605 16.8668 33.6923 16.9987C33.8242 17.1305 33.8983 17.3094 33.8983 17.4958V28.2769C33.8984 28.3693 33.8803 28.4608 33.845 28.5461C33.8097 28.6315 33.7579 28.7091 33.6926 28.7745C33.6273 28.8399 33.5497 28.8917 33.4644 28.9271C33.379 28.9625 33.2876 28.9807 33.1952 28.9807Z" fill="#00B012"/>
<path d="M4.16324 28.9808H31.8558V29.8928H4.16324V28.9808Z" fill="#E4E4E4"/>
<path d="M15.9954 25.2177C15.9958 25.2972 15.9794 25.376 15.9471 25.4487C15.9149 25.5214 15.8676 25.5865 15.8083 25.6396C15.7537 25.6964 15.6882 25.7416 15.6157 25.7725C15.5433 25.8034 15.4653 25.8194 15.3865 25.8196C15.3037 25.8188 15.2222 25.7995 15.148 25.763C15.0737 25.7265 15.0086 25.6737 14.9576 25.6086L13.7475 24.1595L12.5163 25.6086C12.4663 25.6731 12.4024 25.7256 12.3294 25.7621C12.2564 25.7986 12.1761 25.8182 12.0944 25.8196C12.0154 25.8191 11.9372 25.8026 11.8647 25.7711C11.7922 25.7395 11.7268 25.6936 11.6726 25.636C11.6173 25.586 11.5725 25.5256 11.5406 25.4582C11.5088 25.3908 11.4905 25.3177 11.4869 25.2433C11.4833 25.1688 11.4945 25.0944 11.5197 25.0242C11.5449 24.9541 11.5837 24.8896 11.6339 24.8345L12.9846 23.2728L11.6691 21.7464C11.5734 21.6423 11.5185 21.5073 11.5144 21.366C11.5143 21.2871 11.5309 21.209 11.563 21.137C11.5951 21.0649 11.642 21.0004 11.7007 20.9476C11.7563 20.891 11.8226 20.8459 11.8957 20.8151C11.9689 20.7844 12.0474 20.7684 12.1268 20.7683C12.2095 20.7691 12.291 20.7885 12.3652 20.825C12.4395 20.8615 12.5046 20.9142 12.5557 20.9792L13.7447 22.3855L14.9266 20.9792C14.9743 20.9139 15.0367 20.8607 15.1088 20.8241C15.1809 20.7874 15.2606 20.7683 15.3415 20.7683C15.4207 20.7684 15.4992 20.7843 15.5722 20.8151C15.6453 20.8459 15.7115 20.8909 15.7669 20.9476C15.8255 21.0004 15.8724 21.0649 15.9045 21.137C15.9366 21.209 15.9532 21.2871 15.9532 21.366C15.9519 21.5065 15.8994 21.6418 15.8055 21.7464L14.4907 23.2728L15.8337 24.8345C15.9337 24.9375 15.9914 25.0742 15.9954 25.2177Z" fill="white"/>
<path d="M16.7619 25.6115C16.6585 25.5089 16.6072 25.3584 16.6072 25.1615V21.4047C16.6032 21.3203 16.6165 21.2359 16.6461 21.1568C16.6757 21.0776 16.7211 21.0053 16.7795 20.9442C16.8417 20.8853 16.9152 20.8397 16.9956 20.8101C17.0759 20.7805 17.1615 20.7675 17.247 20.7719C17.3343 20.7673 17.4216 20.7801 17.5038 20.8097C17.5861 20.8393 17.6615 20.885 17.7259 20.9442C17.7852 21.0048 17.8314 21.0769 17.8617 21.1562C17.8919 21.2354 17.9055 21.32 17.9016 21.4047V24.7185H19.5188C19.9267 24.7185 20.1308 24.8943 20.1313 25.2459C20.1313 25.4245 20.0806 25.5553 19.9794 25.6396C19.8781 25.724 19.7256 25.7669 19.5188 25.7669H17.2048C17.1244 25.7721 17.0436 25.7611 16.9675 25.7344C16.8914 25.7077 16.8215 25.6659 16.7619 25.6115Z" fill="white"/>
<path d="M21.3941 25.7064C21.1113 25.642 20.8428 25.5264 20.6016 25.3653C20.5311 25.3153 20.4723 25.2506 20.4294 25.1755C20.3912 25.0967 20.3731 25.0098 20.3766 24.9224C20.3743 24.7894 20.4191 24.6598 20.5032 24.5567C20.537 24.5098 20.5813 24.4714 20.6326 24.4445C20.6838 24.4177 20.7407 24.4031 20.7985 24.4021C20.8582 24.4017 20.9176 24.4112 20.9743 24.4302C21.0484 24.4572 21.1191 24.4926 21.1852 24.5356C21.3653 24.6383 21.5582 24.7163 21.759 24.7677C21.9698 24.817 22.1858 24.8406 22.4023 24.838C22.6794 24.838 22.8889 24.7972 23.0351 24.7149C23.1015 24.6809 23.1568 24.6287 23.1948 24.5645C23.2327 24.5003 23.2517 24.4267 23.2496 24.3521C23.2496 24.2448 23.1828 24.1522 23.0492 24.0744C22.9156 23.9966 22.6611 23.9204 22.2856 23.8459C21.9085 23.7761 21.542 23.6579 21.1951 23.4943C20.9326 23.3579 20.7486 23.1974 20.6431 23.0127C20.5229 22.7785 20.4694 22.5157 20.4886 22.2531C20.5079 21.9905 20.599 21.7383 20.7521 21.5242C20.9419 21.2724 21.1949 21.0754 21.4855 20.9532C21.8182 20.8092 22.1776 20.7373 22.5401 20.7423C22.8485 20.7379 23.1561 20.7758 23.4542 20.8548C23.7168 20.9279 23.9644 21.0469 24.1855 21.2063C24.2597 21.2559 24.3213 21.3221 24.3655 21.3997C24.4028 21.4777 24.4209 21.5636 24.4182 21.65C24.4207 21.7824 24.3772 21.9116 24.2951 22.0156C24.262 22.0626 24.2183 22.1012 24.1674 22.128C24.1166 22.1549 24.0601 22.1694 24.0026 22.1703C23.9455 22.1707 23.8886 22.1625 23.8339 22.1457C23.7575 22.1173 23.6845 22.0808 23.6159 22.0367C23.5927 22.0227 23.5252 21.9861 23.4155 21.9277C23.2932 21.8645 23.1632 21.8172 23.0288 21.7871C22.8706 21.7508 22.7088 21.7331 22.5465 21.7344C22.3452 21.7249 22.1454 21.7724 21.9699 21.8715C21.9043 21.9066 21.8494 21.9588 21.8111 22.0225C21.7727 22.0863 21.7523 22.1592 21.7519 22.2336C21.7484 22.3136 21.7761 22.3918 21.8293 22.4516C21.9123 22.5269 22.0106 22.5833 22.1176 22.6168C22.3216 22.6879 22.5308 22.7432 22.7433 22.782C23.1118 22.8525 23.4692 22.9721 23.8058 23.1378C24.0294 23.2452 24.2193 23.4118 24.3549 23.6195C24.4663 23.8165 24.5221 24.0401 24.5166 24.2663C24.5215 24.5608 24.4299 24.8487 24.2558 25.0862C24.0691 25.3333 23.817 25.5233 23.528 25.6346C23.182 25.7703 22.8126 25.8362 22.441 25.8287C22.0883 25.832 21.7365 25.7909 21.3941 25.7064Z" fill="white"/>
</g>
<defs>
<clipPath id="clip0">
<rect width="36" height="36" fill="white"/>
</clipPath>
</defs>
</svg>
