<svg width="36" height="36" viewBox="0 0 36 36" fill="none" xmlns="http://www.w3.org/2000/svg">
<g clip-path="url(#clip0)">
<path d="M4.16304 15.141L2.2639 17.0458H4.16304V15.141Z" fill="#1A1A1A"/>
<path d="M31.8326 15.141L33.7324 17.0458H31.8326V15.141Z" fill="#1A1A1A"/>
<path d="M31.8556 7.68432C31.8556 7.49785 31.7815 7.31904 31.6496 7.18721L24.6592 0.196738C24.5273 0.0648676 24.3485 -0.00923752 24.1621 -0.00927734H4.8669C4.68042 -0.00927734 4.50157 0.0648017 4.36971 0.196663C4.23785 0.328525 4.16377 0.507367 4.16377 0.693848V35.2876C4.16377 35.4741 4.23785 35.6529 4.36971 35.7848C4.50157 35.9166 4.68042 35.9907 4.8669 35.9907H31.1525C31.339 35.9907 31.5178 35.9166 31.6497 35.7848C31.7816 35.6529 31.8556 35.4741 31.8556 35.2876V7.68432Z" fill="#F1F1F1"/>
<path d="M31.8325 7.50924C31.8019 7.38733 31.7387 7.27603 31.6497 7.18721L24.6592 0.196738C24.5274 0.0648676 24.3486 -0.00923752 24.1621 -0.00927734V6.66478C24.1621 6.88856 24.251 7.10317 24.4093 7.26141C24.5675 7.41964 24.7821 7.50853 25.0059 7.50853L31.8325 7.50924Z" fill="#C7C7C7"/>
<path d="M31.8326 7.5094H25.0067C24.7829 7.5094 24.5683 7.4205 24.41 7.26227C24.2518 7.10404 24.1629 6.88943 24.1629 6.66565V7.37932C24.1629 7.84549 24.4526 8.43401 25.0334 8.43401H31.8537V7.68448C31.8582 7.6253 31.851 7.56582 31.8326 7.5094Z" fill="#E4E4E4"/>
<path d="M33.1952 28.9807H2.8047C2.61822 28.9807 2.43938 28.9066 2.30752 28.7747C2.17566 28.6429 2.10158 28.464 2.10158 28.2776V17.4958C2.10158 17.3094 2.17566 17.1305 2.30752 16.9987C2.43938 16.8668 2.61822 16.7927 2.8047 16.7927H33.1952C33.3816 16.7927 33.5605 16.8668 33.6924 16.9987C33.8242 17.1305 33.8983 17.3094 33.8983 17.4958V28.2769C33.8984 28.3693 33.8803 28.4608 33.845 28.5461C33.8097 28.6315 33.7579 28.7091 33.6926 28.7745C33.6273 28.8399 33.5498 28.8917 33.4644 28.9271C33.3791 28.9625 33.2876 28.9807 33.1952 28.9807Z" fill="#656565"/>
<path d="M4.16324 28.9808H31.8558V29.8928H4.16324V28.9808Z" fill="#E4E4E4"/>
<path d="M12.9522 25.6288C12.8918 25.5689 12.8446 25.4969 12.8137 25.4176C12.7828 25.3382 12.7689 25.2533 12.7729 25.1682V21.8551H11.7815C11.5748 21.8551 11.4215 21.8115 11.3203 21.725C11.219 21.6386 11.1691 21.5057 11.1691 21.3271C11.1691 21.1485 11.2197 21.0177 11.3203 20.9333C11.4208 20.8489 11.5748 20.8068 11.7815 20.8068H15.0736C15.2796 20.8068 15.4336 20.8489 15.5341 20.9333C15.6347 21.0177 15.6853 21.1492 15.6853 21.3271C15.6853 21.505 15.6354 21.6379 15.5341 21.725C15.4329 21.8122 15.2796 21.8551 15.0736 21.8551H14.0815V25.1718C14.0855 25.2568 14.0716 25.3417 14.0407 25.4211C14.0098 25.5004 13.9626 25.5724 13.9022 25.6323C13.7691 25.7441 13.601 25.8054 13.4272 25.8054C13.2534 25.8054 13.0853 25.7441 12.9522 25.6323V25.6288Z" fill="white"/>
<path d="M20.3147 25.2175C20.3153 25.297 20.2989 25.3757 20.2668 25.4484C20.2347 25.5211 20.1875 25.5862 20.1284 25.6394C20.0737 25.6961 20.0082 25.7413 19.9357 25.7722C19.8633 25.8031 19.7853 25.8191 19.7065 25.8194C19.6238 25.8187 19.5423 25.7993 19.468 25.7628C19.3938 25.7263 19.3287 25.6735 19.2776 25.6084L18.0704 24.1551L16.8392 25.6042C16.7892 25.6687 16.7253 25.7212 16.6523 25.7577C16.5792 25.7942 16.499 25.8139 16.4173 25.8152C16.3382 25.8147 16.2601 25.7982 16.1876 25.7667C16.115 25.7351 16.0497 25.6892 15.9954 25.6317C15.9402 25.5816 15.8954 25.5212 15.8635 25.4538C15.8316 25.3864 15.8134 25.3134 15.8098 25.2389C15.8062 25.1644 15.8173 25.09 15.8426 25.0198C15.8678 24.9497 15.9066 24.8852 15.9568 24.8301L17.3075 23.2684L15.9926 21.742C15.8965 21.6382 15.8413 21.503 15.8372 21.3616C15.8372 21.2827 15.8538 21.2046 15.8859 21.1326C15.918 21.0605 15.9649 20.996 16.0236 20.9432C16.0792 20.8866 16.1455 20.8415 16.2186 20.8108C16.2918 20.78 16.3703 20.7641 16.4497 20.7639C16.5324 20.7647 16.6139 20.7841 16.6881 20.8206C16.7623 20.8571 16.8274 20.9098 16.8786 20.9749L18.0676 22.3811L19.2495 20.9749C19.2971 20.9095 19.3596 20.8563 19.4316 20.8197C19.5037 20.783 19.5835 20.7639 19.6643 20.7639C19.7437 20.7641 19.8223 20.78 19.8954 20.8108C19.9686 20.8415 20.0349 20.8866 20.0904 20.9432C20.1491 20.996 20.196 21.0605 20.2281 21.1326C20.2602 21.2046 20.2768 21.2827 20.2768 21.3616C20.2752 21.5021 20.2227 21.6372 20.1291 21.742L18.8136 23.2684L20.1565 24.8301C20.2562 24.9347 20.3127 25.073 20.3147 25.2175Z" fill="white"/>
<path d="M22.2242 25.6288C22.1638 25.5689 22.1166 25.4969 22.0857 25.4176C22.0548 25.3382 22.0409 25.2533 22.0449 25.1682V21.8551H21.0528C20.8468 21.8551 20.6928 21.8115 20.5923 21.725C20.4917 21.6386 20.4411 21.5057 20.4411 21.3271C20.4411 21.1485 20.491 21.0177 20.5923 20.9333C20.6935 20.8489 20.8468 20.8068 21.0528 20.8068H24.3456C24.5514 20.8068 24.7049 20.8489 24.8061 20.9333C24.9074 21.0177 24.9578 21.1489 24.9573 21.3271C24.9573 21.5057 24.9067 21.6379 24.8061 21.725C24.7056 21.8122 24.5516 21.8551 24.3456 21.8551H23.3535V25.1718C23.3575 25.2568 23.3436 25.3417 23.3127 25.4211C23.2818 25.5004 23.2346 25.5724 23.1742 25.6323C23.0411 25.7441 22.873 25.8054 22.6992 25.8054C22.5255 25.8054 22.3573 25.7441 22.2242 25.6323V25.6288Z" fill="white"/>
</g>
<defs>
<clipPath id="clip0">
<rect width="36" height="36" fill="white"/>
</clipPath>
</defs>
</svg>
