<svg width="36" height="36" viewBox="0 0 36 36" fill="none" xmlns="http://www.w3.org/2000/svg">
<g clip-path="url(#clip0)">
<path d="M31.8558 7.68432C31.8558 7.49785 31.7817 7.31904 31.6498 7.18721L24.6593 0.196738C24.5275 0.0648676 24.3487 -0.00923752 24.1622 -0.00927734H4.86707C4.68059 -0.00927734 4.50174 0.0648017 4.36988 0.196663C4.23802 0.328525 4.16394 0.507367 4.16394 0.693848V35.2876C4.16394 35.4741 4.23802 35.6529 4.36988 35.7848C4.50174 35.9166 4.68059 35.9907 4.86707 35.9907H31.1527C31.3392 35.9907 31.518 35.9166 31.6499 35.7848C31.7817 35.6529 31.8558 35.4741 31.8558 35.2876V7.68432Z" fill="#F1F1F1"/>
<path d="M31.8326 7.50924C31.8019 7.38733 31.7387 7.27603 31.6498 7.18721L24.6593 0.196738C24.5275 0.0648676 24.3487 -0.00923752 24.1622 -0.00927734V6.66478C24.1622 6.88856 24.2511 7.10317 24.4093 7.26141C24.5676 7.41964 24.7822 7.50853 25.006 7.50853L31.8326 7.50924Z" fill="#C7C7C7"/>
<path d="M31.8326 7.50952H25.0067C24.7829 7.50952 24.5683 7.42063 24.41 7.26239C24.2518 7.10416 24.1629 6.88955 24.1629 6.66577V7.37944C24.1629 7.84561 24.4526 8.43413 25.0334 8.43413H31.8537V7.6846C31.8582 7.62542 31.851 7.56594 31.8326 7.50952Z" fill="#E4E4E4"/>
<path d="M4.16318 15.1412L2.26404 17.046H4.16318V15.1412Z" fill="#CCA20E"/>
<path d="M31.8326 15.1412L33.7324 17.046H31.8326V15.1412Z" fill="#CCA20E"/>
<path d="M33.1952 28.9807H2.80475C2.61827 28.9807 2.43943 28.9066 2.30756 28.7747C2.1757 28.6429 2.10162 28.464 2.10162 28.2776V17.4958C2.10162 17.3094 2.1757 17.1305 2.30756 16.9987C2.43943 16.8668 2.61827 16.7927 2.80475 16.7927H33.1952C33.3817 16.7927 33.5605 16.8668 33.6924 16.9987C33.8243 17.1305 33.8983 17.3094 33.8983 17.4958V28.2769C33.8984 28.3692 33.8803 28.4608 33.845 28.5461C33.8097 28.6315 33.758 28.7091 33.6927 28.7745C33.6274 28.8399 33.5498 28.8917 33.4645 28.9271C33.3791 28.9625 33.2876 28.9807 33.1952 28.9807Z" fill="#E9B910"/>
<path d="M4.16318 28.9808H31.8558V29.8928H4.16318V28.9808Z" fill="#E4E4E4"/>
<path d="M11.7492 25.6362C11.6904 25.574 11.6447 25.5005 11.6151 25.4201C11.5855 25.3397 11.5725 25.2542 11.577 25.1686V21.4048C11.5678 21.324 11.5769 21.2422 11.6037 21.1654C11.6305 21.0887 11.6743 21.019 11.7319 20.9615C11.7894 20.9041 11.8592 20.8603 11.9359 20.8336C12.0127 20.8069 12.0946 20.7978 12.1753 20.8071H13.976C14.5245 20.8071 14.9513 20.9466 15.2564 21.2255C15.5616 21.5044 15.7139 21.8925 15.7134 22.3899C15.7134 22.8821 15.5599 23.269 15.2529 23.5507C14.9459 23.8325 14.5202 23.9731 13.976 23.9726H12.8714V25.1679C12.8759 25.2538 12.8626 25.3396 12.8324 25.4201C12.8021 25.5006 12.7556 25.5739 12.6956 25.6355C12.6316 25.6948 12.5562 25.7407 12.4741 25.7704C12.392 25.8001 12.3047 25.8131 12.2175 25.8085C12.1319 25.813 12.0462 25.8001 11.9657 25.7705C11.8852 25.7408 11.8115 25.6952 11.7492 25.6362ZM13.8002 23.0023C14.0393 23.0023 14.2165 22.9524 14.3311 22.8539C14.4457 22.7555 14.5041 22.6036 14.5041 22.3969C14.5041 21.9891 14.2697 21.7852 13.8009 21.7852H12.8714V23.0023H13.8002Z" fill="white"/>
<path d="M16.5122 25.6364C16.4534 25.5742 16.4077 25.5006 16.3781 25.4203C16.3485 25.3399 16.3355 25.2543 16.34 25.1688V21.405C16.3308 21.3242 16.3399 21.2425 16.3667 21.1658C16.3935 21.0891 16.4372 21.0194 16.4946 20.962C16.5521 20.9046 16.6218 20.8608 16.6985 20.834C16.7751 20.8072 16.8569 20.7981 16.9376 20.8073H18.739C19.2875 20.8073 19.714 20.9468 20.0187 21.2257C20.3234 21.5046 20.476 21.8927 20.4764 22.39C20.4764 22.8822 20.3227 23.2692 20.0152 23.5509C19.7077 23.8326 19.2823 23.9732 18.739 23.9728H17.6344V25.1681C17.6388 25.254 17.6254 25.3399 17.5951 25.4203C17.5647 25.5008 17.518 25.5741 17.4579 25.6357C17.3939 25.6951 17.3186 25.741 17.2364 25.7708C17.1543 25.8005 17.067 25.8134 16.9798 25.8086C16.8943 25.8131 16.8087 25.8001 16.7283 25.7705C16.648 25.7409 16.5744 25.6952 16.5122 25.6364ZM18.5625 23.0025C18.8023 23.0025 18.9788 22.9525 19.0941 22.8541C19.2094 22.7557 19.2664 22.6038 19.2664 22.3971C19.2664 21.9893 19.032 21.7854 18.5632 21.7854H17.6344V23.0025H18.5625Z" fill="white"/>
<path d="M22.3018 25.6289C22.2413 25.569 22.1941 25.497 22.1632 25.4177C22.1323 25.3383 22.1185 25.2534 22.1225 25.1684V21.8552H21.1304C20.9243 21.8552 20.7704 21.8117 20.6698 21.7252C20.5693 21.6387 20.5186 21.5058 20.5186 21.3272C20.5186 21.1486 20.5686 21.0178 20.6698 20.9334C20.7711 20.8491 20.9243 20.8069 21.1304 20.8069H24.4231C24.6289 20.8069 24.7824 20.8491 24.8836 20.9334C24.9849 21.0178 25.0353 21.1491 25.0348 21.3272C25.0348 21.5058 24.9842 21.638 24.8836 21.7252C24.7831 21.8124 24.6291 21.8552 24.4231 21.8552H23.431V25.1719C23.435 25.2569 23.4211 25.3419 23.3902 25.4212C23.3593 25.5005 23.3121 25.5725 23.2517 25.6324C23.1187 25.7442 22.9505 25.8055 22.7767 25.8055C22.603 25.8055 22.4348 25.7442 22.3018 25.6324V25.6289Z" fill="white"/>
</g>
<defs>
<clipPath id="clip0">
<rect width="36" height="36" fill="white"/>
</clipPath>
</defs>
</svg>
