<svg width="36" height="36" viewBox="0 0 36 36" fill="none" xmlns="http://www.w3.org/2000/svg">
<g clip-path="url(#clip0)">
<path d="M4.16321 15.1412L2.26407 17.046H4.16321V15.1412Z" fill="#54298A"/>
<path d="M31.8326 15.1412L33.7325 17.046H31.8326V15.1412Z" fill="#54298A"/>
<path d="M31.8558 7.68432C31.8557 7.49785 31.7816 7.31904 31.6498 7.18721L24.6593 0.196738C24.5275 0.0648676 24.3487 -0.00923752 24.1622 -0.00927734H4.86703C4.68055 -0.00927734 4.50171 0.0648017 4.36985 0.196663C4.23799 0.328525 4.16391 0.507367 4.16391 0.693848V35.2876C4.16391 35.4741 4.23799 35.6529 4.36985 35.7848C4.50171 35.9166 4.68055 35.9907 4.86703 35.9907H31.1527C31.3391 35.9907 31.518 35.9166 31.6498 35.7848C31.7817 35.6529 31.8558 35.4741 31.8558 35.2876V7.68432Z" fill="#F1F1F1"/>
<path d="M31.8326 7.50924C31.8019 7.38733 31.7387 7.27603 31.6498 7.18721L24.6593 0.196738C24.5275 0.0648676 24.3487 -0.00923752 24.1622 -0.00927734V6.66478C24.1622 6.88856 24.2511 7.10317 24.4093 7.26141C24.5675 7.41964 24.7822 7.50853 25.0059 7.50853L31.8326 7.50924Z" fill="#C7C7C7"/>
<path d="M31.8326 7.50952H25.0066C24.7828 7.50952 24.5682 7.42063 24.41 7.26239C24.2518 7.10416 24.1629 6.88955 24.1629 6.66577V7.37944C24.1629 7.84561 24.4525 8.43413 25.0333 8.43413H31.8536V7.6846C31.8581 7.62542 31.851 7.56594 31.8326 7.50952Z" fill="#E4E4E4"/>
<path d="M33.1952 28.9807H2.80476C2.61828 28.9807 2.43944 28.9066 2.30758 28.7747C2.17572 28.6429 2.10164 28.464 2.10164 28.2776V17.4958C2.10164 17.3094 2.17572 17.1305 2.30758 16.9987C2.43944 16.8668 2.61828 16.7927 2.80476 16.7927H33.1952C33.3817 16.7927 33.5606 16.8668 33.6924 16.9987C33.8243 17.1305 33.8984 17.3094 33.8984 17.4958V28.2769C33.8985 28.3692 33.8803 28.4608 33.8451 28.5461C33.8098 28.6315 33.758 28.7091 33.6927 28.7745C33.6274 28.8399 33.5498 28.8917 33.4645 28.9271C33.3791 28.9625 33.2876 28.9807 33.1952 28.9807Z" fill="#8853CC"/>
<path d="M4.16321 28.9808H31.8558V29.8928H4.16321V28.9808Z" fill="#E4E4E4"/>
<path d="M15.2002 25.3024C15.2009 25.3753 15.1844 25.4474 15.152 25.5127C15.1196 25.5781 15.0723 25.6349 15.0139 25.6785C14.8923 25.7788 14.739 25.8326 14.5814 25.8304C14.471 25.8309 14.3621 25.8044 14.2643 25.7531C14.162 25.6976 14.075 25.6177 14.0112 25.5203L13.0971 24.1844C13.0428 24.1019 12.9723 24.0313 12.8897 23.977C12.8121 23.9312 12.7232 23.9081 12.6331 23.9102H12.176V25.1723C12.1806 25.2576 12.168 25.3429 12.139 25.4232C12.11 25.5035 12.0652 25.5772 12.0073 25.6399C11.9459 25.6991 11.8729 25.7451 11.7929 25.7748C11.713 25.8046 11.6277 25.8175 11.5425 25.8128C11.4567 25.8195 11.3705 25.8075 11.2898 25.7777C11.2091 25.7478 11.1358 25.7008 11.075 25.64C11.0142 25.5791 10.9673 25.5058 10.9376 25.425C10.9078 25.3443 10.8959 25.2581 10.9027 25.1723V21.405C10.8935 21.3242 10.9026 21.2425 10.9294 21.1658C10.9562 21.0891 10.9999 21.0194 11.0574 20.962C11.1148 20.9046 11.1845 20.8608 11.2612 20.834C11.3379 20.8072 11.4196 20.7981 11.5003 20.8073H13.2666C13.8661 20.8073 14.3175 20.9374 14.6208 21.1975C14.9241 21.4577 15.0753 21.8341 15.0743 22.3268C15.0845 22.6708 14.9752 23.0077 14.7649 23.2802C14.5429 23.5498 14.2348 23.7348 13.8924 23.804C14.0372 23.8239 14.1755 23.8769 14.2967 23.9587C14.4301 24.058 14.5457 24.1792 14.6384 24.3173L15.0743 24.9438C15.1508 25.0482 15.1947 25.173 15.2002 25.3024ZM13.6772 22.8049C13.8014 22.7163 13.8635 22.571 13.8635 22.3689C13.8635 22.1669 13.8014 22.0181 13.6772 21.9225C13.5525 21.8311 13.3472 21.7853 13.0613 21.7853H12.1641V22.9385H13.0641C13.3486 22.9385 13.553 22.8939 13.6772 22.8049Z" fill="white"/>
<path d="M20.61 25.2319C20.6106 25.3073 20.5941 25.3819 20.5619 25.4501C20.5296 25.5183 20.4824 25.5783 20.4237 25.6257C20.3068 25.7309 20.1549 25.7888 19.9976 25.7881C19.893 25.7891 19.7903 25.7595 19.7023 25.703C19.6086 25.6412 19.5353 25.5532 19.4913 25.4499L19.1749 24.7397H16.8954L16.572 25.4499C16.5296 25.5508 16.4581 25.6368 16.3668 25.6971C16.2754 25.7573 16.1681 25.789 16.0587 25.7881C15.8994 25.7882 15.7455 25.7305 15.6256 25.6257C15.5653 25.5793 15.5165 25.5196 15.4829 25.4513C15.4494 25.3831 15.432 25.308 15.4322 25.2319C15.4336 25.1416 15.4552 25.0527 15.4955 24.9718L17.3531 21.1587C17.4107 21.0356 17.5054 20.9336 17.6238 20.8669C17.7449 20.8001 17.881 20.765 18.0193 20.765C18.1577 20.765 18.2937 20.8001 18.4149 20.8669C18.535 20.9328 18.6312 21.0349 18.6898 21.1587L20.5467 24.9718C20.587 25.0527 20.6086 25.1416 20.61 25.2319ZM17.332 23.7659H18.7383L18.0352 22.1972L17.332 23.7659Z" fill="white"/>
<path d="M25.4532 25.3022C25.4539 25.3752 25.4373 25.4472 25.405 25.5126C25.3726 25.5779 25.3253 25.6347 25.2668 25.6784C25.1452 25.7786 24.992 25.8325 24.8344 25.8303C24.7242 25.8307 24.6156 25.8041 24.518 25.7529C24.4157 25.6975 24.3287 25.6175 24.2649 25.5202L23.3508 24.1843C23.2951 24.1017 23.2234 24.0311 23.1399 23.9768C23.062 23.931 22.9729 23.9079 22.8825 23.91H22.4255V25.1721C22.43 25.2574 22.4174 25.3427 22.3884 25.423C22.3595 25.5033 22.3147 25.577 22.2568 25.6397C22.1955 25.699 22.1226 25.7449 22.0428 25.7747C21.9629 25.8044 21.8778 25.8174 21.7927 25.8127C21.7068 25.8195 21.6206 25.8075 21.5398 25.7777C21.459 25.7479 21.3856 25.701 21.3247 25.6401C21.2638 25.5792 21.2169 25.5058 21.1871 25.4251C21.1573 25.3443 21.1454 25.258 21.1521 25.1721V21.4048C21.1429 21.324 21.1521 21.2422 21.1789 21.1654C21.2057 21.0887 21.2495 21.019 21.307 20.9615C21.3646 20.9041 21.4343 20.8603 21.5111 20.8336C21.5879 20.8069 21.6697 20.7978 21.7505 20.8071H23.5161C24.1165 20.8071 24.5679 20.9372 24.8703 21.1974C25.1726 21.4575 25.3238 21.8339 25.3238 22.3266C25.3343 22.6707 25.225 23.0077 25.0144 23.28C24.7925 23.5498 24.4843 23.7348 24.1418 23.8039C24.2869 23.8238 24.4254 23.8767 24.5468 23.9585C24.68 24.0578 24.7954 24.1791 24.8879 24.3171L25.3238 24.9436C25.4016 25.0477 25.4466 25.1725 25.4532 25.3022ZM23.9302 22.8047C24.0544 22.7161 24.1165 22.5708 24.1165 22.3688C24.1165 22.1668 24.0544 22.0179 23.9302 21.9223C23.8057 21.8309 23.6011 21.7852 23.315 21.7852H22.4107V22.9383H23.3114C23.5976 22.9383 23.8022 22.894 23.9267 22.8047H23.9302Z" fill="white"/>
</g>
<defs>
<clipPath id="clip0">
<rect width="36" height="36" fill="white"/>
</clipPath>
</defs>
</svg>
