<svg width="36" height="36" viewBox="0 0 36 36" fill="none" xmlns="http://www.w3.org/2000/svg">
<g clip-path="url(#clip0)">
<path d="M4.16325 15.1412L2.26411 17.046H4.16325V15.1412Z" fill="#54298A"/>
<path d="M31.8326 15.1412L33.7324 17.046H31.8326V15.1412Z" fill="#54298A"/>
<path d="M31.8558 7.68432C31.8558 7.49785 31.7817 7.31904 31.6498 7.18721L24.6593 0.196738C24.5275 0.0648676 24.3487 -0.00923752 24.1622 -0.00927734H4.86706C4.68058 -0.00927734 4.50174 0.0648017 4.36988 0.196663C4.23801 0.328525 4.16393 0.507367 4.16393 0.693848V35.2876C4.16393 35.4741 4.23801 35.6529 4.36988 35.7848C4.50174 35.9166 4.68058 35.9907 4.86706 35.9907H31.1527C31.3392 35.9907 31.518 35.9166 31.6499 35.7848C31.7817 35.6529 31.8558 35.4741 31.8558 35.2876V7.68432Z" fill="#F1F1F1"/>
<path d="M31.8326 7.50924C31.8019 7.38733 31.7387 7.27603 31.6498 7.18721L24.6593 0.196738C24.5275 0.0648676 24.3487 -0.00923752 24.1622 -0.00927734V6.66478C24.1622 6.88856 24.2511 7.10317 24.4093 7.26141C24.5676 7.41964 24.7822 7.50853 25.0059 7.50853L31.8326 7.50924Z" fill="#C7C7C7"/>
<path d="M31.8326 7.50952H25.0066C24.7828 7.50952 24.5682 7.42063 24.41 7.26239C24.2518 7.10416 24.1629 6.88955 24.1629 6.66577V7.37944C24.1629 7.84561 24.4525 8.43413 25.0333 8.43413H31.8536V7.6846C31.8581 7.62542 31.851 7.56594 31.8326 7.50952Z" fill="#E4E4E4"/>
<path d="M33.1952 28.9807H2.80475C2.61827 28.9807 2.43943 28.9066 2.30757 28.7747C2.17571 28.6429 2.10163 28.464 2.10163 28.2776V17.4958C2.10163 17.3094 2.17571 17.1305 2.30757 16.9987C2.43943 16.8668 2.61827 16.7927 2.80475 16.7927H33.1952C33.3817 16.7927 33.5605 16.8668 33.6924 16.9987C33.8243 17.1305 33.8983 17.3094 33.8983 17.4958V28.2769C33.8984 28.3692 33.8803 28.4608 33.845 28.5461C33.8097 28.6315 33.758 28.7091 33.6927 28.7745C33.6274 28.8399 33.5498 28.8917 33.4645 28.9271C33.3791 28.9625 33.2876 28.9807 33.1952 28.9807Z" fill="#8853CC"/>
<path d="M4.16324 28.9808H31.8558V29.8928H4.16324V28.9808Z" fill="#E4E4E4"/>
<path d="M17.7047 21.1431C17.7979 21.2485 17.847 21.3857 17.8418 21.5263C17.8404 21.6903 17.7942 21.8507 17.7082 21.9904L15.5764 25.6839C15.5196 25.7875 15.4357 25.8738 15.3338 25.9335C15.2429 25.9861 15.1399 26.014 15.0349 26.0144C14.8741 26.0158 14.7185 25.9568 14.599 25.8491C14.5389 25.8004 14.4906 25.7387 14.4576 25.6687C14.4246 25.5987 14.4078 25.5222 14.4085 25.4448C14.4106 25.3253 14.4446 25.2086 14.5069 25.1066L16.3125 22.0185H14.5547C14.3391 22.0185 14.183 21.9763 14.0864 21.8919C14.036 21.8431 13.997 21.7838 13.972 21.7182C13.9471 21.6525 13.937 21.5822 13.9423 21.5122C13.9368 21.4404 13.9472 21.3681 13.9727 21.3007C13.9982 21.2333 14.0383 21.1723 14.09 21.122C14.1884 21.0348 14.3433 20.9912 14.5547 20.9912H17.3117C17.3843 20.9864 17.4571 20.9974 17.525 21.0237C17.5929 21.0499 17.6542 21.0907 17.7047 21.1431Z" fill="white"/>
<path d="M22.0782 25.0581C22.1785 25.1373 22.2289 25.2639 22.2293 25.4378C22.2298 25.6117 22.1806 25.7418 22.0817 25.828C21.9832 25.9105 21.8285 25.9515 21.6176 25.9511H18.8051C18.7296 25.955 18.6541 25.9433 18.5833 25.9167C18.5125 25.8901 18.448 25.8491 18.3938 25.7964C18.344 25.7453 18.3049 25.6848 18.2789 25.6184C18.253 25.5519 18.2406 25.481 18.2426 25.4097C18.2465 25.2438 18.3032 25.0835 18.4043 24.9519L20.5714 22.008H18.8691C18.6582 22.008 18.5021 21.9672 18.4008 21.8849C18.3483 21.8381 18.3074 21.7798 18.2812 21.7145C18.2549 21.6493 18.2441 21.5789 18.2496 21.5087C18.2496 21.3301 18.3 21.2001 18.4008 21.1185C18.5021 21.0362 18.6575 20.9948 18.8691 20.9948H21.5705C21.6447 20.9912 21.7188 21.0029 21.7883 21.029C21.8578 21.0551 21.9213 21.0951 21.9748 21.1466C22.0248 21.1968 22.064 21.2567 22.09 21.3226C22.116 21.3885 22.1282 21.459 22.126 21.5298C22.123 21.6978 22.0663 21.8604 21.9642 21.9939L19.7972 24.9414H21.6197C21.826 24.939 21.9788 24.978 22.0782 25.0581Z" fill="white"/>
</g>
<defs>
<clipPath id="clip0">
<rect width="36" height="36" fill="white"/>
</clipPath>
</defs>
</svg>
