<svg width="36" height="36" viewBox="0 0 36 36" fill="none" xmlns="http://www.w3.org/2000/svg">
<g clip-path="url(#clip0)">
<path d="M31.8558 7.68432C31.8558 7.49785 31.7817 7.31904 31.6498 7.18721L24.6593 0.196738C24.5275 0.0648676 24.3487 -0.00923752 24.1622 -0.00927734H4.86706C4.68058 -0.00927734 4.50173 0.0648017 4.36987 0.196663C4.23801 0.328525 4.16393 0.507367 4.16393 0.693848V35.2876C4.16393 35.4741 4.23801 35.6529 4.36987 35.7848C4.50173 35.9166 4.68058 35.9907 4.86706 35.9907H31.1527C31.3392 35.9907 31.518 35.9166 31.6499 35.7848C31.7817 35.6529 31.8558 35.4741 31.8558 35.2876V7.68432Z" fill="#F1F1F1"/>
<path d="M31.8325 7.50924C31.8018 7.38733 31.7386 7.27603 31.6497 7.18721L24.6592 0.196738C24.5274 0.0648676 24.3485 -0.00923752 24.1621 -0.00927734V6.66478C24.1621 6.88856 24.251 7.10317 24.4092 7.26141C24.5674 7.41964 24.7821 7.50853 25.0058 7.50853L31.8325 7.50924Z" fill="#C7C7C7"/>
<path d="M31.8327 7.50952H25.0067C24.783 7.50952 24.5683 7.42063 24.4101 7.26239C24.2519 7.10416 24.163 6.88955 24.163 6.66577V7.37944C24.163 7.84561 24.4527 8.43413 25.0334 8.43413H31.8538V7.6846C31.8582 7.62542 31.8511 7.56594 31.8327 7.50952Z" fill="#E4E4E4"/>
<path d="M4.16325 15.1412L2.26411 17.046H4.16325V15.1412Z" fill="#54298A"/>
<path d="M31.8326 15.1412L33.7325 17.046H31.8326V15.1412Z" fill="#54298A"/>
<path d="M33.1953 28.9807H2.80486C2.61838 28.9807 2.43954 28.9066 2.30768 28.7747C2.17582 28.6429 2.10174 28.464 2.10174 28.2776V17.4958C2.10174 17.3094 2.17582 17.1305 2.30768 16.9987C2.43954 16.8668 2.61838 16.7927 2.80486 16.7927H33.1953C33.3818 16.7927 33.5607 16.8668 33.6925 16.9987C33.8244 17.1305 33.8985 17.3094 33.8985 17.4958V28.2769C33.8985 28.3692 33.8804 28.4608 33.8451 28.5461C33.8098 28.6315 33.7581 28.7091 33.6928 28.7745C33.6275 28.8399 33.5499 28.8917 33.4646 28.9271C33.3792 28.9625 33.2877 28.9807 33.1953 28.9807Z" fill="#8853CC"/>
<path d="M4.16324 28.9808H31.8558V29.8928H4.16324V28.9808Z" fill="#E4E4E4"/>
<path d="M16.4912 24.8728C16.592 24.952 16.6423 25.0786 16.6423 25.2525C16.6423 25.4264 16.5931 25.5565 16.4947 25.6427C16.3963 25.7252 16.2416 25.7665 16.0306 25.7665H13.2188C13.1433 25.7703 13.0677 25.7584 12.9969 25.7317C12.9262 25.705 12.8617 25.6639 12.8075 25.6111C12.7576 25.5601 12.7186 25.4995 12.6926 25.4331C12.6666 25.3667 12.6543 25.2957 12.6563 25.2244C12.6602 25.0587 12.7168 24.8986 12.818 24.7673L14.9851 21.8198H13.28C13.0691 21.8198 12.913 21.7784 12.8117 21.6968C12.7593 21.6498 12.7184 21.5913 12.6922 21.526C12.666 21.4606 12.6552 21.3901 12.6605 21.3199C12.6605 21.1418 12.7109 21.0117 12.8117 20.9297C12.913 20.8474 13.0684 20.8066 13.28 20.8066H15.9814C16.0555 20.8031 16.1296 20.8147 16.1991 20.8407C16.2686 20.8667 16.3321 20.9065 16.3857 20.9578C16.4356 21.0081 16.4748 21.068 16.5008 21.1338C16.5268 21.1997 16.539 21.2702 16.5369 21.341C16.5338 21.5092 16.4772 21.672 16.3752 21.8058L14.2081 24.7533H16.0313C16.2371 24.7533 16.3904 24.7931 16.4912 24.8728Z" fill="white"/>
<path d="M17.377 25.6358C17.3182 25.5735 17.2726 25.5 17.2429 25.4196C17.2133 25.3393 17.2003 25.2537 17.2048 25.1682V21.4044C17.2008 21.3199 17.214 21.2356 17.2437 21.1564C17.2733 21.0772 17.3186 21.0049 17.377 20.9438C17.4393 20.8849 17.513 20.8392 17.5935 20.8096C17.674 20.78 17.7597 20.767 17.8453 20.7715C17.9325 20.7669 18.0197 20.7798 18.1018 20.8094C18.1839 20.839 18.2593 20.8847 18.3234 20.9438C18.3829 21.0043 18.4292 21.0765 18.4594 21.1557C18.4897 21.235 18.5032 21.3196 18.4992 21.4044V25.1717C18.5037 25.2575 18.4904 25.3434 18.4602 25.4239C18.4299 25.5043 18.3834 25.5777 18.3234 25.6393C18.2594 25.6987 18.1841 25.7446 18.1019 25.7743C18.0198 25.804 17.9325 25.8169 17.8453 25.8123C17.7594 25.8162 17.6735 25.8026 17.593 25.7723C17.5125 25.7419 17.439 25.6955 17.377 25.6358Z" fill="white"/>
<path d="M19.5722 25.6355C19.5134 25.5733 19.4677 25.4998 19.4381 25.4194C19.4085 25.339 19.3955 25.2535 19.4 25.1679V21.4041C19.3908 21.3234 19.3999 21.2416 19.4267 21.1649C19.4535 21.0882 19.4972 21.0186 19.5546 20.9611C19.6121 20.9037 19.6818 20.86 19.7584 20.8332C19.8351 20.8064 19.9169 20.7973 19.9976 20.8064H21.7969C22.3453 20.8064 22.7721 20.9459 23.0773 21.2248C23.3825 21.5037 23.5348 21.8918 23.5343 22.3892C23.5343 22.8814 23.3808 23.2683 23.0738 23.55C22.7668 23.8318 22.3411 23.9724 21.7969 23.9719H20.6944V25.1672C20.6987 25.2531 20.6854 25.3389 20.6551 25.4193C20.6249 25.4997 20.5784 25.5731 20.5186 25.6348C20.4544 25.6942 20.379 25.7401 20.2967 25.7698C20.2145 25.7995 20.1271 25.8124 20.0398 25.8078C19.9543 25.8122 19.8687 25.7992 19.7883 25.7696C19.708 25.74 19.6344 25.6944 19.5722 25.6355ZM21.6232 23.0016C21.8623 23.0016 22.0388 22.9517 22.1541 22.8532C22.2694 22.7548 22.3264 22.6029 22.3264 22.3962C22.3264 21.9884 22.092 21.7845 21.6232 21.7845H20.6944V23.0016H21.6232Z" fill="white"/>
</g>
<defs>
<clipPath id="clip0">
<rect width="36" height="36" fill="white"/>
</clipPath>
</defs>
</svg>
