<svg width="36" height="36" viewBox="0 0 36 36" fill="none" xmlns="http://www.w3.org/2000/svg">
<g clip-path="url(#clip0)">
<path d="M31.8558 7.68432C31.8558 7.49785 31.7817 7.31904 31.6498 7.18721L24.6593 0.196738C24.5275 0.0648676 24.3487 -0.00923752 24.1622 -0.00927734H4.86707C4.68059 -0.00927734 4.50174 0.0648017 4.36988 0.196663C4.23802 0.328525 4.16394 0.507367 4.16394 0.693848V35.2876C4.16394 35.4741 4.23802 35.6529 4.36988 35.7848C4.50174 35.9166 4.68059 35.9907 4.86707 35.9907H31.1527C31.3392 35.9907 31.518 35.9166 31.6499 35.7848C31.7817 35.6529 31.8558 35.4741 31.8558 35.2876V7.68432Z" fill="#F1F1F1"/>
<path d="M31.8326 7.50924C31.8019 7.38733 31.7387 7.27603 31.6498 7.18721L24.6593 0.196738C24.5275 0.0648676 24.3487 -0.00923752 24.1622 -0.00927734V6.66478C24.1622 6.88856 24.2511 7.10317 24.4093 7.26141C24.5675 7.41964 24.7822 7.50853 25.0059 7.50853L31.8326 7.50924Z" fill="#C7C7C7"/>
<path d="M31.8326 7.50952H25.0066C24.7828 7.50952 24.5682 7.42063 24.41 7.26239C24.2518 7.10416 24.1629 6.88955 24.1629 6.66577V7.37944C24.1629 7.84561 24.4525 8.43413 25.0333 8.43413H31.8536V7.6846C31.8581 7.62542 31.851 7.56594 31.8326 7.50952Z" fill="#E4E4E4"/>
<path d="M4.16325 15.1412L2.26411 17.046H4.16325V15.1412Z" fill="#123B79"/>
<path d="M31.8326 15.1412L33.7325 17.046H31.8326V15.1412Z" fill="#123B79"/>
<path d="M33.1952 28.9807H2.80475C2.61827 28.9807 2.43943 28.9066 2.30756 28.7747C2.1757 28.6429 2.10162 28.464 2.10162 28.2776V17.4958C2.10162 17.3094 2.1757 17.1305 2.30756 16.9987C2.43943 16.8668 2.61827 16.7927 2.80475 16.7927H33.1952C33.3817 16.7927 33.5605 16.8668 33.6924 16.9987C33.8243 17.1305 33.8983 17.3094 33.8983 17.4958V28.2769C33.8984 28.3692 33.8803 28.4608 33.845 28.5461C33.8097 28.6315 33.758 28.7091 33.6927 28.7745C33.6274 28.8399 33.5498 28.8917 33.4645 28.9271C33.3791 28.9625 33.2876 28.9807 33.1952 28.9807Z" fill="#478CF7"/>
<path d="M4.16324 28.9808H31.8558V29.8928H4.16324V28.9808Z" fill="#E4E4E4"/>
<path d="M11.025 25.6364C10.9661 25.5741 10.9205 25.5006 10.8909 25.4202C10.8613 25.3399 10.8483 25.2543 10.8527 25.1688V21.405C10.8435 21.3242 10.8527 21.2425 10.8794 21.1658C10.9062 21.0891 10.95 21.0194 11.0074 20.962C11.0648 20.9046 11.1345 20.8608 11.2112 20.834C11.2879 20.8072 11.3697 20.7981 11.4504 20.8073H13.2518C13.8002 20.8073 14.227 20.9468 14.5322 21.2257C14.8373 21.5046 14.9897 21.8927 14.9892 22.39C14.9892 22.8822 14.8357 23.2692 14.5287 23.5509C14.2216 23.8326 13.796 23.9732 13.2518 23.9728H12.1472V25.1681C12.1515 25.2539 12.1381 25.3397 12.1079 25.4202C12.0777 25.5006 12.0312 25.5739 11.9714 25.6357C11.9072 25.695 11.8317 25.7409 11.7495 25.7707C11.6673 25.8004 11.5799 25.8133 11.4926 25.8086C11.407 25.8131 11.3215 25.8001 11.2411 25.7705C11.1607 25.7408 11.0872 25.6952 11.025 25.6364ZM13.0781 23.0025C13.3172 23.0025 13.4937 22.9525 13.609 22.8541C13.7243 22.7557 13.7812 22.6038 13.7812 22.3971C13.7812 21.9893 13.5469 21.7853 13.0781 21.7853H12.1472V23.0025H13.0781Z" fill="white"/>
<path d="M19.8675 20.9477C19.9255 21.0084 19.9706 21.0801 20.0002 21.1587C20.0298 21.2372 20.0433 21.3209 20.0398 21.4047V25.1721C20.0438 25.2567 20.0309 25.3413 20.0019 25.421C19.973 25.5007 19.9285 25.5738 19.871 25.6361C19.8148 25.6945 19.747 25.7404 19.6719 25.7708C19.5968 25.8012 19.5161 25.8155 19.4351 25.8126C19.3443 25.8188 19.2533 25.8028 19.17 25.766C19.0868 25.7293 19.0136 25.6729 18.957 25.6017L16.8181 22.9354V25.1721C16.8261 25.3418 16.7682 25.5081 16.6563 25.6361C16.6007 25.6953 16.533 25.7416 16.4577 25.7721C16.3825 25.8026 16.3015 25.8164 16.2204 25.8126C16.1393 25.8155 16.0585 25.8013 15.9833 25.7709C15.9081 25.7405 15.8401 25.6945 15.7838 25.6361C15.7263 25.5738 15.6819 25.5007 15.6529 25.421C15.6239 25.3413 15.611 25.2567 15.615 25.1721V21.4047C15.6116 21.3212 15.6247 21.2378 15.6537 21.1593C15.6826 21.0809 15.7268 21.0089 15.7838 20.9477C15.8401 20.8894 15.9081 20.8436 15.9834 20.8133C16.0586 20.783 16.1394 20.7689 16.2204 20.7719C16.31 20.7676 16.3993 20.7844 16.4812 20.821C16.563 20.8577 16.6351 20.9131 16.6915 20.9829L18.8304 23.6421V21.4047C18.8263 21.3209 18.8387 21.237 18.8671 21.158C18.8955 21.0789 18.9391 21.0063 18.9956 20.9442C19.0516 20.8867 19.119 20.8417 19.1935 20.812C19.268 20.7824 19.3479 20.7687 19.4281 20.7719C19.5095 20.7692 19.5906 20.7834 19.6663 20.8136C19.7419 20.8439 19.8104 20.8895 19.8675 20.9477Z" fill="white"/>
<path d="M25.1929 23.0973C25.2391 23.1423 25.2751 23.1966 25.2988 23.2566C25.3224 23.3166 25.3331 23.3809 25.33 23.4453V24.6695C25.3358 24.8503 25.318 25.0311 25.2773 25.2074C25.2479 25.3229 25.1812 25.4255 25.0875 25.4992C24.9627 25.5849 24.8233 25.6469 24.6761 25.682C24.4759 25.7322 24.2724 25.7689 24.0672 25.7917C23.8607 25.8162 23.6529 25.8291 23.4449 25.8303C22.9054 25.8303 22.4367 25.7282 22.0387 25.5238C21.6518 25.3305 21.3329 25.0239 21.1246 24.6449C20.9137 24.2624 20.8082 23.8086 20.8082 23.2836C20.7968 22.8149 20.9057 22.3511 21.1246 21.9364C21.3305 21.5591 21.6441 21.2517 22.0253 21.0533C22.4478 20.8393 22.9166 20.733 23.3901 20.7439C23.6883 20.7399 23.9855 20.7789 24.2725 20.8599C24.5332 20.9375 24.7793 21.0575 25.001 21.215C25.0717 21.2619 25.1307 21.3244 25.1732 21.3978C25.2113 21.4769 25.2294 21.564 25.226 21.6517C25.2297 21.7848 25.1875 21.9151 25.1064 22.0208C25.0738 22.067 25.0306 22.1049 24.9805 22.1311C24.9304 22.1574 24.8747 22.1714 24.8182 22.172C24.7523 22.1736 24.6867 22.1629 24.6248 22.1403C24.5528 22.1098 24.4834 22.0733 24.4174 22.0313C24.2616 21.9449 24.0965 21.8765 23.9252 21.8274C23.7636 21.7841 23.5968 21.7628 23.4295 21.7642C22.9837 21.7642 22.6518 21.8884 22.4339 22.1368C22.2159 22.3853 22.1069 22.7675 22.1069 23.2836C22.1069 23.8138 22.2206 24.2066 22.4479 24.4621C22.6753 24.7175 23.0235 24.8453 23.4928 24.8453C23.7173 24.8454 23.9412 24.8219 24.1607 24.775V23.8532H23.6545C23.5245 23.8615 23.3963 23.82 23.2959 23.7371C23.2145 23.6477 23.1694 23.5311 23.1694 23.4102C23.1694 23.2893 23.2145 23.1727 23.2959 23.0832C23.3962 23.0001 23.5245 22.9584 23.6545 22.9665H24.8153C24.8838 22.9619 24.9525 22.9711 25.0174 22.9936C25.0823 23.0161 25.1419 23.0513 25.1929 23.0973Z" fill="white"/>
</g>
<defs>
<clipPath id="clip0">
<rect width="36" height="36" fill="white"/>
</clipPath>
</defs>
</svg>
