<svg width="36" height="36" viewBox="0 0 36 36" fill="none" xmlns="http://www.w3.org/2000/svg">
<g clip-path="url(#clip0)">
<path d="M31.8558 7.68432C31.8558 7.49785 31.7817 7.31904 31.6498 7.18721L24.6593 0.196738C24.5275 0.0648676 24.3487 -0.00923752 24.1622 -0.00927734H4.86707C4.68059 -0.00927734 4.50174 0.0648017 4.36988 0.196663C4.23802 0.328525 4.16394 0.507367 4.16394 0.693848V35.2876C4.16394 35.4741 4.23802 35.6529 4.36988 35.7848C4.50174 35.9166 4.68059 35.9907 4.86707 35.9907H31.1527C31.3392 35.9907 31.518 35.9166 31.6499 35.7848C31.7817 35.6529 31.8558 35.4741 31.8558 35.2876V7.68432Z" fill="#F1F1F1"/>
<path d="M31.8325 7.50924C31.8018 7.38733 31.7386 7.27603 31.6497 7.18721L24.6592 0.196738C24.5274 0.0648676 24.3485 -0.00923752 24.1621 -0.00927734V6.66478C24.1621 6.88856 24.251 7.10317 24.4092 7.26141C24.5674 7.41964 24.7821 7.50853 25.0058 7.50853L31.8325 7.50924Z" fill="#C7C7C7"/>
<path d="M31.8327 7.50952H25.0067C24.783 7.50952 24.5683 7.42063 24.4101 7.26239C24.2519 7.10416 24.163 6.88955 24.163 6.66577V7.37944C24.163 7.84561 24.4527 8.43413 25.0334 8.43413H31.8538V7.6846C31.8582 7.62542 31.8511 7.56594 31.8327 7.50952Z" fill="#E4E4E4"/>
<path d="M4.16325 15.1412L2.26411 17.046H4.16325V15.1412Z" fill="#123B79"/>
<path d="M31.8326 15.1412L33.7325 17.046H31.8326V15.1412Z" fill="#123B79"/>
<path d="M33.1953 28.9807H2.80487C2.61839 28.9807 2.43955 28.9066 2.30769 28.7747C2.17582 28.6429 2.10175 28.464 2.10175 28.2776V17.4958C2.10175 17.3094 2.17582 17.1305 2.30769 16.9987C2.43955 16.8668 2.61839 16.7927 2.80487 16.7927H33.1953C33.3818 16.7927 33.5607 16.8668 33.6925 16.9987C33.8244 17.1305 33.8985 17.3094 33.8985 17.4958V28.2769C33.8986 28.3692 33.8804 28.4608 33.8451 28.5461C33.8099 28.6315 33.7581 28.7091 33.6928 28.7745C33.6275 28.8399 33.5499 28.8917 33.4646 28.9271C33.3792 28.9625 33.2877 28.9807 33.1953 28.9807Z" fill="#478CF7"/>
<path d="M11.5347 25.2885C11.5294 25.2226 11.5372 25.1564 11.5578 25.0937C11.5783 25.0309 11.6111 24.9728 11.6542 24.9228C11.7344 24.8434 11.8609 24.7984 12.0346 24.7892L12.2737 24.7752C12.334 24.7765 12.3939 24.7646 12.4492 24.7403C12.5044 24.716 12.5537 24.6799 12.5936 24.6346C12.671 24.5326 12.7096 24.4065 12.7026 24.2788V21.4051C12.6987 21.3204 12.7123 21.2358 12.7426 21.1565C12.7728 21.0773 12.819 21.0051 12.8784 20.9445C12.9427 20.8854 13.0182 20.8397 13.1004 20.8101C13.1826 20.7805 13.2699 20.7677 13.3572 20.7723C13.4426 20.7687 13.5279 20.7821 13.6082 20.8117C13.6884 20.8413 13.762 20.8864 13.8248 20.9445C13.8851 21.0046 13.9322 21.0765 13.9631 21.1559C13.994 21.2352 14.0079 21.3201 14.0041 21.4051V24.2584C14.0041 24.7271 13.881 25.0918 13.6349 25.3525C13.3888 25.6131 13.0218 25.7598 12.5338 25.7926L12.3088 25.8067C11.7927 25.8315 11.5347 25.6588 11.5347 25.2885Z" fill="white"/>
<path d="M15.0771 25.6364C15.0189 25.5744 14.9738 25.5014 14.9444 25.4217C14.9151 25.342 14.9021 25.2572 14.9062 25.1723V21.405C14.897 21.3242 14.9061 21.2425 14.9329 21.1658C14.9597 21.0891 15.0035 21.0194 15.0609 20.962C15.1183 20.9046 15.188 20.8608 15.2647 20.834C15.3414 20.8072 15.4232 20.7981 15.5039 20.8073H17.3046C17.8539 20.8073 18.2807 20.9468 18.585 21.2257C18.8892 21.5046 19.0417 21.8927 19.0427 22.39C19.0427 22.8822 18.8889 23.2692 18.5814 23.5509C18.2739 23.8326 17.8483 23.9732 17.3046 23.9728H16.2007V25.1681C16.205 25.2539 16.1916 25.3397 16.1614 25.4202C16.1311 25.5006 16.0847 25.5739 16.0249 25.6357C15.9607 25.695 15.8852 25.7409 15.803 25.7707C15.7207 25.8004 15.6334 25.8133 15.5461 25.8086C15.4603 25.8132 15.3745 25.8004 15.2938 25.7707C15.2132 25.7411 15.1395 25.6954 15.0771 25.6364ZM17.1274 23.0025C17.3671 23.0025 17.5436 22.9525 17.6589 22.8541C17.7743 22.7557 17.8312 22.6038 17.8312 22.3971C17.8312 21.9893 17.5968 21.7853 17.1281 21.7853H16.2V23.0025H17.1274Z" fill="white"/>
<path d="M23.9336 23.0973C23.9797 23.1423 24.0158 23.1966 24.0394 23.2566C24.063 23.3166 24.0737 23.3809 24.0707 23.4453V24.6695C24.0764 24.8503 24.0587 25.0311 24.0179 25.2074C23.9885 25.3229 23.9218 25.4255 23.8281 25.4992C23.7034 25.5849 23.5639 25.6469 23.4168 25.682C23.2165 25.7322 23.0131 25.7689 22.8078 25.7917C22.6013 25.8162 22.3936 25.8291 22.1856 25.8303C21.6465 25.8303 21.1778 25.7282 20.7793 25.5238C20.3924 25.3305 20.0735 25.0239 19.8653 24.6449C19.6543 24.2624 19.5489 23.8086 19.5489 23.2836C19.5374 22.8149 19.6464 22.3511 19.8653 21.9364C20.0711 21.5591 20.3847 21.2517 20.766 21.0533C21.1885 20.8393 21.6573 20.733 22.1307 20.7439C22.4292 20.7399 22.7266 20.779 23.0139 20.8599C23.2743 20.9376 23.5201 21.0576 23.7416 21.215C23.8123 21.2619 23.8713 21.3244 23.9139 21.3978C23.9519 21.4769 23.97 21.564 23.9666 21.6517C23.9707 21.7848 23.9284 21.9153 23.8471 22.0208C23.8144 22.067 23.7713 22.1049 23.7211 22.1311C23.671 22.1574 23.6154 22.1714 23.5588 22.172C23.4929 22.1736 23.4273 22.1629 23.3654 22.1403C23.2934 22.1098 23.224 22.0733 23.158 22.0313C23.0022 21.9449 22.8371 21.8765 22.6658 21.8274C22.5042 21.7841 22.3374 21.7628 22.1701 21.7642C21.7243 21.7642 21.3924 21.8884 21.1745 22.1368C20.9565 22.3853 20.8475 22.7675 20.8475 23.2836C20.8475 23.8138 20.9612 24.2066 21.1885 24.4621C21.4159 24.7175 21.7642 24.8453 22.2334 24.8453C22.4579 24.8454 22.6818 24.8219 22.9014 24.775V23.8532H22.3951C22.2652 23.8615 22.1369 23.82 22.0365 23.7371C21.9551 23.6477 21.91 23.5311 21.91 23.4102C21.91 23.2893 21.9551 23.1727 22.0365 23.0832C22.1368 23.0001 22.2651 22.9584 22.3951 22.9665H23.556C23.6245 22.9619 23.6932 22.9711 23.758 22.9936C23.8229 23.0161 23.8826 23.0513 23.9336 23.0973Z" fill="white"/>
<path d="M4.16324 28.9808H31.8558V29.8928H4.16324V28.9808Z" fill="#E4E4E4"/>
</g>
<defs>
<clipPath id="clip0">
<rect width="36" height="36" fill="white"/>
</clipPath>
</defs>
</svg>
