<svg xmlns="http://www.w3.org/2000/svg" viewBox="0 0 1102.92 336.77"><defs><style>.cls-1{fill:#ea5616;}.cls-2{fill:#2c2d84;}</style></defs><title>logo_psbAsset 1</title><g id="Layer_2" data-name="Layer 2"><g id="Слой_1" data-name="Слой 1"><polygon class="cls-1" points="224.51 0 112.26 112.26 224.51 112.26 224.51 336.77 336.77 224.78 336.77 0 224.51 0"/><polygon class="cls-2" points="112.26 336.77 224.52 224.51 112.26 224.51 112.26 0 0 111.99 0 336.77 112.26 336.77"/><path class="cls-2" d="M449,280.64H508v-174h89.81v174H656.7V56.13H449ZM1021.5,140.25H971.15V106.64h112.13V56.13H912.22V280.64h112.09c44.93,0,78.61-22.53,78.61-70.2s-33.68-70.19-81.42-70.19m-5.61,92.68H971.15V188.08h44.74c13.9,0,28,5.48,28,22.36s-14.08,22.49-28,22.49m-214.95-.13c-39.33,0-61.45-28.84-61.45-64.49,0-28.62,16.1-64.54,60.34-64.54,27.61,0,45.42,16.87,51.73,24.73L887.4,92.67A117.6,117.6,0,0,0,797,50.44c-65.1,0-116.46,48.18-116.46,117.87,0,65.1,51.36,117.87,116.46,117.87a117.71,117.71,0,0,0,95-48.08L855.93,202c-11.41,17.87-30,30.76-55,30.76"/></g></g></svg>