<svg width="93" height="28" viewBox="0 0 93 28" fill="none" xmlns="http://www.w3.org/2000/svg">
  <path d="M9.43711 0L0 9.36173V27.4165H10.1112L18.7298 18.8667H9.43711V0Z" fill="white" />
  <path d="M18.8062 27.9999L28.2433 18.6382V0.583389H18.1321L9.51352 9.13313H18.8062V27.9999Z" fill="#F26126" />
  <path
    d="M65.0423 4.78125C61.1904 5.52901 58.4098 8.07609 57.495 11.7215C57.158 13.0651 57.1339 15.285 57.4469 16.4768C57.7358 17.6101 58.7108 19.4912 59.445 20.3558C60.6487 21.7929 62.4302 22.9263 64.3321 23.452C65.5839 23.8025 68.2201 23.8376 69.4238 23.5105C71.2654 23.0197 72.7701 22.1551 74.1182 20.7998L75.009 19.9118L73.4803 18.428C72.0117 17.0025 71.9395 16.9558 71.771 17.1778C71.6747 17.3063 71.3497 17.6568 71.0488 17.9489C68.834 20.1689 64.7173 19.8651 63.0682 17.3647C61.8645 15.5538 61.8645 12.8548 63.0562 11.0438C64.7293 8.52008 68.4849 8.22798 71.0247 10.4362L71.6025 10.9503L73.0469 9.55994C73.8414 8.81217 74.4914 8.12283 74.4914 8.05272C74.4914 7.87747 73.2395 6.74413 72.5293 6.26509C71.771 5.76269 70.4108 5.15513 69.496 4.90977C68.4969 4.65272 66.1015 4.58262 65.0423 4.78125Z"
    fill="white"
  />
  <path
    d="M37.658 14.1984V23.3118H40.1857H42.7135V16.243V9.17431H46.445H50.1765V16.243V23.3118H52.6803H55.1719V14.1984V5.08496H46.421H37.658V14.1984Z"
    fill="white"
  />
  <path
    d="M76.6582 14.1984V23.3118H81.9906C87.8407 23.3118 88.2981 23.265 89.7185 22.6107C91.6083 21.7344 92.6675 19.9585 92.6675 17.6451C92.6675 15.3434 91.6444 13.6025 89.7666 12.7145C88.4546 12.0953 87.612 11.9784 84.4342 11.9784H81.5934V10.5764V9.17431H86.3481H91.1027V7.12964V5.08496H83.8805H76.6582V14.1984ZM86.4203 15.9626C87.7925 16.3716 88.1777 18.019 87.1064 18.942C86.6129 19.3743 86.1073 19.4561 83.8082 19.4561H81.5934V17.6451V15.8341H83.7721C85.0601 15.8341 86.1434 15.8925 86.4203 15.9626Z"
    fill="white"
  />
</svg>
